fira-sans_medium-italic.sfdir

StartChar: exclam
Encoding: 33 33 987
Width: 233
Flags: MW
HStem: -15 21G<62 107> -15 162<76 107> 671 20G<108 244 244 244>
VStem: 12 160<50.5 82>
LayerCount: 2
Fore
SplineSet
165 244 m 1xb0
 60 244 l 1
 108 691 l 1
 244 691 l 1
 165 244 l 1xb0
100 147 m 0x70
 142 147 172 115 172 75 c 0
 172 26 131 -15 83 -15 c 0
 41 -15 12 18 12 58 c 0
 12 106 52 147 100 147 c 0x70
EndSplineSet
EndChar
StartChar: quotedbl
Encoding: 34 34 2132
Width: 413
Flags: MW
HStem: 420 271<89 232 111 177 302 368 111 280>
VStem: 89 334<420 691>
LayerCount: 2
Back
Fore
SplineSet
89 420 m 1
 111 691 l 1
 232 691 l 1
 177 420 l 1
 89 420 l 1
280 420 m 1
 302 691 l 1
 423 691 l 1
 368 420 l 1
 280 420 l 1
EndSplineSet
EndChar
StartChar: numbersign
Encoding: 35 35 2128
Width: 531
Flags: MW
HStem: 0 21G<17 122 17 17 245 350 245 245> 152 88<11 58 -2 81 187 286 11 163 415 464> 443 89<89 136 76 160 89 242 266 365 494 542>
VStem: -2 557<152 532>
LayerCount: 2
Back
Fore
SplineSet
542 443 m 1
 470 443 l 1
 415 240 l 1
 477 240 l 1
 464 152 l 1
 392 152 l 1
 350 0 l 1
 245 0 l 1
 286 152 l 1
 163 152 l 1
 122 0 l 1
 17 0 l 1
 58 152 l 1
 -2 152 l 1
 11 240 l 1
 81 240 l 1
 136 443 l 1
 76 443 l 1
 89 532 l 1
 160 532 l 1
 198 673 l 1
 304 673 l 1
 266 532 l 1
 389 532 l 1
 427 673 l 1
 532 673 l 1
 494 532 l 1
 555 532 l 1
 542 443 l 1
310 240 m 1
 365 443 l 1
 242 443 l 1
 187 240 l 1
 310 240 l 1
EndSplineSet
Substitution2: "'onum' Oldstyle Figures lookup 26 subtable" numbersign.osf
Substitution2: "'tnum' Tabular Numbers lookup 25 subtable" numbersign.tf
AlternateSubs2: "'aalt' Access All Alternates lookup 1 subtable" numbersign.tf numbersign.osf
EndChar
StartChar: dollar
Encoding: 36 36 2206
Width: 533
GlyphClass: 2
Flags: MW
HStem: -158 245<191 256 159 261> -9 21G<180 180> -9 96<180 261> 586 241<298 350.5>
VStem: 79 130<476 529 476 536.5> 362 132<166.5 221>
LayerCount: 2
Back
Fore
SplineSet
324 400 m 0x5c
 423 367 494 311 494 210 c 0
 494 123 440 14 278 -7 c 1
 256 -158 l 1
 159 -158 l 1x9c
 180 -9 l 1
 96 -1 33 35 -9 83 c 1
 67 154 l 1
 107 110 160 87 222 87 c 0x3c
 300 87 362 122 362 200 c 0
 362 242 334 271 252 301 c 0
 134 340 79 402 79 485 c 0
 79 588 155 664 277 680 c 1
 298 827 l 1
 395 827 l 1
 374 680 l 1
 439 671 489 642 534 599 c 1
 464 530 l 1
 415 571 372 586 329 586 c 0
 262 586 209 560 209 498 c 0
 209 454 236 431 324 400 c 0x5c
EndSplineSet
Substitution2: "'onum' Oldstyle Figures lookup 26 subtable" dollar.osf
Substitution2: "'tnum' Tabular Numbers lookup 25 subtable" dollar.tf
AlternateSubs2: "'aalt' Access All Alternates lookup 1 subtable" dollar.tf dollar.osf
EndChar
StartChar: ampersand
Encoding: 38 38 2379
Width: 770
GlyphClass: 2
Flags: MW
HStem: -15 95<261 311.5> 620 86<325 372.5>
VStem: 63 132<147 195 147 206.5> 145 121<516 559.5 516 576> 423 120<532.5 576.5>
LayerCount: 2
Back
Fore
SplineSet
355 706 m 0xe8
 469 706 543 641 543 558 c 0
 543 472 479 421 380 364 c 1
 512 218 l 1
 539 261 564 311 583 360 c 1
 688 324 l 1
 655 257 617 197 577 147 c 1
 673 44 l 1
 570 -15 l 1
 496 69 l 1
 429 12 355 -15 268 -15 c 0
 139 -15 63 63 63 165 c 0xe8
 63 248 99 308 219 378 c 1
 171 432 145 476 145 532 c 0xd8
 145 620 207 706 355 706 c 0xe8
352 620 m 0xd8
 298 620 266 585 266 534 c 0
 266 498 282 468 315 432 c 1
 384 472 423 507 423 558 c 0
 423 595 393 620 352 620 c 0xd8
282 306 m 1xe8
 207 258 195 217 195 173 c 0
 195 121 229 80 293 80 c 0
 347 80 392 101 434 136 c 1
 282 306 l 1xe8
EndSplineSet
Substitution2: "'ss03' Style Set 3 lookup 36 subtable" ampersand.ss03
Substitution2: "'aalt' Access All Alternates lookup 0 subtable" ampersand.ss03
EndChar
StartChar: quotesingle
Encoding: 39 39 2133
Width: 221
Flags: MW
HStem: 420 271<89 232 111 177>
VStem: 89 143
LayerCount: 2
Back
Fore
SplineSet
89 420 m 1
 111 691 l 1
 232 691 l 1
 177 420 l 1
 89 420 l 1
EndSplineSet
EndChar

StartChar: parenleft
Encoding: 40 40 1009
Width: 316
Flags: MW
HStem: -151 1005<156 294>
VStem: 29.47 126.6
LayerCount: 2
Fore
SplineSet
370 796 m 1
 261 663 194 546 166 346 c 0
 138 150 171 31 242 -102 c 1
 156 -151 l 1
 77 -12 4 114 38 354 c 0
 71 590 176 715 294 854 c 1
 370 796 l 1
EndSplineSet
Substitution2: "'case' Case-Sensitive Forms lookup 25 subtable" parenleft.case
Substitution2: "'dnom' Denominators lookup 14 subtable" parenleft.dnom
Substitution2: "'numr' Numerators lookup 13 subtable" parenleft.numr
Substitution2: "'sups' Superscript lookup 12 subtable" parenleftsuperior
Substitution2: "'subs' Subscript lookup 11 subtable" uni208D
AlternateSubs2: "'aalt' Access All Alternates lookup 1 subtable" uni208D parenleftsuperior parenleft.numr parenleft.dnom parenleft.case
EndChar
StartChar: parenright
Encoding: 41 41 2151
Width: 316
Flags: MW
HStem: -154 1005<46 183>
VStem: 184.06 125.97
LayerCount: 2
Back
Fore
SplineSet
183 851 m 1
 262 712 335 586 302 346 c 0
 268 110 164 -15 46 -154 c 1
 -30 -96 l 1
 79 37 146 154 174 354 c 0
 202 551 170 669 98 802 c 1
 183 851 l 1
EndSplineSet
Substitution2: "'case' Case-Sensitive Forms lookup 29 subtable" parenright.case
Substitution2: "'dnom' Denominators lookup 17 subtable" parenright.dnom
Substitution2: "'numr' Numerators lookup 16 subtable" parenright.numr
Substitution2: "'sups' Superscript lookup 15 subtable" uni207E
Substitution2: "'subs' Subscript lookup 14 subtable" uni208E
AlternateSubs2: "'aalt' Access All Alternates lookup 1 subtable" uni208E uni207E parenright.numr parenright.dnom parenright.case
EndChar
StartChar: asterisk
Encoding: 42 42 2118
Width: 436
Flags: MW
HStem: 721 20G<226 345 345 345>
VStem: 225.5 78.5
LayerCount: 2
Back
Fore
SplineSet
464 547 m 1
 315 519 l 1
 401 411 l 1
 302 343 l 1
 247 473 l 1
 159 343 l 1
 77 410 l 1
 192 519 l 1
 51 547 l 1
 98 651 l 1
 225 590 l 1
 226 741 l 1
 345 741 l 1
 304 591 l 1
 442 654 l 1
 464 547 l 1
EndSplineSet
EndChar

StartChar: plus
Encoding: 43 43 1115
Width: 508
Flags: MW
HStem: 281 101<70 202 55 216 324 457 70 310> 515 20G<237 346 346 346>
VStem: 55 416<281 382>
LayerCount: 2
Fore
SplineSet
324 382 m 1
 471 382 l 1
 457 281 l 1
 310 281 l 1
 288 128 l 1
 180 128 l 1
 202 281 l 1
 55 281 l 1
 70 382 l 1
 216 382 l 1
 237 535 l 1
 346 535 l 1
 324 382 l 1
EndSplineSet
Substitution2: "'onum' Oldstyle Figures lookup 22 subtable" plus.osf
Substitution2: "'tnum' Tabular Numbers lookup 21 subtable" plus.tf
Substitution2: "'dnom' Denominators lookup 14 subtable" plus.dnom
Substitution2: "'numr' Numerators lookup 13 subtable" plus.numr
Substitution2: "'sups' Superscript lookup 12 subtable" plussuperior
Substitution2: "'subs' Subscript lookup 11 subtable" uni208A
AlternateSubs2: "'aalt' Access All Alternates lookup 1 subtable" uni208A plussuperior plus.numr plus.dnom plus.tf plus.osf
EndChar
StartChar: comma
Encoding: 44 44 2123
Width: 242
Flags: MW
HStem: -172 319<-28 122 -28 122>
VStem: 13 160<60.5 81.5>
LayerCount: 2
Back
Fore
SplineSet
101 147 m 0
 143 147 173 116 173 75 c 0
 173 46 162 22 136 -25 c 2
 51 -172 l 1
 -28 -172 l 1
 39 1 l 1
 23 14 13 33 13 57 c 0
 13 106 52 147 101 147 c 0
EndSplineSet
EndChar

StartChar: hyphen
Encoding: 45 45 1027
Width: 397
Flags: MW
HStem: 262 102<63 347 48 362>
VStem: 48 314<262 364>
LayerCount: 2
Fore
SplineSet
63 364 m 1
 362 364 l 1
 347 262 l 1
 48 262 l 1
 63 364 l 1
EndSplineSet
Substitution2: "'case' Case-Sensitive Forms lookup 25 subtable" hyphen.case
Substitution2: "'aalt' Access All Alternates lookup 0 subtable" hyphen.case
EndChar

StartChar: period
Encoding: 46 46 990
Width: 240
Flags: MW
HStem: -15 162<76 107>
VStem: 12 160<50.5 82>
LayerCount: 2
Fore
SplineSet
100 147 m 0
 142 147 172 115 172 75 c 0
 172 26 131 -15 83 -15 c 0
 41 -15 12 18 12 58 c 0
 12 106 52 147 100 147 c 0
EndSplineSet
EndChar
StartChar: slash
Encoding: 47 47 2135
Width: 512
Flags: MW
HStem: -108 921<144 392>
VStem: 36 464
LayerCount: 2
Back
Fore
SplineSet
392 813 m 1
 500 787 l 1
 144 -108 l 1
 36 -81 l 1
 392 813 l 1
EndSplineSet
Substitution2: "'frac' Diagonal Fractions lookup 18 subtable" fraction
Substitution2: "'aalt' Access All Alternates lookup 0 subtable" fraction
EndChar
StartChar: zero
Encoding: 48 48 2017
Width: 565
Flags: MW
HStem: -15 97<227.5 291 227.5 360.5> 588 97<293.5 357.5>
VStem: 47 127<164 226 164 326> 411 126<445.5 508>
LayerCount: 2
Back
Fore
SplineSet
336 685 m 0
 468 685 537 596 537 436 c 0
 537 255 473 -15 248 -15 c 0
 116 -15 47 75 47 235 c 0
 47 417 111 685 336 685 c 0
331 588 m 0
 256 588 210 520 184 331 c 0
 177 282 174 242 174 210 c 0
 174 118 201 82 254 82 c 0
 328 82 374 148 401 340 c 0
 408 390 411 429 411 462 c 0
 411 554 384 588 331 588 c 0
EndSplineSet
Substitution2: "'zero' Slashed Zero lookup 32 subtable" zero.zero
Substitution2: "'onum' Oldstyle Figures lookup 26 subtable" zero.osf
Substitution2: "'tnum' Tabular Numbers lookup 25 subtable" zero.tf
Substitution2: "'frac' Diagonal Fractions lookup 19 subtable" zero.numr
Substitution2: "'dnom' Denominators lookup 17 subtable" zero.dnom
Substitution2: "'numr' Numerators lookup 16 subtable" zero.numr
Substitution2: "'sups' Superscript lookup 15 subtable" uni2070
Substitution2: "'subs' Subscript lookup 14 subtable" uni2080
AlternateSubs2: "'aalt' Access All Alternates lookup 1 subtable" uni2080 uni2070 zero.numr zero.dnom zero.tf zero.osf zero.zero
EndChar

StartChar: one
Encoding: 49 49 880
Width: 442
Flags: MW
HStem: 0 21G<187 312 187 187>
VStem: 59 347<539 673>
LayerCount: 2
Fore
SplineSet
312 0 m 1
 187 0 l 1
 263 535 l 1
 102 444 l 1
 59 539 l 1
 294 673 l 1
 406 673 l 1
 312 0 l 1
EndSplineSet
Substitution2: "'onum' Oldstyle Figures lookup 22 subtable" one.osf
Substitution2: "'tnum' Tabular Numbers lookup 21 subtable" one.tf
Substitution2: "'frac' Diagonal Fractions lookup 16 subtable" one.numr
Substitution2: "'dnom' Denominators lookup 14 subtable" one.dnom
Substitution2: "'numr' Numerators lookup 13 subtable" one.numr
Substitution2: "'sups' Superscript lookup 12 subtable" onesuperior
Substitution2: "'subs' Subscript lookup 11 subtable" oneinferior
AlternateSubs2: "'aalt' Access All Alternates lookup 1 subtable" oneinferior onesuperior one.numr one.dnom one.tf one.osf
EndChar

StartChar: two
Encoding: 50 50 881
Width: 499
Flags: MW
HStem: 0 100 584 101<239.5 291>
VStem: 350 131<463.5 529>
LayerCount: 2
Fore
SplineSet
283 685 m 0
 410 685 481 612 481 513 c 0
 481 414 432 325 154 99 c 1
 437 101 l 1
 409 0 l 1
 -4 0 l 1
 8 96 l 1
 304 362 350 417 350 502 c 0
 350 556 316 584 266 584 c 0
 213 584 174 561 128 511 c 1
 54 580 l 1
 119 649 196 685 283 685 c 0
EndSplineSet
Substitution2: "'onum' Oldstyle Figures lookup 22 subtable" two.osf
Substitution2: "'tnum' Tabular Numbers lookup 21 subtable" two.tf
Substitution2: "'frac' Diagonal Fractions lookup 16 subtable" two.numr
Substitution2: "'dnom' Denominators lookup 14 subtable" two.dnom
Substitution2: "'numr' Numerators lookup 13 subtable" two.numr
Substitution2: "'sups' Superscript lookup 12 subtable" twosuperior
Substitution2: "'subs' Subscript lookup 11 subtable" twoinferior
AlternateSubs2: "'aalt' Access All Alternates lookup 1 subtable" twoinferior twosuperior two.numr two.dnom two.tf two.osf
EndChar

StartChar: three
Encoding: 51 51 882
Width: 502
Flags: MW
HStem: -15 100<158.5 224.5 158.5 282.5> 306 91<190 218 163 225> 587 98<244 292>
VStem: 323 128<184 256.5> 349 126<493.5 538>
LayerCount: 2
Fore
SplineSet
284 685 m 0xe8
 410 685 475 615 475 526 c 0xe8
 475 461 436 384 322 355 c 1
 394 349 451 303 451 217 c 0
 451 126 382 -15 183 -15 c 0
 91 -15 22 21 -21 84 c 1
 59 149 l 1
 93 103 133 85 184 85 c 0
 265 85 323 141 323 227 c 0xf0
 323 286 284 306 218 306 c 2
 163 306 l 1
 190 397 l 1
 225 397 l 2
 315 397 349 468 349 515 c 0
 349 561 318 587 266 587 c 0
 213 587 170 567 123 527 c 1
 65 602 l 1
 133 658 204 685 284 685 c 0xe8
EndSplineSet
Substitution2: "'onum' Oldstyle Figures lookup 22 subtable" three.osf
Substitution2: "'tnum' Tabular Numbers lookup 21 subtable" three.tf
Substitution2: "'frac' Diagonal Fractions lookup 16 subtable" three.numr
Substitution2: "'dnom' Denominators lookup 14 subtable" three.dnom
Substitution2: "'numr' Numerators lookup 13 subtable" three.numr
Substitution2: "'sups' Superscript lookup 12 subtable" threesuperior
Substitution2: "'subs' Subscript lookup 11 subtable" threeinferior
AlternateSubs2: "'aalt' Access All Alternates lookup 1 subtable" threeinferior threesuperior three.numr three.dnom three.tf three.osf
EndChar

StartChar: four
Encoding: 52 52 883
Width: 542
Flags: MW
HStem: 0 21G<278 401 278 278> 154 98<167 299 436 502>
VStem: 17 499<154 252>
LayerCount: 2
Fore
SplineSet
502 154 m 1
 423 154 l 1
 401 0 l 1
 278 0 l 1
 299 154 l 1
 17 154 l 1
 29 242 l 1
 280 686 l 1
 386 645 l 1
 167 252 l 1
 314 252 l 1
 351 421 l 1
 460 421 l 1
 436 252 l 1
 516 252 l 1
 502 154 l 1
EndSplineSet
Substitution2: "'onum' Oldstyle Figures lookup 22 subtable" four.osf
Substitution2: "'tnum' Tabular Numbers lookup 21 subtable" four.tf
Substitution2: "'frac' Diagonal Fractions lookup 16 subtable" four.numr
Substitution2: "'dnom' Denominators lookup 14 subtable" four.dnom
Substitution2: "'numr' Numerators lookup 13 subtable" four.numr
Substitution2: "'sups' Superscript lookup 12 subtable" foursuperior
Substitution2: "'subs' Subscript lookup 11 subtable" fourinferior
AlternateSubs2: "'aalt' Access All Alternates lookup 1 subtable" fourinferior foursuperior four.numr four.dnom four.tf four.osf
EndChar

StartChar: five
Encoding: 53 53 884
Width: 512
Flags: MW
HStem: -15 99<170 248.5 170 295> 344 92<236.5 356> 578 95<228 477 228 228>
VStem: 342 129<212 285>
LayerCount: 2
Fore
SplineSet
477 578 m 1
 228 578 l 1
 203 412 l 1
 239 429 274 436 306 436 c 0
 406 436 471 371 471 252 c 0
 471 143 396 -15 194 -15 c 0
 97 -15 37 25 -7 80 c 1
 72 147 l 1
 104 105 143 84 197 84 c 0
 300 84 342 175 342 249 c 0
 342 321 305 344 253 344 c 0
 220 344 195 337 162 320 c 1
 70 321 l 1
 120 673 l 1
 505 673 l 1
 477 578 l 1
EndSplineSet
Substitution2: "'onum' Oldstyle Figures lookup 22 subtable" five.osf
Substitution2: "'tnum' Tabular Numbers lookup 21 subtable" five.tf
Substitution2: "'frac' Diagonal Fractions lookup 16 subtable" five.numr
Substitution2: "'dnom' Denominators lookup 14 subtable" five.dnom
Substitution2: "'numr' Numerators lookup 13 subtable" five.numr
Substitution2: "'sups' Superscript lookup 12 subtable" fivesuperior
Substitution2: "'subs' Subscript lookup 11 subtable" fiveinferior
AlternateSubs2: "'aalt' Access All Alternates lookup 1 subtable" fiveinferior fivesuperior five.numr five.dnom five.tf five.osf
EndChar
StartChar: six
Encoding: 54 54 2023
Width: 541
Flags: MW
HStem: -15 95<225.5 304.5 225.5 342.5> 355 93<318.5 330.5> 590 95<323.5 383>
VStem: 43 127<158 210.5 158 238> 381 126<237 302>
LayerCount: 2
Back
Fore
SplineSet
345 448 m 0
 438 448 507 386 507 269 c 0
 507 159 435 -15 250 -15 c 0
 104 -15 43 79 43 224 c 0
 43 252 45 283 50 316 c 0
 82 538 203 685 371 685 c 0
 431 685 477 667 511 640 c 1
 455 563 l 1
 430 581 400 590 366 590 c 0
 281 590 216 509 189 378 c 1
 239 428 292 448 345 448 c 0
255 80 m 0
 354 80 381 204 381 270 c 0
 381 334 353 355 308 355 c 0
 260 355 213 326 176 282 c 1
 172 250 170 222 170 199 c 0
 170 117 196 80 255 80 c 0
EndSplineSet
Substitution2: "'onum' Oldstyle Figures lookup 26 subtable" six.osf
Substitution2: "'tnum' Tabular Numbers lookup 25 subtable" six.tf
Substitution2: "'frac' Diagonal Fractions lookup 19 subtable" six.numr
Substitution2: "'dnom' Denominators lookup 17 subtable" six.dnom
Substitution2: "'numr' Numerators lookup 16 subtable" six.numr
Substitution2: "'sups' Superscript lookup 15 subtable" uni2076
Substitution2: "'subs' Subscript lookup 14 subtable" uni2086
AlternateSubs2: "'aalt' Access All Alternates lookup 1 subtable" uni2086 uni2076 six.numr six.dnom six.tf six.osf
EndChar

StartChar: seven
Encoding: 55 55 886
Width: 449
Flags: MW
HStem: -13 21G<145 145> 574 99<74 339 60 484>
VStem: 32 452
LayerCount: 2
Fore
SplineSet
472 583 m 1
 145 -13 l 1
 32 25 l 1
 339 574 l 1
 60 574 l 1
 74 673 l 1
 484 673 l 1
 472 583 l 1
EndSplineSet
Substitution2: "'onum' Oldstyle Figures lookup 22 subtable" seven.osf
Substitution2: "'tnum' Tabular Numbers lookup 21 subtable" seven.tf
Substitution2: "'frac' Diagonal Fractions lookup 16 subtable" seven.numr
Substitution2: "'dnom' Denominators lookup 14 subtable" seven.dnom
Substitution2: "'numr' Numerators lookup 13 subtable" seven.numr
Substitution2: "'sups' Superscript lookup 12 subtable" sevensuperior
Substitution2: "'subs' Subscript lookup 11 subtable" seveninferior
AlternateSubs2: "'aalt' Access All Alternates lookup 1 subtable" seveninferior sevensuperior seven.numr seven.dnom seven.tf seven.osf
EndChar
StartChar: eight
Encoding: 56 56 2025
Width: 559
Flags: MW
HStem: -15 95<219.5 293 219.5 323> 595 90<286.5 357>
VStem: 22 129<141 191 141 199.5> 95 122<468 514 468 547.5> 386 127<170.5 229.5> 411 123<504 545>
LayerCount: 2
Back
Fore
SplineSet
402 359 m 1xd8
 475 322 513 270 513 202 c 0
 513 81 404 -15 242 -15 c 0
 103 -15 22 61 22 164 c 0xe8
 22 235 58 305 176 352 c 1
 120 386 95 434 95 490 c 0
 95 605 196 685 333 685 c 0
 443 685 534 629 534 527 c 0xd4
 534 459 496 404 402 359 c 1xd8
330 595 m 0xd4
 243 595 217 535 217 493 c 0
 217 443 248 421 302 399 c 2
 319 393 l 1
 399 439 411 485 411 523 c 0
 411 567 384 595 330 595 c 0xd4
251 80 m 0xe8
 335 80 386 135 386 206 c 0
 386 253 356 277 281 306 c 2
 254 315 l 1
 170 275 151 214 151 168 c 0
 151 114 188 80 251 80 c 0xe8
EndSplineSet
Substitution2: "'onum' Oldstyle Figures lookup 26 subtable" eight.osf
Substitution2: "'tnum' Tabular Numbers lookup 25 subtable" eight.tf
Substitution2: "'frac' Diagonal Fractions lookup 19 subtable" eight.numr
Substitution2: "'dnom' Denominators lookup 17 subtable" eight.dnom
Substitution2: "'numr' Numerators lookup 16 subtable" eight.numr
Substitution2: "'sups' Superscript lookup 15 subtable" uni2078
Substitution2: "'subs' Subscript lookup 14 subtable" uni2088
AlternateSubs2: "'aalt' Access All Alternates lookup 1 subtable" uni2088 uni2078 eight.numr eight.dnom eight.tf eight.osf
EndChar
StartChar: nine
Encoding: 57 57 2026
Width: 536
Flags: MW
HStem: 238 93<238.5 253> 590 95<261.5 339.5>
VStem: 59 126<391 456.5 391 481> 396 128<470.5 520.5>
LayerCount: 2
Back
Fore
SplineSet
315 685 m 0
 452 685 524 599 524 470 c 0
 524 280 453 53 73 -26 c 1
 55 67 l 1
 226 111 330 176 368 305 c 1
 332 265 284 238 222 238 c 0
 129 238 59 309 59 421 c 0
 59 541 133 685 315 685 c 0
261 331 m 0
 309 331 353 359 389 405 c 1
 394 436 396 459 396 482 c 0
 396 559 367 590 312 590 c 0
 211 590 185 490 185 423 c 0
 185 359 216 331 261 331 c 0
EndSplineSet
Substitution2: "'onum' Oldstyle Figures lookup 26 subtable" nine.osf
Substitution2: "'tnum' Tabular Numbers lookup 25 subtable" nine.tf
Substitution2: "'frac' Diagonal Fractions lookup 19 subtable" nine.numr
Substitution2: "'dnom' Denominators lookup 17 subtable" nine.dnom
Substitution2: "'numr' Numerators lookup 16 subtable" nine.numr
Substitution2: "'sups' Superscript lookup 15 subtable" uni2079
Substitution2: "'subs' Subscript lookup 14 subtable" uni2089
AlternateSubs2: "'aalt' Access All Alternates lookup 1 subtable" uni2089 uni2079 nine.numr nine.dnom nine.tf nine.osf
EndChar
StartChar: colon
Encoding: 58 58 2122
Width: 240
Flags: MW
HStem: -15 21G<62 108> -15 162<75.5 108> 341 162<125.5 158>
VStem: 12 160<50.5 82.5> 62 160<406 438>
LayerCount: 2
Back
Fore
SplineSet
150 503 m 0xa8
 192 503 222 472 222 430 c 0
 222 382 183 341 133 341 c 0
 91 341 62 372 62 414 c 0
 62 462 101 503 150 503 c 0xa8
100 147 m 0x70
 142 147 172 116 172 75 c 0
 172 26 133 -15 83 -15 c 0
 41 -15 12 17 12 58 c 0
 12 107 51 147 100 147 c 0x70
EndSplineSet
EndChar

StartChar: semicolon
Encoding: 59 59 995
Width: 245
Flags: MW
HStem: 1 21G<41 41> 341 162<130 161>
VStem: 15 159<60.5 81.5> 66 160<406 438>
LayerCount: 2
Fore
SplineSet
154 503 m 0xd0
 196 503 226 471 226 430 c 0
 226 382 185 341 137 341 c 0
 95 341 66 373 66 414 c 0
 66 462 106 503 154 503 c 0xd0
102 147 m 0xe0
 145 147 174 116 174 75 c 0
 174 46 164 22 138 -25 c 1
 52 -172 l 1
 -26 -172 l 1
 41 1 l 1
 24 14 15 33 15 57 c 0
 15 106 54 147 102 147 c 0xe0
EndSplineSet
EndChar

StartChar: less
Encoding: 60 60 1103
Width: 504
Flags: MW
HStem: 545 20G<462 462>
VStem: 42 454<273 464>
LayerCount: 2
Fore
SplineSet
496 464 m 1
 155 332 l 1
 454 198 l 1
 398 101 l 1
 42 273 l 1
 59 392 l 1
 462 565 l 1
 496 464 l 1
EndSplineSet
Substitution2: "'onum' Oldstyle Figures lookup 22 subtable" less.osf
Substitution2: "'tnum' Tabular Numbers lookup 21 subtable" less.tf
AlternateSubs2: "'aalt' Access All Alternates lookup 1 subtable" less.tf less.osf
EndChar

StartChar: equal
Encoding: 61 61 1095
Width: 502
Flags: MW
HStem: 179 102<56 437 41 451> 382 101<84 465 70 480>
VStem: 41 439<179 483>
LayerCount: 2
Fore
SplineSet
84 483 m 1
 480 483 l 1
 465 382 l 1
 70 382 l 1
 84 483 l 1
56 281 m 1
 451 281 l 1
 437 179 l 1
 41 179 l 1
 56 281 l 1
EndSplineSet
Substitution2: "'onum' Oldstyle Figures lookup 22 subtable" equal.osf
Substitution2: "'tnum' Tabular Numbers lookup 21 subtable" equal.tf
Substitution2: "'dnom' Denominators lookup 14 subtable" equal.dnom
Substitution2: "'numr' Numerators lookup 13 subtable" equal.numr
Substitution2: "'sups' Superscript lookup 12 subtable" equalsuperior
AlternateSubs2: "'aalt' Access All Alternates lookup 1 subtable" equalsuperior equal.numr equal.dnom equal.tf equal.osf
EndChar

StartChar: greater
Encoding: 62 62 1098
Width: 502
Flags: MW
HStem: 545 20G<123 123>
VStem: 28 451<203 392>
LayerCount: 2
Fore
SplineSet
479 392 m 1
 463 273 l 1
 60 101 l 1
 28 203 l 1
 367 336 l 1
 69 470 l 1
 123 565 l 1
 479 392 l 1
EndSplineSet
Substitution2: "'onum' Oldstyle Figures lookup 22 subtable" greater.osf
Substitution2: "'tnum' Tabular Numbers lookup 21 subtable" greater.tf
AlternateSubs2: "'aalt' Access All Alternates lookup 1 subtable" greater.tf greater.osf
EndChar
StartChar: question
Encoding: 63 63 2130
Width: 463
Flags: MW
HStem: -15 21G<160.5 206.5> -15 162<173.5 206.5> 604 102<256 301.5>
VStem: 110 160<50.5 82.5> 128 118<265.5 363.5> 350 133<488 567>
LayerCount: 2
Back
Fore
SplineSet
298 706 m 0xac
 423 706 483 639 483 561 c 0
 483 364 247 401 246 269 c 0
 246 262 247 254 249 244 c 1
 137 226 l 1
 131 242 128 262 128 276 c 0
 128 451 350 427 350 549 c 0
 350 585 324 604 279 604 c 0
 233 604 186 581 141 536 c 1
 68 604 l 1
 132 671 207 706 298 706 c 0xac
198 147 m 0x74
 241 147 270 116 270 75 c 0
 270 26 231 -15 182 -15 c 0
 139 -15 110 17 110 58 c 0
 110 107 149 147 198 147 c 0x74
EndSplineSet
EndChar

StartChar: at
Encoding: 64 64 1220
Width: 1012
Flags: MW
HStem: -218 98<378.5 509.5> 6 86<695 764.5 695 809> 9 85<446 481.5> 413 85<490 556> 609 97<412 656>
VStem: 50 120<98 272.5 98 292> 291 116<145.5 222 145.5 249.5> 595 78 845 117<310 440.5>
LayerCount: 2
Fore
SplineSet
571 706 m 0xdf80
 824 706 962 550 962 354 c 0
 962 219 899 6 719 6 c 0xdf80
 641 6 600 59 595 106 c 1
 566 54 518 9 445 9 c 0xbf80
 343 9 291 80 291 184 c 0
 291 315 356 498 552 498 c 0
 606 498 661 484 711 454 c 1
 673 165 l 2
 668 123 674 92 716 92 c 0
 813 92 845 259 845 361 c 0
 845 520 748 609 564 609 c 0
 260 609 170 360 170 185 c 0
 170 11 279 -120 478 -120 c 0
 546 -120 616 -104 670 -85 c 1
 692 -178 l 1
 624 -202 550 -218 469 -218 c 0
 216 -218 50 -51 50 184 c 0
 50 400 191 706 571 706 c 0xdf80
465 94 m 0xbf80
 521 94 552 143 564 166 c 1
 598 402 l 1
 582 410 567 413 545 413 c 0
 435 413 407 272 407 172 c 0
 407 119 427 94 465 94 c 0xbf80
EndSplineSet
EndChar

StartChar: A
Encoding: 65 65 1
Width: 574
GlyphClass: 2
Flags: MW
HStem: 0 21G<-42 94 -42 -42 405 405 405 542> 160 100<198 373 198 385 158 373> 595 96<332 332> 671 20G<267 428 428 428>
VStem: -42 584<0 0>
AnchorPoint: "Anchor-11" 0 0 basechar 0
AnchorPoint: "Anchor-10" 118 529 basechar 0
AnchorPoint: "Anchor-9" 348 691 basechar 0
AnchorPoint: "Anchor-8" 493 0 basechar 0
LayerCount: 2
Fore
SplineSet
385 160 m 1xd8
 158 160 l 1
 94 0 l 1
 -42 0 l 1
 267 691 l 1
 428 691 l 1
 542 0 l 1
 405 0 l 1
 385 160 l 1xd8
373 260 m 1
 332 595 l 1xe8
 198 260 l 1
 373 260 l 1
EndSplineSet
Substitution2: "Single Substitution lookup 30 subtable" ordfeminine
Substitution2: "'c2sc' Capitals to Small Capitals lookup 23 subtable" a.sc
AlternateSubs2: "'aalt' Access All Alternates lookup 1 subtable" ordfeminine a.sc
Position2: "'cpsp' Capital Spacing lookup 0 subtable" dx=5 dy=0 dh=10 dv=0
EndChar

StartChar: D
Encoding: 68 68 20
Width: 641
GlyphClass: 2
Flags: MW
HStem: 0 99<188 231> 592 99<257 257 257 307 307 318>
VStem: 481 134<356 499>
AnchorPoint: "Anchor-11" 0 0 basechar 0
AnchorPoint: "Anchor-10" 0 0 basechar 0
AnchorPoint: "Anchor-9" 355 691 basechar 0
AnchorPoint: "Anchor-8" 0 0 basechar 0
LayerCount: 2
Fore
SplineSet
307 691 m 2
 467 691 615 644 615 429 c 0
 615 206 516 0 231 0 c 2
 43 0 l 1
 140 691 l 1
 307 691 l 2
257 592 m 1
 188 99 l 1
 250 99 l 2
 430 99 481 282 481 430 c 0
 481 568 406 592 318 592 c 2
 257 592 l 1
EndSplineSet
Substitution2: "'c2sc' Capitals to Small Capitals lookup 23 subtable" d.sc
Substitution2: "'aalt' Access All Alternates lookup 0 subtable" d.sc
Position2: "'cpsp' Capital Spacing lookup 0 subtable" dx=5 dy=0 dh=10 dv=0
EndChar

StartChar: E
Encoding: 69 69 24
Width: 523
GlyphClass: 2
Flags: MW
HStem: 0 99<188 443> 302 98<229 435 216 448> 593 98<257 508 257 257>
VStem: 43 493
AnchorPoint: "Anchor-11" 243 0 basechar 0
AnchorPoint: "Anchor-10" 15 534 basechar 0
AnchorPoint: "Anchor-9" 341 691 basechar 0
AnchorPoint: "Anchor-8" 413 0 basechar 0
LayerCount: 2
Fore
SplineSet
508 593 m 1
 257 593 l 1
 229 400 l 1
 448 400 l 1
 435 302 l 1
 216 302 l 1
 188 99 l 1
 457 99 l 1
 443 0 l 1
 43 0 l 1
 140 691 l 1
 536 691 l 1
 508 593 l 1
EndSplineSet
Substitution2: "'c2sc' Capitals to Small Capitals lookup 23 subtable" e.sc
Substitution2: "'aalt' Access All Alternates lookup 0 subtable" e.sc
Position2: "'cpsp' Capital Spacing lookup 0 subtable" dx=5 dy=0 dh=10 dv=0
EndChar

StartChar: F
Encoding: 70 70 34
Width: 482
GlyphClass: 2
Flags: MW
HStem: 0 21G<43 174 43 43> 288 98<228 425 214 438> 593 98<257 499 257 257>
VStem: 43 483
LayerCount: 2
Fore
SplineSet
499 593 m 1
 257 593 l 1
 228 386 l 1
 438 386 l 1
 425 288 l 1
 214 288 l 1
 174 0 l 1
 43 0 l 1
 140 691 l 1
 526 691 l 1
 499 593 l 1
EndSplineSet
Substitution2: "'c2sc' Capitals to Small Capitals lookup 23 subtable" f.sc
Substitution2: "'aalt' Access All Alternates lookup 0 subtable" f.sc
Position2: "'cpsp' Capital Spacing lookup 0 subtable" dx=5 dy=0 dh=10 dv=0
EndChar
StartChar: H
Encoding: 72 72 107
Width: 664
GlyphClass: 2
Flags: MW
HStem: 0 21G<43 174 43 43 416 547 416 416> 309 105<231 459 217 474> 671 20G<140 271 271 271 513 644 644 644>
VStem: 43 601
AnchorPoint: "Anchor-14" 344 346 basechar 0
AnchorPoint: "Anchor-13" 0 0 basechar 0
AnchorPoint: "Anchor-12" 392 691 basechar 0
AnchorPoint: "Anchor-11" 0 0 basechar 0
AnchorPoint: "Anchor-10" 300 0 basechar 0
LayerCount: 2
Back
Fore
SplineSet
416 0 m 1
 459 309 l 1
 217 309 l 1
 174 0 l 1
 43 0 l 1
 140 691 l 1
 271 691 l 1
 231 414 l 1
 474 414 l 1
 513 691 l 1
 644 691 l 1
 547 0 l 1
 416 0 l 1
EndSplineSet
Substitution2: "'c2sc' Capitals to Small Capitals lookup 27 subtable" h.sc
Substitution2: "'aalt' Access All Alternates lookup 0 subtable" h.sc
Position2: "'cpsp' Capital Spacing lookup 0 subtable" dx=5 dy=0 dh=10 dv=0
EndChar
StartChar: I
Encoding: 73 73 115
Width: 291
GlyphClass: 2
Flags: MW
HStem: 0 21G<43 174 43 43> 671 20G<140 271 271 271>
VStem: 43 228
AnchorPoint: "Anchor-14" 0 0 basechar 0
AnchorPoint: "Anchor-13" 0 0 basechar 0
AnchorPoint: "Anchor-12" 205 691 basechar 0
AnchorPoint: "Anchor-11" 154 0 basechar 0
AnchorPoint: "Anchor-10" 108 0 basechar 0
LayerCount: 2
Back
Fore
SplineSet
271 691 m 1
 174 0 l 1
 43 0 l 1
 140 691 l 1
 271 691 l 1
EndSplineSet
Substitution2: "'c2sc' Capitals to Small Capitals lookup 27 subtable" i.sc
Substitution2: "'aalt' Access All Alternates lookup 0 subtable" i.sc
Position2: "'cpsp' Capital Spacing lookup 0 subtable" dx=5 dy=0 dh=10 dv=0
EndChar

StartChar: K
Encoding: 75 75 56
Width: 605
GlyphClass: 2
Flags: MW
HStem: 0 21G<43 174 43 43 423 423 423 575> 671 20G<140 271 271 271 510 654 654 654>
VStem: 43 611
AnchorPoint: "Anchor-11" 279 0 basechar 0
AnchorPoint: "Anchor-10" 0 0 basechar 0
AnchorPoint: "Anchor-9" 385 691 basechar 0
AnchorPoint: "Anchor-8" 0 0 basechar 0
LayerCount: 2
Fore
SplineSet
174 0 m 1
 43 0 l 1
 140 691 l 1
 271 691 l 1
 174 0 l 1
371 369 m 1
 575 0 l 1
 423 0 l 1
 231 369 l 1
 510 691 l 1
 654 691 l 1
 371 369 l 1
EndSplineSet
Substitution2: "'c2sc' Capitals to Small Capitals lookup 23 subtable" k.sc
Substitution2: "'aalt' Access All Alternates lookup 0 subtable" k.sc
Position2: "'cpsp' Capital Spacing lookup 0 subtable" dx=5 dy=0 dh=10 dv=0
EndChar
StartChar: L
Encoding: 76 76 141
Width: 499
GlyphClass: 2
Flags: MW
HStem: 0 108<189 432> 671 20G<140 271 271 271>
VStem: 43 418<0 108>
AnchorPoint: "Anchor-14" 408 395 basechar 0
AnchorPoint: "Anchor-13" 294 691 basechar 0
AnchorPoint: "Anchor-12" 205 691 basechar 0
AnchorPoint: "Anchor-11" 0 0 basechar 0
AnchorPoint: "Anchor-10" 238 0 basechar 0
LayerCount: 2
Back
Fore
SplineSet
271 691 m 1
 189 108 l 1
 461 108 l 1
 432 0 l 1
 43 0 l 1
 140 691 l 1
 271 691 l 1
EndSplineSet
Substitution2: "'c2sc' Capitals to Small Capitals lookup 27 subtable" l.sc
Substitution2: "'aalt' Access All Alternates lookup 0 subtable" l.sc
Position2: "'cpsp' Capital Spacing lookup 0 subtable" dx=5 dy=0 dh=10 dv=0
EndChar
StartChar: M
Encoding: 77 77 152
Width: 786
GlyphClass: 2
Flags: MW
HStem: 0 21G<9 136 9 9 563 691 563 563> 578 113<617 617> 671 20G<161 322 322 322 559 734 734 734>
VStem: 9 725<0 691>
AnchorPoint: "Anchor-14" 0 0 basechar 0
AnchorPoint: "Anchor-13" 0 0 basechar 0
AnchorPoint: "Anchor-12" 441 691 basechar 0
AnchorPoint: "Anchor-11" 0 0 basechar 0
AnchorPoint: "Anchor-10" 0 0 basechar 0
LayerCount: 2
Back
Fore
SplineSet
734 691 m 1xb0
 691 0 l 1
 563 0 l 1
 586 292 l 2
 594 393 604 494 617 578 c 1
 423 75 l 1
 298 75 l 1
 235 576 l 1xd0
 228 480 212 381 192 283 c 2
 136 0 l 1
 9 0 l 1
 161 691 l 1
 322 691 l 1
 378 202 l 1
 559 691 l 1
 734 691 l 1xb0
EndSplineSet
Substitution2: "'c2sc' Capitals to Small Capitals lookup 27 subtable" m.sc
Substitution2: "'aalt' Access All Alternates lookup 0 subtable" m.sc
Position2: "'cpsp' Capital Spacing lookup 0 subtable" dx=5 dy=0 dh=10 dv=0
EndChar

StartChar: Q
Encoding: 81 81 85
Width: 681
GlyphClass: 2
Flags: MW
HStem: -15 55 -15 101<273 368.5> 605 101<309.5 434.5>
VStem: 49 135<193 318 193 356.5> 522 136<375.5 499.5>
LayerCount: 2
Fore
SplineSet
658 424 m 0x78
 658 284 608 108 461 40 c 1
 545 37 598 11 642 -24 c 1xb8
 549 -128 l 1
 489 -57 431 -15 306 -15 c 0
 145 -15 49 86 49 266 c 0
 49 447 135 706 401 706 c 0
 562 706 658 605 658 424 c 0x78
184 252 m 0
 184 134 233 86 313 86 c 0
 482 86 522 308 522 443 c 0
 522 556 476 605 393 605 c 0
 226 605 184 384 184 252 c 0
EndSplineSet
Substitution2: "'c2sc' Capitals to Small Capitals lookup 23 subtable" q.sc
Substitution2: "'aalt' Access All Alternates lookup 0 subtable" q.sc
Position2: "'cpsp' Capital Spacing lookup 0 subtable" dx=5 dy=0 dh=10 dv=0
EndChar
StartChar: T
Encoding: 84 84 238
Width: 522
GlyphClass: 2
Flags: MW
HStem: 0 21G<158 289 158 158> 586 105<71 240 56 578 371 549 371 371>
VStem: 56 522<586 691>
AnchorPoint: "Anchor-14" 272 346 basechar 0
AnchorPoint: "Anchor-13" 0 0 basechar 0
AnchorPoint: "Anchor-12" 320 691 basechar 0
AnchorPoint: "Anchor-11" 0 0 basechar 0
AnchorPoint: "Anchor-10" 224 0 basechar 0
LayerCount: 2
Back
Fore
SplineSet
578 691 m 1
 549 586 l 1
 371 586 l 1
 289 0 l 1
 158 0 l 1
 240 586 l 1
 56 586 l 1
 71 691 l 1
 578 691 l 1
EndSplineSet
Substitution2: "'c2sc' Capitals to Small Capitals lookup 27 subtable" t.sc
Substitution2: "'aalt' Access All Alternates lookup 0 subtable" t.sc
Position2: "'cpsp' Capital Spacing lookup 0 subtable" dx=5 dy=0 dh=10 dv=0
EndChar

StartChar: V
Encoding: 86 86 112
Width: 556
GlyphClass: 2
Flags: MW
HStem: 0 21G<166 321 166 166> 0 117<259 259 259 321 166 259> 671 20G<55 192 192 192 485 621 621 621>
VStem: 55 566<691 691>
LayerCount: 2
Fore
SplineSet
321 0 m 1xb0
 166 0 l 1
 55 691 l 1
 192 691 l 1
 259 117 l 1x70
 485 691 l 1
 621 691 l 1
 321 0 l 1xb0
EndSplineSet
Substitution2: "'c2sc' Capitals to Small Capitals lookup 23 subtable" v.sc
Substitution2: "'aalt' Access All Alternates lookup 0 subtable" v.sc
Position2: "'cpsp' Capital Spacing lookup 0 subtable" dx=5 dy=0 dh=10 dv=0
EndChar
StartChar: X
Encoding: 88 88 292
Width: 554
GlyphClass: 2
Flags: MW
HStem: 0 21G<-38 105 -38 -38 376 517 376 376> 671 20G<76 217 217 217 453 595 595 595>
VStem: -38 633
LayerCount: 2
Back
Fore
SplineSet
369 373 m 1
 368 371 l 1
 517 0 l 1
 376 0 l 1
 281 286 l 1
 105 0 l 1
 -38 0 l 1
 210 368 l 1
 212 369 l 1
 76 691 l 1
 217 691 l 1
 298 449 l 1
 453 691 l 1
 595 691 l 1
 369 373 l 1
EndSplineSet
Substitution2: "'c2sc' Capitals to Small Capitals lookup 27 subtable" x.sc
Substitution2: "'aalt' Access All Alternates lookup 0 subtable" x.sc
Position2: "'cpsp' Capital Spacing lookup 0 subtable" dx=5 dy=0 dh=10 dv=0
EndChar

StartChar: Y
Encoding: 89 89 119
Width: 566
GlyphClass: 2
Flags: MW
HStem: 0 21G<180 312 180 180> 671 20G<58 197 197 197 487 628 628 628>
VStem: 58 570<691 691>
AnchorPoint: "Anchor-11" 0 0 basechar 0
AnchorPoint: "Anchor-10" -56 534 basechar 0
AnchorPoint: "Anchor-9" 345 691 basechar 0
AnchorPoint: "Anchor-8" 0 0 basechar 0
LayerCount: 2
Fore
SplineSet
349 262 m 1
 312 0 l 1
 180 0 l 1
 217 261 l 1
 58 691 l 1
 197 691 l 1
 297 370 l 1
 487 691 l 1
 628 691 l 1
 349 262 l 1
EndSplineSet
Substitution2: "'c2sc' Capitals to Small Capitals lookup 23 subtable" y.sc
Substitution2: "'aalt' Access All Alternates lookup 0 subtable" y.sc
Position2: "'cpsp' Capital Spacing lookup 0 subtable" dx=5 dy=0 dh=10 dv=0
EndChar
StartChar: Z
Encoding: 90 90 306
Width: 526
GlyphClass: 2
Flags: MW
HStem: 0 108<154 441> 586 105<115 385 101 549>
VStem: -15 564
AnchorPoint: "Anchor-14" 0 0 basechar 0
AnchorPoint: "Anchor-13" 0 0 basechar 0
AnchorPoint: "Anchor-12" 330 691 basechar 0
AnchorPoint: "Anchor-11" 0 0 basechar 0
AnchorPoint: "Anchor-10" 213 0 basechar 0
LayerCount: 2
Back
Fore
SplineSet
-15 0 m 1
 -1 101 l 1
 385 586 l 1
 101 586 l 1
 115 691 l 1
 549 691 l 1
 535 589 l 1
 154 108 l 1
 470 108 l 1
 441 0 l 1
 -15 0 l 1
EndSplineSet
Substitution2: "'c2sc' Capitals to Small Capitals lookup 27 subtable" z.sc
Substitution2: "'aalt' Access All Alternates lookup 0 subtable" z.sc
Position2: "'cpsp' Capital Spacing lookup 0 subtable" dx=5 dy=0 dh=10 dv=0
EndChar
StartChar: bracketleft
Encoding: 91 91 2148
Width: 315
Flags: MW
HStem: -120 99<125 227> 720 100<229 345 229 229>
VStem: -8 367
LayerCount: 2
Back
Fore
SplineSet
359 820 m 1
 345 720 l 1
 229 720 l 1
 125 -21 l 1
 241 -21 l 1
 227 -120 l 1
 -8 -120 l 1
 124 820 l 1
 359 820 l 1
EndSplineSet
Substitution2: "'case' Case-Sensitive Forms lookup 29 subtable" bracketleft.case
Substitution2: "'aalt' Access All Alternates lookup 0 subtable" bracketleft.case
EndChar

StartChar: backslash
Encoding: 92 92 981
Width: 512
Flags: MW
HStem: -108 919<265 270>
VStem: 160 216
LayerCount: 2
Fore
SplineSet
376 -84 m 1
 265 -108 l 1
 160 787 l 1
 270 811 l 1
 376 -84 l 1
EndSplineSet
EndChar
StartChar: bracketright
Encoding: 93 93 2149
Width: 315
Flags: MW
HStem: -120 99<-6 110 -6 216 -20 110> 721 99<113 215 99 348>
VStem: -20 368
LayerCount: 2
Back
Fore
SplineSet
348 820 m 1
 216 -120 l 1
 -20 -120 l 1
 -6 -21 l 1
 110 -21 l 1
 215 721 l 1
 99 721 l 1
 113 820 l 1
 348 820 l 1
EndSplineSet
Substitution2: "'case' Case-Sensitive Forms lookup 29 subtable" bracketright.case
Substitution2: "'aalt' Access All Alternates lookup 0 subtable" bracketright.case
EndChar
StartChar: asciicircum
Encoding: 94 94 2389
Width: 542
GlyphClass: 2
Flags: MW
HStem: 527 315<63 409 63 409 295 551 295 425>
VStem: 63 488<527 527>
LayerCount: 2
Back
Fore
SplineSet
409 842 m 1
 551 527 l 1
 425 527 l 1
 339 741 l 1
 193 527 l 1
 63 527 l 1
 295 842 l 1
 409 842 l 1
EndSplineSet
EndChar

StartChar: underscore
Encoding: 95 95 997
Width: 512
Flags: MW
HStem: -158 103<-33 441 -47 455>
VStem: -47 502<-158 -55>
LayerCount: 2
Fore
SplineSet
-33 -55 m 1
 455 -55 l 1
 441 -158 l 1
 -47 -158 l 1
 -33 -55 l 1
EndSplineSet
EndChar
StartChar: grave
Encoding: 96 96 2524
Width: 315
Flags: MW
HStem: 675 20G<347 347>
VStem: 93 254<695 720>
LayerCount: 2
Back
Fore
SplineSet
158 820 m 1
 347 695 l 1
 303 630 l 1
 93 720 l 1
 158 820 l 1
EndSplineSet
Substitution2: "'case' Case-Sensitive Forms lookup 29 subtable" grave.case
Substitution2: "'smcp' Lowercase to Small Capitals lookup 28 subtable" grave.sc
Substitution2: "'c2sc' Capitals to Small Capitals lookup 27 subtable" grave.sc
AlternateSubs2: "'aalt' Access All Alternates lookup 1 subtable" grave.sc grave.case
EndChar

StartChar: b
Encoding: 98 98 146
Width: 580
GlyphClass: 2
Flags: MW
HStem: -15 96<242 314.5 242 360.5> 448 96<354 357.5> 735 20G<270 270>
VStem: 413 130<285 380.5>
LayerCount: 2
Fore
SplineSet
232 481 m 1
 275 521 327 544 381 544 c 0
 485 544 543 469 543 337 c 0
 543 186 475 -15 246 -15 c 0
 176 -15 116 -2 42 25 c 1
 143 741 l 1
 270 755 l 1
 232 481 l 1
335 448 m 0
 289 448 252 418 218 380 c 1
 179 95 l 1
 205 86 226 81 258 81 c 0
 371 81 413 231 413 339 c 0
 413 422 380 448 335 448 c 0
EndSplineSet
Substitution2: "'smcp' Lowercase to Small Capitals lookup 24 subtable" b.sc
Substitution2: "'aalt' Access All Alternates lookup 0 subtable" b.sc
EndChar
StartChar: c
Encoding: 99 99 380
Width: 471
GlyphClass: 2
Flags: MW
HStem: -15 104<236 283.5> 443 101<263 341.5>
VStem: 38 133<160 250.5 160 277>
AnchorPoint: "Anchor-14" 0 0 basechar 0
AnchorPoint: "Anchor-13" 0 0 basechar 0
AnchorPoint: "Anchor-12" 323 529 basechar 0
AnchorPoint: "Anchor-11" 0 0 basechar 0
AnchorPoint: "Anchor-10" 241 0 basechar 0
LayerCount: 2
Back
Fore
SplineSet
322 544 m 0
 385 544 440 524 484 481 c 1
 420 405 l 1
 389 433 360 443 323 443 c 0
 203 443 171 300 171 201 c 0
 171 119 207 89 265 89 c 0
 306 89 337 103 378 128 c 1
 426 43 l 1
 373 6 316 -15 251 -15 c 0
 116 -15 38 70 38 208 c 0
 38 346 116 544 322 544 c 0
EndSplineSet
Substitution2: "'smcp' Lowercase to Small Capitals lookup 28 subtable" c.sc
Substitution2: "'aalt' Access All Alternates lookup 0 subtable" c.sc
EndChar

StartChar: d
Encoding: 100 100 153
Width: 592
GlyphClass: 2
Flags: MW
HStem: -15 97<225 245> 0 21G<367 479 367 367> 448 96<263 323 202.5 339> 721 20G<583 583> 735 20G<458 458>
VStem: 43 132<152.5 241 152.5 267.5>
LayerCount: 2
Fore
SplineSet
583 741 m 1xb4
 479 0 l 1
 367 0 l 1x6c
 368 81 l 1
 333 26 280 -15 210 -15 c 0
 99 -15 43 67 43 197 c 0
 43 338 109 544 296 544 c 0
 350 544 392 520 420 486 c 1
 458 755 l 1xac
 583 741 l 1xb4
319 448 m 0
 207 448 175 289 175 193 c 0
 175 112 203 82 247 82 c 0xac
 301 82 340 128 379 190 c 1
 408 398 l 1
 386 430 359 448 319 448 c 0
EndSplineSet
Substitution2: "'smcp' Lowercase to Small Capitals lookup 24 subtable" d.sc
Substitution2: "'aalt' Access All Alternates lookup 0 subtable" d.sc
EndChar

StartChar: f
Encoding: 102 102 167
Width: 339
GlyphClass: 2
Flags: MW
HStem: -218 21G<-39 -39> 437 92<42 115 29 127 253 352> 658 97<319 356.5>
VStem: -73 546 131.5 125.5
LayerCount: 2
Fore
SplineSet
345 658 m 0xf0
 293 658 268 633 261 582 c 2
 253 529 l 1
 378 529 l 1
 352 437 l 1
 240 437 l 1
 185 45 l 2
 162 -117 84 -170 -39 -218 c 1
 -73 -124 l 1
 2 -94 44 -63 59 42 c 2
 115 437 l 1
 29 437 l 1
 42 529 l 1
 127 529 l 1
 136 590 l 1xe8
 149 686 218 755 336 755 c 0
 394 755 436 738 473 714 c 1
 428 634 l 1
 398 653 368 658 345 658 c 0xf0
EndSplineSet
Substitution2: "'smcp' Lowercase to Small Capitals lookup 24 subtable" f.sc
Substitution2: "'aalt' Access All Alternates lookup 0 subtable" f.sc
EndChar
StartChar: h
Encoding: 104 104 468
Width: 574
GlyphClass: 2
Flags: MW
HStem: 0 21G<39 165 39 39 339 465 339 339> 439 105<361 364> 733 20G<270 270>
VStem: 390 131.38
AnchorPoint: "Anchor-14" 286 265 basechar 0
AnchorPoint: "Anchor-13" 0 0 basechar 0
AnchorPoint: "Anchor-12" 353 741 basechar 0
AnchorPoint: "Anchor-11" 0 0 basechar 0
AnchorPoint: "Anchor-10" 252 0 basechar 0
LayerCount: 2
Back
Fore
SplineSet
396 544 m 0
 485 544 533 482 519 380 c 2
 465 0 l 1
 339 0 l 1
 390 359 l 2
 398 422 379 439 349 439 c 0
 295 439 246 378 207 303 c 1
 165 0 l 1
 39 0 l 1
 143 740 l 1
 270 753 l 1
 225 436 l 1
 266 500 326 544 396 544 c 0
EndSplineSet
Substitution2: "'smcp' Lowercase to Small Capitals lookup 28 subtable" h.sc
Substitution2: "'aalt' Access All Alternates lookup 0 subtable" h.sc
EndChar

StartChar: i
Encoding: 105 105 176
Width: 279
GlyphClass: 2
Flags: MW
HStem: 0 21G<39 166 39 39> 509 20G<113 240 240 240> 642 155<188 218>
VStem: 124 158
AnchorPoint: "Anchor-11" 0 0 basechar 0
AnchorPoint: "Anchor-10" 0 0 basechar 0
AnchorPoint: "Anchor-9" 176 529 basechar 0
AnchorPoint: "Anchor-8" 162 0 basechar 0
LayerCount: 2
Fore
SplineSet
211 797 m 0
 260 797 288 761 282 715 c 0
 276 673 241 642 195 642 c 0
 147 642 118 678 124 723 c 0
 130 766 165 797 211 797 c 0
166 0 m 1
 39 0 l 1
 113 529 l 1
 240 529 l 1
 166 0 l 1
EndSplineSet
Substitution2: "'smcp' Lowercase to Small Capitals lookup 24 subtable" i.sc
Substitution2: "'locl' Localized Forms in Latin lookup 10 subtable" i.loclTRK
Substitution2: "'locl' Localized Forms in Latin lookup 8 subtable" i.loclTRK
Substitution2: "'locl' Localized Forms in Latin lookup 6 subtable" i.loclTRK
Substitution2: "'locl' Localized Forms in Latin lookup 3 subtable" i.loclTRK
Substitution2: "'locl' Localized Forms in Latin lookup 2 subtable" i.loclTRK
AlternateSubs2: "'aalt' Access All Alternates lookup 1 subtable" i.loclTRK i.sc
EndChar

StartChar: j
Encoding: 106 106 188
Width: 274
GlyphClass: 2
Flags: MW
HStem: -218 21G<-57 -57> 509 20G<109 235 235 235> 642 155<184 214>
VStem: 120 158
AnchorPoint: "Anchor-11" 0 0 basechar 0
AnchorPoint: "Anchor-10" 0 0 basechar 0
AnchorPoint: "Anchor-9" 172 529 basechar 0
AnchorPoint: "Anchor-8" 0 0 basechar 0
LayerCount: 2
Fore
SplineSet
207 797 m 0
 256 797 284 761 278 715 c 0
 272 673 237 642 191 642 c 0
 143 642 114 678 120 723 c 0
 126 766 161 797 207 797 c 0
167 45 m 2
 144 -117 66 -170 -57 -218 c 1
 -91 -124 l 1
 -17 -94 26 -63 41 42 c 2
 109 529 l 1
 235 529 l 1
 167 45 l 2
EndSplineSet
Substitution2: "'smcp' Lowercase to Small Capitals lookup 24 subtable" j.sc
Substitution2: "'aalt' Access All Alternates lookup 0 subtable" j.sc
EndChar
StartChar: k
Encoding: 107 107 505
Width: 557
GlyphClass: 2
Flags: MW
HStem: 0 21G<39 165 39 39 357 496 357 357> 451 93<372.5 376> 735 20G<270 270>
VStem: 411 130<379 417>
AnchorPoint: "Anchor-14" 0 0 basechar 0
AnchorPoint: "Anchor-13" 0 0 basechar 0
AnchorPoint: "Anchor-12" 364 741 basechar 0
AnchorPoint: "Anchor-11" 0 0 basechar 0
AnchorPoint: "Anchor-10" 256 0 basechar 0
LayerCount: 2
Back
Fore
SplineSet
270 755 m 1
 228 449 l 1
 280 515 340 544 405 544 c 0
 487 544 541 493 541 420 c 0
 541 338 492 272 389 235 c 1
 496 0 l 1
 357 0 l 1
 247 257 l 1
 367 293 411 337 411 401 c 0
 411 433 392 451 360 451 c 0
 312 451 254 412 210 323 c 1
 165 0 l 1
 39 0 l 1
 143 741 l 1
 270 755 l 1
EndSplineSet
Substitution2: "'smcp' Lowercase to Small Capitals lookup 28 subtable" k.sc
Substitution2: "'aalt' Access All Alternates lookup 0 subtable" k.sc
EndChar

StartChar: l
Encoding: 108 108 194
Width: 288
GlyphClass: 2
Flags: MW
HStem: -15 103<120.5 204> 735 20G<265 265>
VStem: 49.33 127.67
AnchorPoint: "Anchor-11" 127 0 basechar 0
AnchorPoint: "Anchor-10" 0 0 basechar 0
AnchorPoint: "Anchor-9" 201 741 basechar 0
AnchorPoint: "Anchor-8" 0 0 basechar 0
LayerCount: 2
Fore
SplineSet
177 126 m 2
 174 98 180 88 199 88 c 0
 209 88 220 91 230 95 c 1
 249 4 l 1
 221 -9 190 -15 161 -15 c 0
 80 -15 38 34 52 130 c 2
 138 741 l 1
 265 755 l 1
 177 126 l 2
EndSplineSet
Substitution2: "'smcp' Lowercase to Small Capitals lookup 24 subtable" l.sc
Substitution2: "'aalt' Access All Alternates lookup 0 subtable" l.sc
EndChar

StartChar: o
Encoding: 111 111 208
Width: 576
GlyphClass: 2
Flags: MW
HStem: -15 97<229.5 318.5 229.5 360> 447 97<257.5 346.5>
VStem: 39 130<158 243 158 278> 406 131<287 332>
AnchorPoint: "Anchor-11" 0 0 basechar 0
AnchorPoint: "Anchor-10" 0 0 basechar 0
AnchorPoint: "Anchor-9" 322 529 basechar 0
AnchorPoint: "Anchor-8" 0 0 basechar 0
LayerCount: 2
Fore
SplineSet
324 544 m 0
 461 544 537 458 537 322 c 0
 537 184 468 -15 252 -15 c 0
 115 -15 39 70 39 208 c 0
 39 348 109 544 324 544 c 0
317 447 m 0
 198 447 169 288 169 198 c 0
 169 118 200 82 259 82 c 0
 378 82 406 242 406 332 c 1
 407 412 376 447 317 447 c 0
EndSplineSet
Substitution2: "Single Substitution lookup 30 subtable" ordmasculine
Substitution2: "'smcp' Lowercase to Small Capitals lookup 24 subtable" o.sc
AlternateSubs2: "'aalt' Access All Alternates lookup 1 subtable" ordmasculine o.sc
EndChar

StartChar: q
Encoding: 113 113 222
Width: 574
GlyphClass: 2
Flags: MW
HStem: -220 21G<307 307> -15 97<221.5 237.5> 450 94<271 344.5>
VStem: 36 132<152 247 152 268>
LayerCount: 2
Fore
SplineSet
331 544 m 0
 398 544 464 530 535 493 c 1
 437 -206 l 1
 307 -220 l 1
 348 55 l 1
 322 21 269 -15 206 -15 c 0
 95 -15 36 67 36 192 c 0
 36 344 115 544 331 544 c 0
330 450 m 0
 212 450 168 302 168 192 c 0
 168 112 198 82 245 82 c 0
 291 82 327 116 362 166 c 1
 403 436 l 1
 378 446 359 450 330 450 c 0
EndSplineSet
Substitution2: "'smcp' Lowercase to Small Capitals lookup 24 subtable" q.sc
Substitution2: "'aalt' Access All Alternates lookup 0 subtable" q.sc
EndChar
StartChar: r
Encoding: 114 114 603
Width: 387
GlyphClass: 2
Flags: MW
HStem: 0 21G<39 165 39 39> 418 125<341.5 350.5> 509 20G<113 222 222 222> 515 20G<423 423>
VStem: 39 384
AnchorPoint: "Anchor-14" 0 0 basechar 0
AnchorPoint: "Anchor-13" 0 0 basechar 0
AnchorPoint: "Anchor-12" 270 529 basechar 0
AnchorPoint: "Anchor-11" 0 0 basechar 0
AnchorPoint: "Anchor-10" 102 0 basechar 0
LayerCount: 2
Back
Fore
SplineSet
370 543 m 0xc8
 390 543 406 540 423 535 c 1x98
 386 412 l 1
 370 416 359 418 342 418 c 0xc8
 275 418 235 355 202 261 c 1
 165 0 l 1
 39 0 l 1
 113 529 l 1
 222 529 l 1xa8
 218 426 l 1
 256 503 313 543 370 543 c 0xc8
EndSplineSet
Substitution2: "'smcp' Lowercase to Small Capitals lookup 28 subtable" r.sc
Substitution2: "'aalt' Access All Alternates lookup 0 subtable" r.sc
EndChar
StartChar: s
Encoding: 115 115 619
Width: 468
GlyphClass: 2
Flags: MW
HStem: -15 96<171 237 171 268> 449 95<239.5 289>
VStem: 54 127<376 410.5 376 423.5> 300 128<133 170>
AnchorPoint: "Anchor-14" 0 0 basechar 0
AnchorPoint: "Anchor-13" 0 0 basechar 0
AnchorPoint: "Anchor-12" 277 529 basechar 0
AnchorPoint: "Anchor-11" 0 0 basechar 0
AnchorPoint: "Anchor-10" 198 0 basechar 0
LayerCount: 2
Back
Fore
SplineSet
267 544 m 0
 343 544 405 518 452 477 c 1
 394 406 l 1
 355 434 311 449 267 449 c 0
 212 449 181 428 181 393 c 0
 181 359 208 347 285 322 c 0
 379 292 428 246 428 163 c 0
 428 56 338 -15 198 -15 c 0
 105 -15 33 22 -10 67 c 1
 56 137 l 1
 93 104 141 81 201 81 c 0
 273 81 300 117 300 149 c 0
 300 191 276 205 192 233 c 0
 96 264 54 307 54 383 c 0
 54 464 125 544 267 544 c 0
EndSplineSet
Substitution2: "'smcp' Lowercase to Small Capitals lookup 28 subtable" s.sc
Substitution2: "'sups' Superscript lookup 15 subtable" uni02E2
AlternateSubs2: "'aalt' Access All Alternates lookup 1 subtable" uni02E2 s.sc
EndChar
StartChar: t
Encoding: 116 116 634
Width: 367
GlyphClass: 2
Flags: MW
HStem: -15 104<220 229> 437 92<41 110 28 128 248 344>
VStem: 67.93 127.03
AnchorPoint: "Anchor-14" 182 265 basechar 0
AnchorPoint: "Anchor-13" 296 767 basechar 0
AnchorPoint: "Anchor-12" 212 649 basechar 0
AnchorPoint: "Anchor-11" 0 0 basechar 0
AnchorPoint: "Anchor-10" 193 0 basechar 0
LayerCount: 2
Back
Fore
SplineSet
236 437 m 1
 197 159 l 2
 189 107 202 89 238 89 c 0
 259 89 280 95 305 109 c 1
 341 23 l 1
 299 -3 251 -15 207 -15 c 0
 102 -14 55 48 71 160 c 2
 110 437 l 1
 28 437 l 1
 41 529 l 1
 128 529 l 1
 161 649 l 1
 267 661 l 1
 248 529 l 1
 370 529 l 1
 344 437 l 1
 236 437 l 1
EndSplineSet
Substitution2: "'smcp' Lowercase to Small Capitals lookup 28 subtable" t.sc
Substitution2: "'aalt' Access All Alternates lookup 0 subtable" t.sc
EndChar

StartChar: v
Encoding: 118 118 250
Width: 496
GlyphClass: 2
Flags: MW
HStem: 0 21G<137 288 137 137> 0 103<227 227 227 288 137 227> 509 20G<38 174 174 174 397 532 532 532>
VStem: 38 494<529 529>
LayerCount: 2
Fore
SplineSet
288 0 m 1xb0
 137 0 l 1
 38 529 l 1
 174 529 l 1
 227 103 l 1x70
 397 529 l 1
 532 529 l 1
 288 0 l 1xb0
EndSplineSet
Substitution2: "'smcp' Lowercase to Small Capitals lookup 24 subtable" v.sc
Substitution2: "'aalt' Access All Alternates lookup 0 subtable" v.sc
EndChar
StartChar: x
Encoding: 120 120 698
Width: 493
GlyphClass: 2
Flags: MW
HStem: 0 21G<-40 99 -40 -40 318 459 318 318> 509 20G<52 192 192 192 372 511 511 511>
VStem: -40 551<0 529>
AnchorPoint: "Anchor-14" 0 0 basechar 0
AnchorPoint: "Anchor-13" 0 0 basechar 0
AnchorPoint: "Anchor-12" 282 529 basechar 0
AnchorPoint: "Anchor-11" 0 0 basechar 0
AnchorPoint: "Anchor-10" 209 0 basechar 0
LayerCount: 2
Back
Fore
SplineSet
511 529 m 1
 325 277 l 1
 459 0 l 1
 318 0 l 1
 237 207 l 1
 99 0 l 1
 -40 0 l 1
 173 283 l 1
 52 529 l 1
 192 529 l 1
 258 349 l 1
 372 529 l 1
 511 529 l 1
EndSplineSet
Substitution2: "'smcp' Lowercase to Small Capitals lookup 28 subtable" x.sc
Substitution2: "'sups' Superscript lookup 15 subtable" uni02E3
AlternateSubs2: "'aalt' Access All Alternates lookup 1 subtable" uni02E3 x.sc
EndChar
StartChar: y
Encoding: 121 121 699
Width: 498
GlyphClass: 2
Flags: MW
HStem: -218 21G<-9 -9> 0 21G<130 130> 509 20G<38 170 170 170 402 534 534 534>
VStem: -13 547
AnchorPoint: "Anchor-14" 0 0 basechar 0
AnchorPoint: "Anchor-13" 0 0 basechar 0
AnchorPoint: "Anchor-12" 286 529 basechar 0
AnchorPoint: "Anchor-11" 0 0 basechar 0
AnchorPoint: "Anchor-10" 196 -206 basechar 0
LayerCount: 2
Back
Fore
SplineSet
534 529 m 1
 295 -3 l 2
 240 -128 147 -206 -9 -218 c 1
 -13 -125 l 1
 93 -109 135 -74 177 2 c 1
 130 0 l 1
 38 529 l 1
 170 529 l 1
 223 88 l 1
 402 529 l 1
 534 529 l 1
EndSplineSet
Substitution2: "'smcp' Lowercase to Small Capitals lookup 28 subtable" y.sc
Substitution2: "'aalt' Access All Alternates lookup 0 subtable" y.sc
EndChar
StartChar: z
Encoding: 122 122 712
Width: 441
GlyphClass: 2
Flags: MW
HStem: 0 100<150 370> 429 100<76 282 62 452>
VStem: -20 472
AnchorPoint: "Anchor-14" 0 0 basechar 0
AnchorPoint: "Anchor-13" 0 0 basechar 0
AnchorPoint: "Anchor-12" 264 529 basechar 0
AnchorPoint: "Anchor-11" 0 0 basechar 0
AnchorPoint: "Anchor-10" 175 0 basechar 0
LayerCount: 2
Back
Fore
SplineSet
452 529 m 1
 440 437 l 1
 150 100 l 1
 396 100 l 1
 370 0 l 1
 -20 0 l 1
 -8 92 l 1
 282 429 l 1
 62 429 l 1
 76 529 l 1
 452 529 l 1
EndSplineSet
Substitution2: "'smcp' Lowercase to Small Capitals lookup 28 subtable" z.sc
Substitution2: "'aalt' Access All Alternates lookup 0 subtable" z.sc
EndChar

StartChar: braceleft
Encoding: 123 123 1005
Width: 315
Flags: MW
HStem: -138 92<206 228> 297 105<32 44> 746 92<320 351>
VStem: 44.68 119.32 76.6 119.83
LayerCount: 2
Fore
SplineSet
351 746 m 1xe8
 289 746 264 726 258 680 c 2
 228 470 l 2
 217 388 181 365 121 347 c 1
 173 333 206 310 194 225 c 2xe8
 164 15 l 2
 158 -31 175 -46 237 -46 c 1
 228 -138 l 1xf0
 87 -138 32 -85 47 22 c 2
 74 220 l 1
 83 277 72 297 16 297 c 1
 32 402 l 1
 84 402 104 428 112 484 c 2
 140 683 l 2
 155 790 203 838 361 838 c 1
 351 746 l 1xe8
EndSplineSet
Substitution2: "'case' Case-Sensitive Forms lookup 25 subtable" braceleft.case
Substitution2: "'aalt' Access All Alternates lookup 0 subtable" braceleft.case
EndChar

StartChar: bar
Encoding: 124 124 1218
Width: 380
Flags: MW
HStem: -104 913<81 324 81 324>
VStem: 81 243
LayerCount: 2
Fore
SplineSet
197 -104 m 1
 81 -104 l 1
 208 809 l 1
 324 809 l 1
 197 -104 l 1
EndSplineSet
EndChar

StartChar: braceright
Encoding: 125 125 1006
Width: 315
Flags: MW
HStem: -138 92<-12 19 -12 56> 298 105<294 307> 746 92<111 132.5>
VStem: 141.83 119.98 174 120.3
LayerCount: 2
Fore
SplineSet
-12 -46 m 1xf0
 50 -46 74 -26 81 20 c 2
 111 230 l 2
 122 312 157 335 217 353 c 1
 165 367 133 390 144 475 c 1xf0
 174 685 l 2
 181 731 164 746 101 746 c 1
 111 838 l 1xe8
 252 838 307 785 292 678 c 2
 264 480 l 2
 256 423 266 403 322 403 c 1
 307 298 l 1
 255 298 234 272 226 216 c 2
 199 17 l 2
 184 -90 135 -138 -23 -138 c 1
 -12 -46 l 1xf0
EndSplineSet
Substitution2: "'case' Case-Sensitive Forms lookup 25 subtable" braceright.case
Substitution2: "'aalt' Access All Alternates lookup 0 subtable" braceright.case
EndChar
StartChar: asciitilde
Encoding: 126 126 2247
Width: 494
GlyphClass: 2
Flags: MW
HStem: 240 98<312 355 312 362.5> 301 97<155 198>
VStem: 26 457<287 348>
LayerCount: 2
Back
Fore
SplineSet
324 240 m 0xa0
 244 240 222 301 174 301 c 0
 136 301 113 273 94 245 c 1
 26 287 l 1x60
 59 339 110 398 188 398 c 0
 265 398 287 338 337 338 c 0
 373 338 397 362 416 390 c 1
 483 348 l 1
 450 296 401 240 324 240 c 0xa0
EndSplineSet
Substitution2: "'onum' Oldstyle Figures lookup 26 subtable" asciitilde.osf
Substitution2: "'tnum' Tabular Numbers lookup 25 subtable" asciitilde.tf
AlternateSubs2: "'aalt' Access All Alternates lookup 1 subtable" asciitilde.tf asciitilde.osf
EndChar
StartChar: exclamdown
Encoding: 161 161 2127
Width: 232
Flags: MW
HStem: -204 21G<-15 121 -15 -15> 341 162<124.5 157>
VStem: 61 159<406 438>
LayerCount: 2
Back
Fore
SplineSet
149 503 m 0
 191 503 220 472 220 430 c 0
 220 382 182 341 132 341 c 0
 90 341 61 372 61 414 c 0
 61 462 100 503 149 503 c 0
168 241 m 1
 121 -204 l 1
 -15 -204 l 1
 63 241 l 1
 168 241 l 1
EndSplineSet
Substitution2: "'case' Case-Sensitive Forms lookup 29 subtable" exclamdown.case
Substitution2: "'aalt' Access All Alternates lookup 0 subtable" exclamdown.case
EndChar
StartChar: cent
Encoding: 162 162 2204
Width: 471
GlyphClass: 2
Flags: MW
HStem: -13 21G<281 281> -13 102<281 281> -7 21G<184 184> 443 245<283 341.5> 522 20G<358 358>
VStem: 38 133<160 250.5 160 269.5>
LayerCount: 2
Back
Fore
SplineSet
378 128 m 1x54
 426 43 l 1
 381 11 334 -8 281 -13 c 1x8c
 260 -158 l 1
 163 -158 l 1
 184 -7 l 1
 91 17 38 95 38 208 c 0
 38 331 100 504 262 538 c 1
 283 688 l 1
 379 688 l 1x34
 358 542 l 1
 407 535 449 515 484 481 c 1x2c
 420 405 l 1
 389 433 360 443 323 443 c 0
 203 443 171 300 171 201 c 0
 171 119 207 89 265 89 c 0
 306 89 337 103 378 128 c 1x54
EndSplineSet
Substitution2: "'onum' Oldstyle Figures lookup 26 subtable" cent.osf
Substitution2: "'tnum' Tabular Numbers lookup 25 subtable" cent.tf
AlternateSubs2: "'aalt' Access All Alternates lookup 1 subtable" cent.tf cent.osf
EndChar

StartChar: sterling
Encoding: 163 163 1067
Width: 531
Flags: MW
HStem: 0 99.5 316 72<66 121 55 131 256 438> 586 99<344.5 394.5>
VStem: -5 553
LayerCount: 2
Fore
SplineSet
367 685 m 0
 450 685 508 653 548 591 c 1
 465 536 l 1
 441 573 415 586 374 586 c 0
 315 586 278 552 270 488 c 2
 256 388 l 1
 448 388 l 1
 438 316 l 1
 246 316 l 1
 233 222 l 2
 224 162 208 127 155 99 c 1
 462 100 l 1
 434 0 l 1
 -5 0 l 1
 7 96 l 1
 83 120 98 150 108 223 c 2
 121 316 l 1
 55 316 l 1
 66 388 l 1
 131 388 l 1
 146 493 l 2
 162 607 239 685 367 685 c 0
EndSplineSet
Substitution2: "'onum' Oldstyle Figures lookup 22 subtable" sterling.osf
Substitution2: "'tnum' Tabular Numbers lookup 21 subtable" sterling.tf
AlternateSubs2: "'aalt' Access All Alternates lookup 1 subtable" sterling.tf sterling.osf
EndChar
StartChar: yen
Encoding: 165 165 2214
Width: 546
GlyphClass: 2
Flags: MW
HStem: 0 196<173 201 67 300 173 173> 124 72<67 190 57 201 328 450> 276 73<88 191 88 212 78 191 380 472>
VStem: 56 549<673 673>
LayerCount: 2
Back
Fore
SplineSet
605 673 m 1xb0
 380 349 l 1
 482 349 l 1
 472 276 l 1
 339 276 l 1
 328 196 l 1
 460 196 l 1xb0
 450 124 l 1
 317 124 l 1x70
 300 0 l 1
 173 0 l 1xb0
 190 124 l 1
 57 124 l 1x70
 67 196 l 1
 201 196 l 1
 212 276 l 1
 78 276 l 1
 88 349 l 1
 191 349 l 1
 56 673 l 1
 190 673 l 1
 291 385 l 1
 472 673 l 1
 605 673 l 1xb0
EndSplineSet
Substitution2: "'onum' Oldstyle Figures lookup 26 subtable" yen.osf
Substitution2: "'tnum' Tabular Numbers lookup 25 subtable" yen.tf
AlternateSubs2: "'aalt' Access All Alternates lookup 1 subtable" yen.tf yen.osf
EndChar
StartChar: brokenbar
Encoding: 166 166 2377
Width: 380
GlyphClass: 2
Flags: MW
HStem: -104 913<81 324 81 324>
VStem: 81 243
LayerCount: 2
Back
Fore
SplineSet
324 809 m 1
 273 443 l 1
 157 443 l 1
 208 809 l 1
 324 809 l 1
248 262 m 1
 197 -104 l 1
 81 -104 l 1
 132 262 l 1
 248 262 l 1
EndSplineSet
EndChar
StartChar: section
Encoding: 167 167 2383
Width: 534
GlyphClass: 2
Flags: MW
HStem: -78 93<184.5 244 184.5 285.5> 592 91<300 358.5>
VStem: 63 117<297 324.5 297 325.5> 120 122<513 546 513 575.5> 304 123<59.5 94> 365 116<279 306>
LayerCount: 2
Back
Fore
SplineSet
345 451 m 0xd4
 432 422 481 379 481 309 c 0xd4
 481 249 444 208 382 173 c 1
 412 148 427 118 427 78 c 0
 427 1 366 -78 205 -78 c 0
 132 -78 71 -54 28 -23 c 1
 79 55 l 1
 119 27 162 15 207 15 c 0
 281 15 304 43 304 76 c 0
 304 112 283 125 198 155 c 0
 112 182 63 224 63 296 c 0xe8
 63 355 103 399 162 432 c 1
 134 458 120 488 120 524 c 0
 120 627 212 683 335 683 c 0
 407 683 469 658 514 625 c 1
 461 552 l 1
 421 579 381 592 336 592 c 0
 264 592 242 562 242 530 c 0
 242 496 263 480 345 451 c 0xd4
250 240 m 0xe4
 275 231 297 222 316 213 c 1
 351 241 365 267 365 291 c 0
 365 321 346 344 282 368 c 0
 261 376 242 384 225 392 c 1
 190 362 180 336 180 313 c 0
 180 281 198 260 250 240 c 0xe4
EndSplineSet
Substitution2: "'onum' Oldstyle Figures lookup 26 subtable" section.osf
Substitution2: "'tnum' Tabular Numbers lookup 25 subtable" section.tf
AlternateSubs2: "'aalt' Access All Alternates lookup 1 subtable" section.tf section.osf
EndChar

StartChar: dieresis
Encoding: 168 168 1257
Width: 416
Flags: MW
HStem: 647 138<149.5 174.5 368.5 393>
VStem: 93 137 312 137
AnchorPoint: "Anchor-12" 270 711 basemark 0
LayerCount: 2
Fore
SplineSet
168 785 m 0
 209 785 236 752 230 712 c 0
 225 675 193 647 156 647 c 0
 115 647 88 680 93 720 c 0
 98 757 131 785 168 785 c 0
387 785 m 0
 428 785 455 752 449 712 c 0
 444 675 412 647 374 647 c 0
 334 647 307 680 312 720 c 0
 317 757 350 785 387 785 c 0
EndSplineSet
Substitution2: "'case' Case-Sensitive Forms lookup 25 subtable" dieresis.case
Substitution2: "'smcp' Lowercase to Small Capitals lookup 24 subtable" dieresis.sc
Substitution2: "'c2sc' Capitals to Small Capitals lookup 23 subtable" dieresis.sc
AlternateSubs2: "'aalt' Access All Alternates lookup 1 subtable" dieresis.sc dieresis.case
EndChar
StartChar: ordfeminine
Encoding: 170 170 1056
Width: 492
GlyphClass: 2
Flags: MW
HStem: 0 102<16 419 30 405> 267 85<154.5 249.5> 460 67<283 289 289 322> 605 86<273.5 293>
VStem: 71 120<380.5 410.5 380.5 418.5> 317.5 109.5 335 115<571.5 579.5>
LayerCount: 2
Back
Fore
SplineSet
296 691 m 0xfa
 403 691 450 651 450 576 c 0
 450 567 449 556 448 545 c 2xfa
 427 393 l 2
 423 370 424 355 449 346 c 1
 416 269 l 1xfc
 370 273 340 289 326 326 c 1
 290 283 242 267 194 267 c 0
 115 267 71 318 71 384 c 0
 71 453 117 527 283 527 c 2
 331 527 l 1
 333 541 l 2
 334 552 335 558 335 563 c 0
 335 596 315 605 271 605 c 0
 243 605 201 597 157 583 c 1
 138 662 l 1
 193 682 251 691 296 691 c 0xfa
322 460 m 1xfc
 289 460 l 2
 214 460 191 428 191 393 c 0
 191 368 205 352 233 352 c 0
 266 352 292 368 313 394 c 1
 322 460 l 1xfc
16 0 m 1
 30 102 l 1
 419 102 l 1
 405 0 l 1
 16 0 l 1
EndSplineSet
EndChar

StartChar: guillemotleft
Encoding: 171 171 1036
Width: 596
Flags: MW
HStem: 25 522<192 259 259 445>
VStem: 40 546<244 494>
LayerCount: 2
Fore
SplineSet
332 494 m 1
 173 286 l 1
 274 77 l 1
 192 25 l 1
 40 244 l 1
 51 327 l 1
 259 547 l 1
 332 494 l 1
586 494 m 1
 426 286 l 1
 527 77 l 1
 445 25 l 1
 294 244 l 1
 304 327 l 1
 512 547 l 1
 586 494 l 1
EndSplineSet
Substitution2: "'case' Case-Sensitive Forms lookup 25 subtable" guillemotleft.case
Substitution2: "'aalt' Access All Alternates lookup 0 subtable" guillemotleft.case
EndChar

StartChar: logicalnot
Encoding: 172 172 1105
Width: 509
Flags: MW
HStem: 275 102<69 350 55 471>
VStem: 55 416<275 377>
LayerCount: 2
Fore
SplineSet
436 126 m 1
 329 126 l 1
 350 275 l 1
 55 275 l 1
 69 377 l 1
 471 377 l 1
 436 126 l 1
EndSplineSet
Substitution2: "'onum' Oldstyle Figures lookup 22 subtable" logicalnot.osf
Substitution2: "'tnum' Tabular Numbers lookup 21 subtable" logicalnot.tf
AlternateSubs2: "'aalt' Access All Alternates lookup 1 subtable" logicalnot.tf logicalnot.osf
EndChar

StartChar: softhyphen
Encoding: 173 173 1028
Width: 397
Flags: MW
HStem: 262 102<63 347 48 362>
VStem: 48 314<262 364>
LayerCount: 2
Fore
SplineSet
63 364 m 1
 362 364 l 1
 347 262 l 1
 48 262 l 1
 63 364 l 1
EndSplineSet
Substitution2: "'case' Case-Sensitive Forms lookup 25 subtable" softhyphen.case
Substitution2: "'aalt' Access All Alternates lookup 0 subtable" softhyphen.case
EndChar
StartChar: uni00AD
Encoding: 173 173 2169
Width: 397
Flags: MW
HStem: 262 102<48 362 63 347>
VStem: 48 314<262 364>
LayerCount: 2
Back
Fore
SplineSet
48 262 m 1
 63 364 l 1
 362 364 l 1
 347 262 l 1
 48 262 l 1
EndSplineSet
Substitution2: "'case' Case-Sensitive Forms lookup 29 subtable" uni00AD.case
Substitution2: "'aalt' Access All Alternates lookup 0 subtable" uni00AD.case
EndChar
StartChar: macron
Encoding: 175 175 2526
Width: 345
Flags: MW
HStem: 661 91<97 372 85 384>
VStem: 85 299<661 752>
LayerCount: 2
Back
Fore
SplineSet
372 661 m 1
 85 661 l 1
 97 752 l 1
 384 752 l 1
 372 661 l 1
EndSplineSet
Substitution2: "'case' Case-Sensitive Forms lookup 29 subtable" macron.case
Substitution2: "'smcp' Lowercase to Small Capitals lookup 28 subtable" macron.sc
Substitution2: "'c2sc' Capitals to Small Capitals lookup 27 subtable" macron.sc
AlternateSubs2: "'aalt' Access All Alternates lookup 1 subtable" macron.sc macron.case
EndChar

StartChar: twosuperior
Encoding: 178 178 972
Width: 392
Flags: MW
HStem: 321 76 672 77<188 221>
VStem: 250 102<620 620>
LayerCount: 2
Fore
SplineSet
219 749 m 0
 316 749 362 689 352 620 c 0
 343 559 304 512 153 396 c 1
 330 398 l 1
 309 321 l 1
 28 321 l 1
 37 394 l 1
 201 531 243 569 250 620 c 0
 255 653 237 672 205 672 c 0
 171 672 147 657 118 628 c 1
 62 677 l 1
 103 722 157 749 219 749 c 0
EndSplineSet
EndChar
StartChar: uni00B3
Encoding: 179 179 2111
Width: 392
Flags: MW
HStem: 310 76<145 181.5 145 214> 506 36 506 68<161 177 140 183> 675 74<193.5 224>
VStem: 240 99 255 99
LayerCount: 2
Back
Fore
SplineSet
221 749 m 0xb4
 317 749 362 698 354 637 c 0xd4
 346 588 312 556 251 542 c 1xd8
 306 538 349 504 339 435 c 0
 329 367 266 310 162 310 c 0
 96 310 47 336 18 376 c 1
 80 425 l 1
 103 397 130 386 160 386 c 0
 203 386 234 410 240 451 c 0
 246 492 223 506 177 506 c 2
 140 506 l 1
 161 574 l 1xb8
 183 574 l 2
 222 574 250 595 255 631 c 0
 260 658 241 675 207 675 c 0
 173 675 144 661 116 637 c 1
 71 694 l 1
 116 731 166 749 221 749 c 0xb4
EndSplineSet
EndChar

StartChar: acute
Encoding: 180 180 1252
Width: 314
Flags: MW
HStem: 630 190
VStem: 89 261<695 720>
LayerCount: 2
Fore
SplineSet
350 720 m 1
 116 630 l 1
 89 695 l 1
 312 820 l 1
 350 720 l 1
EndSplineSet
Substitution2: "'case' Case-Sensitive Forms lookup 25 subtable" acute.case
Substitution2: "'smcp' Lowercase to Small Capitals lookup 24 subtable" acute.sc
Substitution2: "'c2sc' Capitals to Small Capitals lookup 23 subtable" acute.sc
Substitution2: "'locl' Localized Forms in Latin lookup 7 subtable" acute.loclPLK
AlternateSubs2: "'aalt' Access All Alternates lookup 1 subtable" acute.loclPLK acute.sc acute.case
EndChar
StartChar: uni00B5
Encoding: 181 181 2264
Width: 577
GlyphClass: 2
Flags: MW
HStem: -217 21G<8 8> -13 21G<365 365> -10 96<220.5 248.5> -2 21G<482 482> 509 20G<113 239 239 239 405 531 531 531>
VStem: 354 120.87
LayerCount: 2
Back
Fore
SplineSet
482 179 m 2x9c
 471 99 474 41 482 -2 c 1x9c
 365 -13 l 1xcc
 354 19 354 43 354 76 c 1
 322 28 277 -10 220 -10 c 0
 188 -10 162 0 147 18 c 1
 153 -8 154 -41 145 -107 c 2
 131 -204 l 1
 8 -217 l 1
 113 529 l 1
 239 529 l 1
 187 157 l 2
 179 102 204 86 237 86 c 0
 277 86 317 106 355 166 c 1xac
 405 529 l 1
 531 529 l 1
 482 179 l 2x9c
EndSplineSet
EndChar
StartChar: paragraph
Encoding: 182 182 2380
Width: 755
GlyphClass: 2
Flags: MW
HStem: -219 21G<238 238 450 450> 597 94<463 563 463 463>
VStem: 104.34 584.66
LayerCount: 2
Back
Fore
SplineSet
391 691 m 1
 689 691 l 1
 563 -204 l 1
 450 -219 l 1
 563 597 l 1
 463 597 l 1
 351 -204 l 1
 238 -219 l 1
 306 272 l 1
 152 278 90 367 107 485 c 0
 125 616 229 693 390 691 c 1
 389 689 l 1
 391 691 l 1
EndSplineSet
EndChar
StartChar: periodcentered
Encoding: 183 183 2120
Width: 239
Flags: MW
HStem: 228 162<108.5 141.5>
VStem: 45 160<293 325>
LayerCount: 2
Back
Fore
SplineSet
133 390 m 0
 176 390 205 359 205 317 c 0
 205 269 166 228 117 228 c 0
 75 228 45 259 45 301 c 0
 45 349 84 390 133 390 c 0
EndSplineSet
EndChar

StartChar: cedilla
Encoding: 184 184 1255
Width: 292
Flags: MW
HStem: -253 75<44 70.5 44 113> -106 122<58 60>
VStem: 112 95
LayerCount: 2
Fore
SplineSet
121 -52 m 1
 181 -58 207 -92 207 -134 c 0
 207 -188 167 -253 59 -253 c 0
 16 -253 -19 -239 -40 -223 c 1
 -2 -162 l 1
 15 -172 32 -178 56 -178 c 0
 85 -178 111 -166 112 -141 c 0
 113 -115 92 -106 28 -106 c 1
 58 16 l 1
 132 16 l 1
 121 -52 l 1
EndSplineSet
Substitution2: "'case' Case-Sensitive Forms lookup 25 subtable" cedilla.case
Substitution2: "'smcp' Lowercase to Small Capitals lookup 24 subtable" cedilla.sc
Substitution2: "'c2sc' Capitals to Small Capitals lookup 23 subtable" cedilla.sc
AlternateSubs2: "'aalt' Access All Alternates lookup 1 subtable" cedilla.sc cedilla.case
EndChar

StartChar: onesuperior
Encoding: 185 185 971
Width: 392
Flags: MW
HStem: 720 20G<224 312 312 312>
VStem: 66 246<654 740>
LayerCount: 2
Fore
SplineSet
253 321 m 1
 157 321 l 1
 201 644 l 1
 101 587 l 1
 66 654 l 1
 224 740 l 1
 312 740 l 1
 253 321 l 1
EndSplineSet
EndChar
StartChar: uni00B9
Encoding: 185 185 2109
Width: 392
Flags: MW
HStem: 321 419<224 253 157 312>
VStem: 66 246<654 740>
LayerCount: 2
Back
Fore
SplineSet
312 740 m 1
 253 321 l 1
 157 321 l 1
 201 644 l 1
 101 587 l 1
 66 654 l 1
 224 740 l 1
 312 740 l 1
EndSplineSet
EndChar
StartChar: ordmasculine
Encoding: 186 186 1057
Width: 492
GlyphClass: 2
Flags: MW
HStem: 0 102<11 422 26 407> 267 87<235 299 235 341> 604 87<255 318.5>
VStem: 72 120<405.5 467.5 405.5 492.5> 361 120<494.5 554>
LayerCount: 2
Back
Fore
SplineSet
300 691 m 0
 413 691 481 628 481 518 c 0
 481 414 428 267 254 267 c 0
 140 267 72 331 72 440 c 0
 72 545 125 691 300 691 c 0
298 604 m 0
 212 604 192 502 192 433 c 0
 192 378 214 354 256 354 c 0
 342 354 361 462 361 527 c 0
 361 581 339 604 298 604 c 0
11 0 m 1
 26 102 l 1
 422 102 l 1
 407 0 l 1
 11 0 l 1
EndSplineSet
EndChar

StartChar: guillemotright
Encoding: 187 187 1037
Width: 591
Flags: MW
HStem: 25 522<89 156 156 336>
VStem: 16 540<77 327>
LayerCount: 2
Fore
SplineSet
308 327 m 1
 298 244 l 1
 89 25 l 1
 16 77 l 1
 175 286 l 1
 74 494 l 1
 156 547 l 1
 308 327 l 1
556 327 m 1
 545 244 l 1
 336 25 l 1
 264 77 l 1
 423 286 l 1
 322 494 l 1
 404 547 l 1
 556 327 l 1
EndSplineSet
Substitution2: "'case' Case-Sensitive Forms lookup 25 subtable" guillemotright.case
Substitution2: "'aalt' Access All Alternates lookup 0 subtable" guillemotright.case
EndChar

StartChar: onequarter
Encoding: 188 188 928
Width: 928
Flags: MW
HStem: 0 164<717 741 654 810 717 717> 90 74<654 729 833 871> 671 20G<217 305 305 305> 735 20G<696 696>
VStem: 59 823<164 605>
LayerCount: 2
Fore
SplineSet
767 717 m 1xb8
 253 -82 l 1
 180 -44 l 1
 696 755 l 1
 767 717 l 1xb8
150 272 m 1
 194 595 l 1
 94 538 l 1
 59 605 l 1
 217 691 l 1
 305 691 l 1
 246 272 l 1
 150 272 l 1
871 90 m 1x78
 823 90 l 1x78
 810 0 l 1
 717 0 l 1xb8
 729 90 l 1
 542 90 l 1
 551 157 l 1x78
 711 428 l 1
 791 397 l 1
 654 164 l 1
 741 164 l 1
 768 263 l 1
 847 263 l 1
 833 164 l 1
 882 164 l 1xb8
 871 90 l 1x78
EndSplineSet
EndChar

StartChar: onehalf
Encoding: 189 189 925
Width: 928
Flags: MW
HStem: 0 76 351 77<716 749> 671 20G<217 305 305 305> 735 20G<696 696>
VStem: 778 102<299 299>
LayerCount: 2
Fore
SplineSet
767 717 m 1
 253 -82 l 1
 180 -44 l 1
 696 755 l 1
 767 717 l 1
246 272 m 1
 150 272 l 1
 194 595 l 1
 94 538 l 1
 59 605 l 1
 217 691 l 1
 305 691 l 1
 246 272 l 1
747 428 m 0
 844 428 890 368 880 299 c 0
 871 238 832 191 681 75 c 1
 858 77 l 1
 837 0 l 1
 556 0 l 1
 565 73 l 1
 729 210 771 248 778 299 c 0
 783 332 765 351 733 351 c 0
 699 351 675 336 646 307 c 1
 590 356 l 1
 631 401 685 428 747 428 c 0
EndSplineSet
EndChar
StartChar: threequarters
Encoding: 190 190 2067
Width: 928
Flags: MW
HStem: 0 164<717 741 654 810 717 717> 90 74<654 729 833 871> 261 76<138 174.5 138 207> 457 68<154 170 133 176> 626 74<186.5 217> 735 20G<696 696>
VStem: 233 99 248 99
LayerCount: 2
Back
Fore
SplineSet
696 755 m 1xbe
 767 717 l 1
 253 -82 l 1
 180 -44 l 1
 696 755 l 1xbe
332 386 m 0
 322 318 259 261 155 261 c 0
 89 261 40 287 11 327 c 1
 73 376 l 1
 96 348 123 337 153 337 c 0
 196 337 227 361 233 402 c 0
 239 443 216 457 170 457 c 2
 133 457 l 1
 154 525 l 1xbe
 176 525 l 2
 215 525 243 546 248 582 c 0
 253 609 234 626 200 626 c 0
 166 626 137 612 109 588 c 1
 64 645 l 1
 109 682 159 700 214 700 c 0
 310 700 355 649 347 588 c 0xbd
 339 539 305 507 244 493 c 1
 299 489 342 455 332 386 c 0
882 164 m 1
 871 90 l 1
 823 90 l 1x7e
 810 0 l 1
 717 0 l 1xbe
 729 90 l 1
 542 90 l 1
 551 157 l 1x7e
 711 428 l 1
 791 397 l 1
 654 164 l 1
 741 164 l 1
 768 263 l 1
 847 263 l 1
 833 164 l 1
 882 164 l 1
EndSplineSet
EndChar

StartChar: questiondown
Encoding: 191 191 992
Width: 463
Flags: MW
HStem: -220 103<155.5 201 155.5 204.5> 346 162<251 283>
VStem: -25 133<-80.5 -2 -80.5 23.5> 187 160<410.5 442.5> 211 118<151.5 217.5 123 220.5>
LayerCount: 2
Fore
SplineSet
259 346 m 0xf0
 217 346 187 378 187 418 c 0
 187 467 227 508 275 508 c 0
 318 508 347 475 347 434 c 0
 347 387 307 346 259 346 c 0xf0
159 -220 m 0
 35 -220 -25 -153 -25 -75 c 0
 -25 122 211 86 211 217 c 0
 211 224 211 233 208 242 c 1
 321 260 l 1
 326 245 329 224 329 211 c 0xe8
 329 35 108 59 108 -63 c 0
 108 -98 133 -117 178 -117 c 0
 224 -117 271 -95 316 -50 c 1
 390 -118 l 1
 325 -185 250 -220 159 -220 c 0
EndSplineSet
Substitution2: "'case' Case-Sensitive Forms lookup 25 subtable" questiondown.case
Substitution2: "'aalt' Access All Alternates lookup 0 subtable" questiondown.case
EndChar

StartChar: Agrave
Encoding: 192 192 6
Width: 574
GlyphClass: 2
Flags: MW
HStem: 0 21G<-42 94 -42 -42 405 405 405 542> 160 100<198 373 198 385 158 373> 595 96<332 332> 671 20G<267 428 428 428>
VStem: -42 584<0 0>
AnchorPoint: "Anchor-11" 0 0 basechar 0
AnchorPoint: "Anchor-10" 118 529 basechar 0
AnchorPoint: "Anchor-9" 348 691 basechar 0
AnchorPoint: "Anchor-8" 493 0 basechar 0
LayerCount: 2
Fore
SplineSet
461 751 m 1xd8
 241 837 l 1
 298 936 l 1
 499 817 l 1
 461 751 l 1xd8
385 160 m 1
 158 160 l 1
 94 0 l 1
 -42 0 l 1
 267 691 l 1
 428 691 l 1
 542 0 l 1
 405 0 l 1
 385 160 l 1
373 260 m 1
 332 595 l 1xe8
 198 260 l 1
 373 260 l 1
EndSplineSet
Substitution2: "'c2sc' Capitals to Small Capitals lookup 23 subtable" agrave.sc
Substitution2: "'aalt' Access All Alternates lookup 0 subtable" agrave.sc
Position2: "'cpsp' Capital Spacing lookup 0 subtable" dx=5 dy=0 dh=10 dv=0
EndChar

StartChar: Acircumflex
Encoding: 194 194 4
Width: 574
GlyphClass: 2
Flags: MW
HStem: 0 21G<-42 94 -42 -42 405 542 405 405> 160 100<198 373 198 385 158 373> 595 96<332 332> 671 20G<267 428 428 428>
VStem: -42 588
AnchorPoint: "Anchor-11" 0 0 basechar 0
AnchorPoint: "Anchor-10" 118 529 basechar 0
AnchorPoint: "Anchor-9" 348 691 basechar 0
AnchorPoint: "Anchor-8" 493 0 basechar 0
LayerCount: 2
Fore
SplineSet
238 757 m 1xd8
 194 812 l 1
 347 933 l 1
 426 933 l 1
 546 812 l 1
 494 757 l 1
 377 840 l 1
 238 757 l 1xd8
428 691 m 1
 542 0 l 1
 405 0 l 1
 385 160 l 1
 158 160 l 1
 94 0 l 1
 -42 0 l 1
 267 691 l 1
 428 691 l 1
373 260 m 1
 332 595 l 1xe8
 198 260 l 1
 373 260 l 1
EndSplineSet
Substitution2: "'c2sc' Capitals to Small Capitals lookup 23 subtable" acircumflex.sc
Substitution2: "'aalt' Access All Alternates lookup 0 subtable" acircumflex.sc
Position2: "'cpsp' Capital Spacing lookup 0 subtable" dx=5 dy=0 dh=10 dv=0
EndChar
StartChar: Atilde
Encoding: 195 195 32
Width: 574
GlyphClass: 2
Flags: MW
HStem: 0 21G<-42 94 -42 -42 405 542 405 405> 160 100<198 373 198 386 158 373> 595 96<332 332> 671 20G<267 428 428 428> 770 94<409.5 436.5 409.5 446> 817 93<300.5 328>
VStem: -42 592
AnchorPoint: "Anchor-14" 0 0 basechar 0
AnchorPoint: "Anchor-13" 0 0 basechar 0
AnchorPoint: "Anchor-12" 372 910 basechar 0
AnchorPoint: "Anchor-11" 493 0 basechar 0
AnchorPoint: "Anchor-10" 249 0 basechar 0
LayerCount: 2
Back
Fore
SplineSet
313 817 m 0xd6
 288 817 271 799 251 770 c 1
 188 807 l 1
 219 864 264 910 318 910 c 0xd6
 375 910 394 864 425 864 c 0
 448 864 465 880 485 909 c 1
 550 872 l 1
 515 809 470 770 422 770 c 0xda
 368 770 343 817 313 817 c 0xd6
267 691 m 1
 428 691 l 1
 542 0 l 1
 405 0 l 1
 386 160 l 1
 158 160 l 1
 94 0 l 1
 -42 0 l 1
 267 691 l 1
198 260 m 1
 373 260 l 1
 332 595 l 1xe6
 198 260 l 1
EndSplineSet
Substitution2: "'c2sc' Capitals to Small Capitals lookup 27 subtable" atilde.sc
Substitution2: "'aalt' Access All Alternates lookup 0 subtable" atilde.sc
Position2: "'cpsp' Capital Spacing lookup 0 subtable" dx=5 dy=0 dh=10 dv=0
EndChar

StartChar: Adieresis
Encoding: 196 196 5
Width: 574
GlyphClass: 2
Flags: MW
HStem: 0 21G<-42 94 -42 -42 405 542 405 405> 160 100<198 373 198 385 158 373> 595 96<332 332> 671 20G<267 428 428 428> 773 138<247.5 272.5 466.5 491>
VStem: 191 137 410 137
AnchorPoint: "Anchor-11" 0 0 basechar 0
AnchorPoint: "Anchor-10" 118 529 basechar 0
AnchorPoint: "Anchor-9" 368 837 basechar 0
AnchorPoint: "Anchor-8" 493 0 basechar 0
LayerCount: 2
Fore
SplineSet
254 773 m 0xde
 213 773 186 806 191 846 c 0
 196 883 229 911 266 911 c 0
 307 911 334 878 328 838 c 0
 323 801 291 773 254 773 c 0xde
485 911 m 0
 526 911 553 878 547 838 c 0
 542 801 510 773 472 773 c 0
 432 773 405 806 410 846 c 0
 415 883 448 911 485 911 c 0
428 691 m 1
 542 0 l 1
 405 0 l 1
 385 160 l 1
 158 160 l 1
 94 0 l 1
 -42 0 l 1
 267 691 l 1
 428 691 l 1
373 260 m 1
 332 595 l 1xe4
 198 260 l 1
 373 260 l 1
EndSplineSet
Substitution2: "'c2sc' Capitals to Small Capitals lookup 23 subtable" adieresis.sc
Substitution2: "'aalt' Access All Alternates lookup 0 subtable" adieresis.sc
Position2: "'cpsp' Capital Spacing lookup 0 subtable" dx=5 dy=0 dh=10 dv=0
EndChar
StartChar: Aring
Encoding: 197 197 29
Width: 574
GlyphClass: 2
Flags: MW
HStem: 0 21G<-42 94 -42 -42 405 542 405 405> 160 100<198 373 198 386 158 373> 595 96<332 332> 671 20G<267 428 428 428> 739 67<349 381.5 349 398> 913 66<360 392>
VStem: 244 77<836 865.5 836 882.5> 421 77<853.5 883.5>
AnchorPoint: "Anchor-14" 0 0 basechar 0
AnchorPoint: "Anchor-13" 0 0 basechar 0
AnchorPoint: "Anchor-12" 384 979 basechar 0
AnchorPoint: "Anchor-11" 493 0 basechar 0
AnchorPoint: "Anchor-10" 249 0 basechar 0
LayerCount: 2
Back
Fore
SplineSet
357 739 m 0xdf
 287 739 244 786 244 848 c 0
 244 917 303 979 384 979 c 0
 454 979 498 932 498 871 c 0
 498 801 439 739 357 739 c 0xdf
379 913 m 0
 341 913 321 881 321 850 c 0
 321 822 336 806 362 806 c 0
 401 806 421 838 421 869 c 0
 421 898 405 913 379 913 c 0
405 0 m 1
 386 160 l 1
 158 160 l 1
 94 0 l 1
 -42 0 l 1
 267 691 l 1
 428 691 l 1
 542 0 l 1
 405 0 l 1
198 260 m 1
 373 260 l 1
 332 595 l 1xef
 198 260 l 1
EndSplineSet
Substitution2: "'c2sc' Capitals to Small Capitals lookup 27 subtable" aring.sc
Substitution2: "'aalt' Access All Alternates lookup 0 subtable" aring.sc
Position2: "'cpsp' Capital Spacing lookup 0 subtable" dx=5 dy=0 dh=10 dv=0
EndChar

StartChar: AE
Encoding: 198 198 11
Width: 821
GlyphClass: 2
Flags: MW
HStem: 0 99<531 743> 160 100<213 397 213 403 164 397> 301 98<513 738 513 513> 593 98<488 488 488 774>
VStem: 386 110.5
AnchorPoint: "Anchor-11" 0 0 basechar 0
AnchorPoint: "Anchor-10" 0 0 basechar 0
AnchorPoint: "Anchor-9" 534 691 basechar 0
AnchorPoint: "Anchor-8" 0 0 basechar 0
LayerCount: 2
Fore
SplineSet
488 593 m 1
 505 399 l 1
 751 399 l 1
 738 301 l 1
 513 301 l 1
 531 99 l 1
 757 99 l 1
 743 0 l 1
 414 0 l 1
 403 160 l 1
 164 160 l 1
 86 0 l 1
 -54 0 l 1
 307 691 l 1
 802 691 l 1
 774 593 l 1
 488 593 l 1
397 260 m 1
 375 591 l 1
 213 260 l 1
 397 260 l 1
EndSplineSet
Substitution2: "'c2sc' Capitals to Small Capitals lookup 23 subtable" ae.sc
Substitution2: "'aalt' Access All Alternates lookup 0 subtable" ae.sc
Position2: "'cpsp' Capital Spacing lookup 0 subtable" dx=5 dy=0 dh=10 dv=0
EndChar
StartChar: Ccedilla
Encoding: 199 199 45
Width: 560
GlyphClass: 2
Flags: MW
HStem: -253 75<256.5 285.5 256.5 324> -13 21G<339 339> -13 104<339 339> -12 21G<263 263> 604 102<317 421>
VStem: 49 136<203 333.5 203 362.5> 324 95
AnchorPoint: "Anchor-14" 0 0 basechar 0
AnchorPoint: "Anchor-13" 0 0 basechar 0
AnchorPoint: "Anchor-12" 407 691 basechar 0
AnchorPoint: "Anchor-11" 0 0 basechar 0
AnchorPoint: "Anchor-10" 296 -253 basechar 0
LayerCount: 2
Back
Fore
SplineSet
521 67 m 1xae
 478 30 416 -5 339 -13 c 1
 333 -52 l 1xce
 393 -58 419 -92 419 -137 c 0
 419 -189 377 -253 271 -253 c 0
 228 -253 194 -239 172 -223 c 1
 210 -162 l 1
 227 -172 244 -178 269 -178 c 0
 302 -178 323 -166 324 -141 c 0
 325 -115 304 -106 240 -106 c 1
 263 -12 l 1x9e
 131 5 49 102 49 269 c 0
 49 456 144 706 394 706 c 0
 480 706 542 678 591 629 c 1
 517 556 l 1
 481 589 444 604 398 604 c 0
 236 604 185 402 185 265 c 0
 185 141 240 91 320 91 c 0
 381 91 426 120 468 150 c 1
 521 67 l 1xae
EndSplineSet
Substitution2: "'c2sc' Capitals to Small Capitals lookup 27 subtable" ccedilla.sc
Substitution2: "'aalt' Access All Alternates lookup 0 subtable" ccedilla.sc
Position2: "'cpsp' Capital Spacing lookup 0 subtable" dx=5 dy=0 dh=10 dv=0
EndChar
StartChar: Eacute
Encoding: 201 201 66
Width: 523
GlyphClass: 2
Flags: MW
HStem: 0 99<188 443> 302 98<230 436 217 448> 593 98<257 509 257 257>
VStem: 43 493
AnchorPoint: "Anchor-14" 0 0 basechar 0
AnchorPoint: "Anchor-13" 0 0 basechar 0
AnchorPoint: "Anchor-12" 364 936 basechar 0
AnchorPoint: "Anchor-11" 413 0 basechar 0
AnchorPoint: "Anchor-10" 244 0 basechar 0
LayerCount: 2
Back
Fore
SplineSet
449 936 m 1
 493 836 l 1
 261 751 l 1
 231 817 l 1
 449 936 l 1
536 691 m 1
 509 593 l 1
 257 593 l 1
 230 400 l 1
 448 400 l 1
 436 302 l 1
 217 302 l 1
 188 99 l 1
 457 99 l 1
 443 0 l 1
 43 0 l 1
 140 691 l 1
 536 691 l 1
EndSplineSet
Substitution2: "'c2sc' Capitals to Small Capitals lookup 27 subtable" eacute.sc
Substitution2: "'aalt' Access All Alternates lookup 0 subtable" eacute.sc
Position2: "'cpsp' Capital Spacing lookup 0 subtable" dx=5 dy=0 dh=10 dv=0
EndChar
StartChar: Ecircumflex
Encoding: 202 202 70
Width: 523
GlyphClass: 2
Flags: MW
HStem: 0 99<188 443> 302 98<230 436 217 448> 593 98<257 509 257 257>
VStem: 43 493
AnchorPoint: "Anchor-14" 0 0 basechar 0
AnchorPoint: "Anchor-13" 465 810 basechar 0
AnchorPoint: "Anchor-12" 369 933 basechar 0
AnchorPoint: "Anchor-11" 413 0 basechar 0
AnchorPoint: "Anchor-10" 244 0 basechar 0
LayerCount: 2
Back
Fore
SplineSet
477 757 m 1
 360 840 l 1
 221 757 l 1
 177 812 l 1
 330 933 l 1
 409 933 l 1
 529 812 l 1
 477 757 l 1
536 691 m 1
 509 593 l 1
 257 593 l 1
 230 400 l 1
 448 400 l 1
 436 302 l 1
 217 302 l 1
 188 99 l 1
 457 99 l 1
 443 0 l 1
 43 0 l 1
 140 691 l 1
 536 691 l 1
EndSplineSet
Substitution2: "'c2sc' Capitals to Small Capitals lookup 27 subtable" ecircumflex.sc
Substitution2: "'aalt' Access All Alternates lookup 0 subtable" ecircumflex.sc
Position2: "'cpsp' Capital Spacing lookup 0 subtable" dx=5 dy=0 dh=10 dv=0
EndChar

StartChar: Edieresis
Encoding: 203 203 29
Width: 523
GlyphClass: 2
Flags: MW
HStem: 0 99<188 443> 302 98<229 435 216 448> 593 98<257 508 257 257> 773 138<240.5 265.5 459.5 484>
VStem: 184 137 403 137
AnchorPoint: "Anchor-11" 243 0 basechar 0
AnchorPoint: "Anchor-10" 15 534 basechar 0
AnchorPoint: "Anchor-9" 361 837 basechar 0
AnchorPoint: "Anchor-8" 413 0 basechar 0
LayerCount: 2
Fore
SplineSet
259 911 m 0
 300 911 327 878 321 838 c 0
 316 801 284 773 247 773 c 0
 206 773 179 806 184 846 c 0
 189 883 222 911 259 911 c 0
478 911 m 0
 519 911 546 878 540 838 c 0
 535 801 503 773 465 773 c 0
 425 773 398 806 403 846 c 0
 408 883 441 911 478 911 c 0
508 593 m 1
 257 593 l 1
 229 400 l 1
 448 400 l 1
 435 302 l 1
 216 302 l 1
 188 99 l 1
 457 99 l 1
 443 0 l 1
 43 0 l 1
 140 691 l 1
 536 691 l 1
 508 593 l 1
EndSplineSet
Substitution2: "'c2sc' Capitals to Small Capitals lookup 23 subtable" edieresis.sc
Substitution2: "'aalt' Access All Alternates lookup 0 subtable" edieresis.sc
Position2: "'cpsp' Capital Spacing lookup 0 subtable" dx=5 dy=0 dh=10 dv=0
EndChar
StartChar: Igrave
Encoding: 204 204 126
Width: 291
GlyphClass: 2
Flags: MW
HStem: 0 21G<43 174 43 43> 671 20G<140 271 271 271>
VStem: 43 313
AnchorPoint: "Anchor-14" 0 0 basechar 0
AnchorPoint: "Anchor-13" 0 0 basechar 0
AnchorPoint: "Anchor-12" 229 936 basechar 0
AnchorPoint: "Anchor-11" 154 0 basechar 0
AnchorPoint: "Anchor-10" 108 0 basechar 0
LayerCount: 2
Back
Fore
SplineSet
155 936 m 1
 356 817 l 1
 318 751 l 1
 98 837 l 1
 155 936 l 1
271 691 m 1
 174 0 l 1
 43 0 l 1
 140 691 l 1
 271 691 l 1
EndSplineSet
Substitution2: "'c2sc' Capitals to Small Capitals lookup 27 subtable" igrave.sc
Substitution2: "'aalt' Access All Alternates lookup 0 subtable" igrave.sc
Position2: "'cpsp' Capital Spacing lookup 0 subtable" dx=5 dy=0 dh=10 dv=0
EndChar

StartChar: Iacute
Encoding: 205 205 45
Width: 292
GlyphClass: 2
Flags: MW
HStem: 0 21G<43 175 43 43> 671 20G<140 272 272 272>
VStem: 43 314
AnchorPoint: "Anchor-11" 0 0 basechar 0
AnchorPoint: "Anchor-10" 16 534 basechar 0
AnchorPoint: "Anchor-9" 206 691 basechar 0
AnchorPoint: "Anchor-8" 169 0 basechar 0
LayerCount: 2
Fore
SplineSet
357 836 m 1
 125 751 l 1
 95 817 l 1
 313 936 l 1
 357 836 l 1
175 0 m 1
 43 0 l 1
 140 691 l 1
 272 691 l 1
 175 0 l 1
EndSplineSet
Substitution2: "'c2sc' Capitals to Small Capitals lookup 23 subtable" iacute.sc
Substitution2: "'aalt' Access All Alternates lookup 0 subtable" iacute.sc
Position2: "'cpsp' Capital Spacing lookup 0 subtable" dx=5 dy=0 dh=10 dv=0
EndChar

StartChar: Icircumflex
Encoding: 206 206 47
Width: 292
GlyphClass: 2
Flags: MW
HStem: 0 21G<43 175 43 43> 671 20G<140 272 272 272>
VStem: 43 361
AnchorPoint: "Anchor-11" 0 0 basechar 0
AnchorPoint: "Anchor-10" 16 534 basechar 0
AnchorPoint: "Anchor-9" 206 691 basechar 0
AnchorPoint: "Anchor-8" 169 0 basechar 0
LayerCount: 2
Fore
SplineSet
235 840 m 1
 96 757 l 1
 52 812 l 1
 205 933 l 1
 284 933 l 1
 404 812 l 1
 352 757 l 1
 235 840 l 1
175 0 m 1
 43 0 l 1
 140 691 l 1
 272 691 l 1
 175 0 l 1
EndSplineSet
Substitution2: "'c2sc' Capitals to Small Capitals lookup 23 subtable" icircumflex.sc
Substitution2: "'aalt' Access All Alternates lookup 0 subtable" icircumflex.sc
Position2: "'cpsp' Capital Spacing lookup 0 subtable" dx=5 dy=0 dh=10 dv=0
EndChar
StartChar: Ntilde
Encoding: 209 209 169
Width: 664
GlyphClass: 2
Flags: MW
HStem: 0 21G<43 162 43 43 380 547 380 380> 0 111<468 468 468 547 380 468> 580 111<221 221> 671 20G<140 307 307 307 526 644 644 644> 770 94<461.5 488.5 461.5 498> 817 93<352.5 380>
VStem: 43 601
AnchorPoint: "Anchor-14" 0 0 basechar 0
AnchorPoint: "Anchor-13" 0 0 basechar 0
AnchorPoint: "Anchor-12" 424 910 basechar 0
AnchorPoint: "Anchor-11" 0 0 basechar 0
AnchorPoint: "Anchor-10" 296 0 basechar 0
LayerCount: 2
Back
Fore
SplineSet
474 770 m 0x9a
 420 770 395 817 365 817 c 0
 340 817 323 799 303 770 c 1
 240 807 l 1
 271 864 316 910 370 910 c 0x96
 427 910 446 864 477 864 c 0
 500 864 517 880 537 909 c 1
 602 872 l 1
 567 809 522 770 474 770 c 0x9a
644 691 m 1x56
 547 0 l 1
 380 0 l 1
 221 580 l 1xa6
 222 495 219 408 200 276 c 2
 162 0 l 1
 43 0 l 1
 140 691 l 1
 307 691 l 1
 468 111 l 1
 465 205 467 271 480 373 c 2
 526 691 l 1
 644 691 l 1x56
EndSplineSet
Substitution2: "'c2sc' Capitals to Small Capitals lookup 27 subtable" ntilde.sc
Substitution2: "'aalt' Access All Alternates lookup 0 subtable" ntilde.sc
Position2: "'cpsp' Capital Spacing lookup 0 subtable" dx=5 dy=0 dh=10 dv=0
EndChar

StartChar: Oacute
Encoding: 211 211 72
Width: 683
GlyphClass: 2
Flags: MW
HStem: -15 101<273 397.5 273 439> 605 101<309.5 434.5>
VStem: 49 135<193 318 193 356.5> 522 136<375.5 499.5>
AnchorPoint: "Anchor-11" 0 0 basechar 0
AnchorPoint: "Anchor-10" 40 534 basechar 0
AnchorPoint: "Anchor-9" 404 691 basechar 0
AnchorPoint: "Anchor-8" 0 0 basechar 0
LayerCount: 2
Fore
SplineSet
556 836 m 1
 324 751 l 1
 294 817 l 1
 512 936 l 1
 556 836 l 1
401 706 m 0
 562 706 658 605 658 424 c 0
 658 240 572 -15 306 -15 c 0
 145 -15 49 86 49 266 c 0
 49 447 135 706 401 706 c 0
393 605 m 0
 226 605 184 384 184 252 c 0
 184 134 233 86 313 86 c 0
 482 86 522 308 522 443 c 0
 522 556 476 605 393 605 c 0
EndSplineSet
Substitution2: "'c2sc' Capitals to Small Capitals lookup 23 subtable" oacute.sc
Substitution2: "'locl' Localized Forms in Latin lookup 7 subtable" Oacute.loclPLK
AlternateSubs2: "'aalt' Access All Alternates lookup 1 subtable" Oacute.loclPLK oacute.sc
Position2: "'cpsp' Capital Spacing lookup 0 subtable" dx=5 dy=0 dh=10 dv=0
EndChar
StartChar: Ocircumflex
Encoding: 212 212 176
Width: 683
GlyphClass: 2
Flags: MW
HStem: -15 101<273 397.5 273 439> 605 101<309.5 434.5>
VStem: 49 135<196 321 196 356.5> 522 136<371 495>
AnchorPoint: "Anchor-14" 0 0 basechar 0
AnchorPoint: "Anchor-13" 528 810 basechar 0
AnchorPoint: "Anchor-12" 432 933 basechar 0
AnchorPoint: "Anchor-11" 0 0 basechar 0
AnchorPoint: "Anchor-10" 303 0 basechar 0
LayerCount: 2
Back
Fore
SplineSet
540 757 m 1
 423 840 l 1
 284 757 l 1
 240 812 l 1
 393 933 l 1
 472 933 l 1
 592 812 l 1
 540 757 l 1
401 706 m 0
 562 706 658 605 658 424 c 0
 658 240 572 -15 306 -15 c 0
 145 -15 49 86 49 266 c 0
 49 447 135 706 401 706 c 0
393 605 m 0
 226 605 184 384 184 258 c 0
 184 134 233 86 313 86 c 0
 482 86 522 308 522 434 c 0
 522 556 476 605 393 605 c 0
EndSplineSet
Substitution2: "'c2sc' Capitals to Small Capitals lookup 27 subtable" ocircumflex.sc
Substitution2: "'aalt' Access All Alternates lookup 0 subtable" ocircumflex.sc
Position2: "'cpsp' Capital Spacing lookup 0 subtable" dx=5 dy=0 dh=10 dv=0
EndChar
StartChar: Otilde
Encoding: 213 213 207
Width: 683
GlyphClass: 2
Flags: MW
HStem: -15 101<273 397.5 273 439> 605 101<309.5 434.5> 770 94<465.5 492.5 465.5 502> 817 93<356.5 384>
VStem: 49 135<196 321 196 356.5> 522 136<371 495>
AnchorPoint: "Anchor-14" 0 0 basechar 0
AnchorPoint: "Anchor-13" 617 691 basechar 0
AnchorPoint: "Anchor-12" 428 910 basechar 0
AnchorPoint: "Anchor-11" 0 0 basechar 0
AnchorPoint: "Anchor-10" 303 0 basechar 0
LayerCount: 2
Back
Fore
SplineSet
478 770 m 0xec
 424 770 399 817 369 817 c 0
 344 817 327 799 307 770 c 1
 244 807 l 1
 275 864 320 910 374 910 c 0xdc
 431 910 450 864 481 864 c 0
 504 864 521 880 541 909 c 1
 606 872 l 1
 571 809 526 770 478 770 c 0xec
401 706 m 0
 562 706 658 605 658 424 c 0
 658 240 572 -15 306 -15 c 0
 145 -15 49 86 49 266 c 0
 49 447 135 706 401 706 c 0
393 605 m 0
 226 605 184 384 184 258 c 0
 184 134 233 86 313 86 c 0
 482 86 522 308 522 434 c 0
 522 556 476 605 393 605 c 0
EndSplineSet
Substitution2: "'c2sc' Capitals to Small Capitals lookup 27 subtable" otilde.sc
Substitution2: "'aalt' Access All Alternates lookup 0 subtable" otilde.sc
Position2: "'cpsp' Capital Spacing lookup 0 subtable" dx=5 dy=0 dh=10 dv=0
EndChar
StartChar: Odieresis
Encoding: 214 214 183
Width: 683
GlyphClass: 2
Flags: MW
HStem: -15 101<273 397.5 273 439> 605 101<309.5 434.5> 773 138<301.5 327 520 546>
VStem: 49 135<196 321 196 356.5> 246 136 465 136 522 136<371 495>
AnchorPoint: "Anchor-14" 0 0 basechar 0
AnchorPoint: "Anchor-13" 617 691 basechar 0
AnchorPoint: "Anchor-12" 429 911 basechar 0
AnchorPoint: "Anchor-11" 0 0 basechar 0
AnchorPoint: "Anchor-10" 303 0 basechar 0
LayerCount: 2
Back
Fore
SplineSet
321 911 m 0xfa
 361 911 389 878 382 838 c 0
 377 801 346 773 308 773 c 0
 267 773 240 806 246 846 c 0
 251 883 282 911 321 911 c 0xfa
539 911 m 0xfc
 581 911 607 878 601 838 c 0
 596 801 566 773 526 773 c 0
 486 773 459 806 465 846 c 0
 470 883 501 911 539 911 c 0xfc
401 706 m 0xfa
 562 706 658 605 658 424 c 0
 658 240 572 -15 306 -15 c 0
 145 -15 49 86 49 266 c 0
 49 447 135 706 401 706 c 0xfa
393 605 m 0
 226 605 184 384 184 258 c 0
 184 134 233 86 313 86 c 0
 482 86 522 308 522 434 c 0
 522 556 476 605 393 605 c 0
EndSplineSet
Substitution2: "'c2sc' Capitals to Small Capitals lookup 27 subtable" odieresis.sc
Substitution2: "'aalt' Access All Alternates lookup 0 subtable" odieresis.sc
Position2: "'cpsp' Capital Spacing lookup 0 subtable" dx=5 dy=0 dh=10 dv=0
EndChar
StartChar: multiply
Encoding: 215 215 2268
Width: 502
GlyphClass: 2
Flags: MW
HStem: 115 384<114 165 165 349>
VStem: 51 412<188 426>
LayerCount: 2
Back
Fore
SplineSet
400 499 m 1
 463 426 l 1
 327 307 l 1
 429 188 l 1
 349 115 l 1
 248 235 l 1
 114 115 l 1
 51 188 l 1
 186 307 l 1
 84 426 l 1
 165 499 l 1
 266 379 l 1
 400 499 l 1
EndSplineSet
Substitution2: "'onum' Oldstyle Figures lookup 26 subtable" multiply.osf
Substitution2: "'tnum' Tabular Numbers lookup 25 subtable" multiply.tf
AlternateSubs2: "'aalt' Access All Alternates lookup 1 subtable" multiply.tf multiply.osf
EndChar

StartChar: Oslash
Encoding: 216 216 79
Width: 683
GlyphClass: 2
Flags: MW
HStem: -15 101<307 397.5 307 439> -10 21G<247 247> 605 101<309.5 399> 681 20G<457 457>
VStem: 49 133<219 318 219 356.5> 524 134<375.5 475>
AnchorPoint: "Anchor-11" 0 0 basechar 0
AnchorPoint: "Anchor-10" 169 691 basechar 0
AnchorPoint: "Anchor-9" 402 717 basechar 0
AnchorPoint: "Anchor-8" 0 0 basechar 0
LayerCount: 2
Fore
SplineSet
552 665 m 1xac
 620 620 658 538 658 424 c 0
 658 240 572 -15 306 -15 c 0xac
 285 -15 266 -13 247 -10 c 1
 195 -131 l 1
 95 -104 l 1
 154 27 l 1
 86 72 49 154 49 266 c 0
 49 447 135 706 401 706 c 0x6c
 421 706 440 704 457 701 c 1x9c
 512 824 l 1
 611 796 l 1
 552 665 l 1xac
393 605 m 0
 226 605 182 384 182 252 c 0
 182 186 194 145 215 121 c 1
 427 603 l 1
 416 604 405 605 393 605 c 0
313 86 m 0
 482 86 524 308 524 443 c 0
 524 507 512 548 490 572 c 1
 279 88 l 1
 289 87 301 86 313 86 c 0
EndSplineSet
Substitution2: "'c2sc' Capitals to Small Capitals lookup 23 subtable" oslash.sc
Substitution2: "'aalt' Access All Alternates lookup 0 subtable" oslash.sc
Position2: "'cpsp' Capital Spacing lookup 0 subtable" dx=5 dy=0 dh=10 dv=0
EndChar
StartChar: Ugrave
Encoding: 217 217 266
Width: 648
GlyphClass: 2
Flags: MW
HStem: -15 103<254 338.5 254 369.5> 671 20G<130 261 261 261 507 638 638 638>
VStem: 61.86 131
AnchorPoint: "Anchor-14" 0 0 basechar 0
AnchorPoint: "Anchor-13" 648 691 basechar 0
AnchorPoint: "Anchor-12" 407 936 basechar 0
AnchorPoint: "Anchor-11" 396 0 basechar 0
AnchorPoint: "Anchor-10" 287 0 basechar 0
LayerCount: 2
Back
Fore
SplineSet
333 936 m 1
 534 817 l 1
 496 751 l 1
 276 837 l 1
 333 936 l 1
638 691 m 1
 573 224 l 2
 553 85 452 -15 287 -15 c 0
 118 -15 45 86 65 228 c 2
 130 691 l 1
 261 691 l 1
 196 230 l 2
 182 134 213 88 295 88 c 0
 382 88 428 138 442 235 c 2
 507 691 l 1
 638 691 l 1
EndSplineSet
Substitution2: "'c2sc' Capitals to Small Capitals lookup 27 subtable" ugrave.sc
Substitution2: "'aalt' Access All Alternates lookup 0 subtable" ugrave.sc
Position2: "'cpsp' Capital Spacing lookup 0 subtable" dx=5 dy=0 dh=10 dv=0
EndChar

StartChar: Udieresis
Encoding: 220 220 105
Width: 648
GlyphClass: 2
Flags: MW
HStem: -15 103<254 338.5 254 369.5> 671 20G<130 261 261 261 507 638 638 638> 773 138<283.5 308.5 502.5 527>
VStem: 61.86 131 227 137 446 137
AnchorPoint: "Anchor-11" 0 0 basechar 0
AnchorPoint: "Anchor-10" 0 0 basechar 0
AnchorPoint: "Anchor-9" 404 837 basechar 0
AnchorPoint: "Anchor-8" 396 0 basechar 0
LayerCount: 2
Fore
SplineSet
302 911 m 0
 343 911 370 878 364 838 c 0
 359 801 327 773 290 773 c 0
 249 773 222 806 227 846 c 0
 232 883 265 911 302 911 c 0
521 911 m 0
 562 911 589 878 583 838 c 0
 578 801 546 773 508 773 c 0
 468 773 441 806 446 846 c 0
 451 883 484 911 521 911 c 0
573 224 m 2
 553 85 452 -15 287 -15 c 0
 118 -15 45 86 65 228 c 2
 130 691 l 1
 261 691 l 1
 196 230 l 2
 182 134 213 88 295 88 c 0
 382 88 428 138 442 235 c 2
 507 691 l 1
 638 691 l 1
 573 224 l 2
EndSplineSet
Substitution2: "'c2sc' Capitals to Small Capitals lookup 23 subtable" udieresis.sc
Substitution2: "'aalt' Access All Alternates lookup 0 subtable" udieresis.sc
Position2: "'cpsp' Capital Spacing lookup 0 subtable" dx=5 dy=0 dh=10 dv=0
EndChar
StartChar: Yacute
Encoding: 221 221 294
Width: 566
GlyphClass: 2
Flags: MW
HStem: 0 21G<180 312 180 180> 671 20G<58 197 197 197 487 628 628 628>
VStem: 58 570<691 691>
AnchorPoint: "Anchor-14" 0 0 basechar 0
AnchorPoint: "Anchor-13" 0 0 basechar 0
AnchorPoint: "Anchor-12" 368 936 basechar 0
AnchorPoint: "Anchor-11" 0 0 basechar 0
AnchorPoint: "Anchor-10" 246 0 basechar 0
LayerCount: 2
Back
Fore
SplineSet
453 936 m 1
 497 836 l 1
 265 751 l 1
 235 817 l 1
 453 936 l 1
628 691 m 1
 349 262 l 1
 312 0 l 1
 180 0 l 1
 217 261 l 1
 58 691 l 1
 197 691 l 1
 297 370 l 1
 487 691 l 1
 628 691 l 1
EndSplineSet
Substitution2: "'c2sc' Capitals to Small Capitals lookup 27 subtable" yacute.sc
Substitution2: "'aalt' Access All Alternates lookup 0 subtable" yacute.sc
Position2: "'cpsp' Capital Spacing lookup 0 subtable" dx=5 dy=0 dh=10 dv=0
EndChar

StartChar: Thorn
Encoding: 222 222 84
Width: 584
GlyphClass: 2
Flags: MW
HStem: 0 21G<43 174 43 43> 120 99<205 272 205 272 191 272> 481 97<255 313 242 324> 671 20G<140 271 271 271>
VStem: 437 137<345 418.5>
AnchorPoint: "Anchor-11" 0 0 basechar 0
AnchorPoint: "Anchor-10" 0 0 basechar 0
AnchorPoint: "Anchor-9" 69 236 basechar 0
AnchorPoint: "Anchor-8" 0 0 basechar 0
LayerCount: 2
Fore
SplineSet
324 578 m 2
 480 578 574 518 574 385 c 0
 574 267 505 120 272 120 c 2
 191 120 l 1
 174 0 l 1
 43 0 l 1
 140 691 l 1
 271 691 l 1
 255 578 l 1
 324 578 l 2
272 219 m 2
 403 219 437 307 437 383 c 0
 437 454 392 481 313 481 c 2
 242 481 l 1
 205 219 l 1
 272 219 l 2
EndSplineSet
Substitution2: "'c2sc' Capitals to Small Capitals lookup 23 subtable" thorn.sc
Substitution2: "'aalt' Access All Alternates lookup 0 subtable" thorn.sc
Position2: "'cpsp' Capital Spacing lookup 0 subtable" dx=5 dy=0 dh=10 dv=0
EndChar

StartChar: germandbls
Encoding: 223 223 233
Width: 592
GlyphClass: 2
Flags: MW
HStem: -218 21G<-53 -53> -15 100<317.5 365 317.5 413> 661 94<320 368.5>
VStem: 288 116<386 456.5> 413 121<564 628> 423 129<157 227.5>
LayerCount: 2
Fore
SplineSet
404 423 m 0xf0
 404 349 552 335 552 181 c 0
 552 92 487 -15 339 -15 c 0
 289 -15 245 0 217 16 c 1
 263 101 l 1
 282 91 306 85 329 85 c 0
 401 85 423 139 423 175 c 0
 423 280 288 293 288 397 c 0xf4
 288 516 413 517 413 611 c 0
 413 645 387 661 350 661 c 0
 290 661 251 619 240 536 c 2
 171 45 l 2
 149 -117 70 -170 -53 -218 c 1
 -86 -124 l 1
 -15 -95 30 -65 44 34 c 2
 114 538 l 2
 133 675 220 755 358 755 c 0
 472 755 534 695 534 618 c 0xf8
 534 501 404 491 404 423 c 0xf0
EndSplineSet
Substitution2: "'smcp' Lowercase to Small Capitals lookup 24 subtable" germandbls.sc
Substitution2: "'aalt' Access All Alternates lookup 0 subtable" germandbls.sc
EndChar

StartChar: agrave
Encoding: 224 224 139
Width: 571
GlyphClass: 2
Flags: MW
HStem: -15 97<221 240.5> 450 94<270.5 344> 675 20G<500 500>
VStem: 36 133<152 247 152 266.5>
AnchorPoint: "Anchor-11" 0 0 basechar 0
AnchorPoint: "Anchor-10" 0 0 basechar 0
AnchorPoint: "Anchor-9" 337 529 basechar 0
AnchorPoint: "Anchor-8" 482 -13 basechar 0
LayerCount: 2
Fore
SplineSet
500 695 m 1
 456 630 l 1
 246 720 l 1
 311 820 l 1
 500 695 l 1
330 544 m 0
 397 544 463 530 535 493 c 1
 481 138 l 2
 480 129 479 122 479 116 c 0
 479 89 490 79 510 71 c 1
 474 -13 l 1
 418 -7 376 18 364 75 c 1
 326 22 274 -15 207 -15 c 0
 95 -15 36 67 36 192 c 0
 36 341 115 544 330 544 c 0
329 450 m 0
 212 450 169 302 169 192 c 0
 169 112 198 82 244 82 c 0
 290 82 326 116 361 166 c 1
 402 436 l 1
 377 446 359 450 329 450 c 0
EndSplineSet
Substitution2: "'smcp' Lowercase to Small Capitals lookup 24 subtable" agrave.sc
Substitution2: "'aalt' Access All Alternates lookup 0 subtable" agrave.sc
EndChar

StartChar: aacute
Encoding: 225 225 135
Width: 571
GlyphClass: 2
Flags: MW
HStem: -15 97<221 240.5> 450 94<270.5 344>
VStem: 36 133<152 247 152 266.5>
AnchorPoint: "Anchor-11" 0 0 basechar 0
AnchorPoint: "Anchor-10" 0 0 basechar 0
AnchorPoint: "Anchor-9" 337 529 basechar 0
AnchorPoint: "Anchor-8" 482 -13 basechar 0
LayerCount: 2
Fore
SplineSet
484 720 m 1
 250 630 l 1
 223 695 l 1
 446 820 l 1
 484 720 l 1
330 544 m 0
 397 544 463 530 535 493 c 1
 481 138 l 2
 480 129 479 122 479 116 c 0
 479 89 490 79 510 71 c 1
 474 -13 l 1
 418 -7 376 18 364 75 c 1
 326 22 274 -15 207 -15 c 0
 95 -15 36 67 36 192 c 0
 36 341 115 544 330 544 c 0
329 450 m 0
 212 450 169 302 169 192 c 0
 169 112 198 82 244 82 c 0
 290 82 326 116 361 166 c 1
 402 436 l 1
 377 446 359 450 329 450 c 0
EndSplineSet
Substitution2: "'smcp' Lowercase to Small Capitals lookup 24 subtable" aacute.sc
Substitution2: "'aalt' Access All Alternates lookup 0 subtable" aacute.sc
EndChar
StartChar: acircumflex
Encoding: 226 226 344
Width: 571
GlyphClass: 2
Flags: MW
HStem: -15 97<221 241> 450 94<270.5 344>
VStem: 37 132<152 247 152 266.5>
AnchorPoint: "Anchor-14" 0 0 basechar 0
AnchorPoint: "Anchor-13" 0 0 basechar 0
AnchorPoint: "Anchor-12" 376 808 basechar 0
AnchorPoint: "Anchor-11" 482 -13 basechar 0
AnchorPoint: "Anchor-10" 276 0 basechar 0
LayerCount: 2
Back
Fore
SplineSet
228 627 m 1
 184 682 l 1
 338 808 l 1
 417 808 l 1
 536 682 l 1
 482 627 l 1
 367 715 l 1
 228 627 l 1
331 544 m 0
 398 544 464 530 535 493 c 1
 482 138 l 2
 481 129 480 122 480 116 c 0
 480 89 491 79 510 71 c 1
 474 -13 l 1
 418 -7 377 18 365 75 c 1
 326 22 274 -15 208 -15 c 0
 95 -15 37 67 37 192 c 0
 37 341 115 544 331 544 c 0
329 450 m 0
 212 450 169 302 169 192 c 0
 169 112 198 82 244 82 c 0
 290 82 326 116 362 166 c 1
 402 436 l 1
 377 446 359 450 329 450 c 0
EndSplineSet
Substitution2: "'smcp' Lowercase to Small Capitals lookup 28 subtable" acircumflex.sc
Substitution2: "'aalt' Access All Alternates lookup 0 subtable" acircumflex.sc
EndChar
StartChar: atilde
Encoding: 227 227 366
Width: 571
GlyphClass: 2
Flags: MW
HStem: -15 97<221 241> 450 94<270.5 344> 644 94<408.5 435.5 408.5 445> 691 93<299.5 327> 726 20G<549 549>
VStem: 37 132<152 247 152 266.5>
AnchorPoint: "Anchor-14" 0 0 basechar 0
AnchorPoint: "Anchor-13" 0 0 basechar 0
AnchorPoint: "Anchor-12" 370 784 basechar 0
AnchorPoint: "Anchor-11" 482 -13 basechar 0
AnchorPoint: "Anchor-10" 276 0 basechar 0
LayerCount: 2
Back
Fore
SplineSet
421 644 m 0xe4
 367 644 342 691 312 691 c 0
 287 691 270 673 250 644 c 1
 187 681 l 1
 218 738 263 784 317 784 c 0xd4
 374 784 393 738 424 738 c 0
 447 738 464 754 484 783 c 1xe4
 549 746 l 1xcc
 514 683 469 644 421 644 c 0xe4
331 544 m 0xcc
 398 544 464 530 535 493 c 1
 482 138 l 2
 481 129 480 122 480 116 c 0
 480 89 491 79 510 71 c 1
 474 -13 l 1
 418 -7 377 18 365 75 c 1
 326 22 274 -15 208 -15 c 0
 95 -15 37 67 37 192 c 0
 37 341 115 544 331 544 c 0xcc
329 450 m 0
 212 450 169 302 169 192 c 0
 169 112 198 82 244 82 c 0
 290 82 326 116 362 166 c 1
 402 436 l 1
 377 446 359 450 329 450 c 0
EndSplineSet
Substitution2: "'smcp' Lowercase to Small Capitals lookup 28 subtable" atilde.sc
Substitution2: "'aalt' Access All Alternates lookup 0 subtable" atilde.sc
EndChar

StartChar: adieresis
Encoding: 228 228 138
Width: 571
GlyphClass: 2
Flags: MW
HStem: -15 97<221 240.5> 450 94<270.5 344> 647 138<236.5 261.5 455.5 480>
VStem: 36 133<152 247 152 266.5> 180 137 399 137
AnchorPoint: "Anchor-11" 0 0 basechar 0
AnchorPoint: "Anchor-10" 0 0 basechar 0
AnchorPoint: "Anchor-9" 357 711 basechar 0
AnchorPoint: "Anchor-8" 482 -13 basechar 0
LayerCount: 2
Fore
SplineSet
255 785 m 0
 296 785 323 752 317 712 c 0
 312 675 280 647 243 647 c 0
 202 647 175 680 180 720 c 0
 185 757 218 785 255 785 c 0
474 785 m 0
 515 785 542 752 536 712 c 0
 531 675 499 647 461 647 c 0
 421 647 394 680 399 720 c 0
 404 757 437 785 474 785 c 0
330 544 m 0
 397 544 463 530 535 493 c 1
 481 138 l 2
 480 129 479 122 479 116 c 0
 479 89 490 79 510 71 c 1
 474 -13 l 1
 418 -7 376 18 364 75 c 1
 326 22 274 -15 207 -15 c 0
 95 -15 36 67 36 192 c 0xf0
 36 341 115 544 330 544 c 0
329 450 m 0xf0
 212 450 169 302 169 192 c 0
 169 112 198 82 244 82 c 0
 290 82 326 116 361 166 c 1
 402 436 l 1
 377 446 359 450 329 450 c 0xf0
EndSplineSet
Substitution2: "'smcp' Lowercase to Small Capitals lookup 24 subtable" adieresis.sc
Substitution2: "'aalt' Access All Alternates lookup 0 subtable" adieresis.sc
EndChar
StartChar: aring
Encoding: 229 229 363
Width: 571
GlyphClass: 2
Flags: MW
HStem: -15 97<221 241> 450 94<270.5 344> 613 67<348 380.5 348 397> 787 66<359 391>
VStem: 37 132<152 247 152 266.5> 243 77<710 739.5 710 756.5> 420 77<727.5 757.5>
AnchorPoint: "Anchor-14" 0 0 basechar 0
AnchorPoint: "Anchor-13" 0 0 basechar 0
AnchorPoint: "Anchor-12" 382 853 basechar 0
AnchorPoint: "Anchor-11" 482 -13 basechar 0
AnchorPoint: "Anchor-10" 276 0 basechar 0
LayerCount: 2
Back
Fore
SplineSet
383 853 m 0
 453 853 497 806 497 745 c 0
 497 675 438 613 356 613 c 0
 286 613 243 660 243 722 c 0
 243 791 302 853 383 853 c 0
378 787 m 0
 340 787 320 755 320 724 c 0
 320 696 335 680 361 680 c 0
 400 680 420 712 420 743 c 0
 420 772 404 787 378 787 c 0
331 544 m 0
 398 544 464 530 535 493 c 1
 482 138 l 2
 481 129 480 122 480 116 c 0
 480 89 491 79 510 71 c 1
 474 -13 l 1
 418 -7 377 18 365 75 c 1
 326 22 274 -15 208 -15 c 0
 95 -15 37 67 37 192 c 0
 37 341 115 544 331 544 c 0
329 450 m 0
 212 450 169 302 169 192 c 0
 169 112 198 82 244 82 c 0
 290 82 326 116 362 166 c 1
 402 436 l 1
 377 446 359 450 329 450 c 0
EndSplineSet
Substitution2: "'smcp' Lowercase to Small Capitals lookup 28 subtable" aring.sc
Substitution2: "'aalt' Access All Alternates lookup 0 subtable" aring.sc
EndChar

StartChar: ae
Encoding: 230 230 144
Width: 852
GlyphClass: 2
Flags: MW
HStem: -15 93<201.5 219.5> -15 99<548.5 601.5 548.5 601.5> 237 78<291 297 297 349> 446 98<273.5 301> 453 91<594 649>
VStem: 24 136<118 173 118 174> 349 123 687 129<365 410>
AnchorPoint: "Anchor-11" 0 0 basechar 0
AnchorPoint: "Anchor-10" 0 0 basechar 0
AnchorPoint: "Anchor-9" 463 529 basechar 0
AnchorPoint: "Anchor-8" 0 0 basechar 0
LayerCount: 2
Fore
SplineSet
301 544 m 0x6f
 383 544 428 514 453 467 c 1
 491 511 555 544 633 544 c 0x6f
 754 544 816 479 816 404 c 0
 816 254 647 214 472 197 c 1
 474 111 519 84 578 84 c 0
 625 84 667 99 716 133 c 1
 764 53 l 1
 707 12 640 -15 563 -15 c 0
 475 -15 413 18 379 76 c 1
 320 8 257 -15 182 -15 c 0
 83 -15 24 42 24 127 c 0
 24 221 85 315 291 315 c 2
 360 315 l 1
 368 350 375 368 379 379 c 1
 375 420 330 446 272 446 c 0
 235 446 190 438 134 420 c 1x77
 113 510 l 1
 181 535 246 544 301 544 c 0x6f
625 453 m 0
 534 453 492 365 478 281 c 1
 621 294 687 332 687 398 c 0
 687 422 673 453 625 453 c 0
297 237 m 2
 210 237 160 209 160 137 c 0
 160 99 180 78 223 78 c 0
 270 78 310 105 351 155 c 1xaf
 348 171 348 218 349 237 c 1
 297 237 l 2
EndSplineSet
Substitution2: "'smcp' Lowercase to Small Capitals lookup 24 subtable" ae.sc
Substitution2: "'aalt' Access All Alternates lookup 0 subtable" ae.sc
EndChar
StartChar: ccedilla
Encoding: 231 231 383
Width: 471
GlyphClass: 2
Flags: MW
HStem: -253 75<189.5 218.5 189.5 257> -14 21G<272 272> -14 103<272 272> -10 21G<197 197> 443 101<263 341.5>
VStem: 38 133<160 250.5 160 277> 257 95
AnchorPoint: "Anchor-14" 0 0 basechar 0
AnchorPoint: "Anchor-13" 0 0 basechar 0
AnchorPoint: "Anchor-12" 323 529 basechar 0
AnchorPoint: "Anchor-11" 0 0 basechar 0
AnchorPoint: "Anchor-10" 225 -253 basechar 0
LayerCount: 2
Back
Fore
SplineSet
426 43 m 1xae
 379 10 328 -10 272 -14 c 1
 266 -52 l 1xce
 326 -58 352 -92 352 -137 c 0
 352 -189 310 -253 204 -253 c 0
 161 -253 127 -239 105 -223 c 1
 143 -162 l 1
 160 -172 177 -178 202 -178 c 0
 235 -178 256 -166 257 -141 c 0
 258 -115 237 -106 173 -106 c 1
 197 -10 l 1x9e
 95 11 38 90 38 208 c 0
 38 346 116 544 322 544 c 0
 385 544 440 524 484 481 c 1
 420 405 l 1
 389 433 360 443 323 443 c 0
 203 443 171 300 171 201 c 0
 171 119 207 89 265 89 c 0
 306 89 337 103 378 128 c 1
 426 43 l 1xae
EndSplineSet
Substitution2: "'smcp' Lowercase to Small Capitals lookup 28 subtable" ccedilla.sc
Substitution2: "'aalt' Access All Alternates lookup 0 subtable" ccedilla.sc
EndChar
StartChar: edieresis
Encoding: 235 235 421
Width: 529
GlyphClass: 2
Flags: MW
HStem: -15 99<241 294 241 294.5> 453 91<272 341.5> 647 138<218 244 437 462.5>
VStem: 38 130 162 137 379 130<365 410> 381 137
AnchorPoint: "Anchor-14" 0 0 basechar 0
AnchorPoint: "Anchor-13" 0 0 basechar 0
AnchorPoint: "Anchor-12" 343 785 basechar 0
AnchorPoint: "Anchor-11" 378 8 basechar 0
AnchorPoint: "Anchor-10" 253 0 basechar 0
LayerCount: 2
Back
Fore
SplineSet
225 647 m 0xea
 184 647 157 680 162 720 c 0
 167 757 199 785 237 785 c 0
 278 785 305 752 299 712 c 0
 294 675 263 647 225 647 c 0xea
456 785 m 0
 497 785 524 752 518 712 c 0
 513 675 482 647 443 647 c 0
 403 647 376 680 381 720 c 0
 386 757 418 785 456 785 c 0
326 544 m 0xf4
 447 544 509 479 509 404 c 0
 509 255 342 212 168 195 c 1
 170 112 212 84 270 84 c 0
 318 84 360 99 408 133 c 1
 457 53 l 1
 399 12 333 -15 256 -15 c 0
 112 -15 38 71 38 205 c 0
 38 349 113 544 326 544 c 0xf4
173 278 m 1
 315 292 379 332 379 398 c 0
 379 422 366 453 317 453 c 0
 227 453 187 364 173 278 c 1
EndSplineSet
Substitution2: "'smcp' Lowercase to Small Capitals lookup 28 subtable" edieresis.sc
Substitution2: "'aalt' Access All Alternates lookup 0 subtable" edieresis.sc
EndChar

StartChar: igrave
Encoding: 236 236 183
Width: 279
GlyphClass: 2
Flags: MW
HStem: 0 21G<39 166 39 39> 509 20G<113 240 240 240> 675 20G<338 338>
VStem: 39 299
AnchorPoint: "Anchor-11" 0 0 basechar 0
AnchorPoint: "Anchor-10" 0 0 basechar 0
AnchorPoint: "Anchor-9" 176 529 basechar 0
AnchorPoint: "Anchor-8" 162 0 basechar 0
LayerCount: 2
Fore
SplineSet
338 695 m 1
 294 630 l 1
 84 720 l 1
 149 820 l 1
 338 695 l 1
166 0 m 1
 39 0 l 1
 113 529 l 1
 240 529 l 1
 166 0 l 1
EndSplineSet
Substitution2: "'smcp' Lowercase to Small Capitals lookup 24 subtable" igrave.sc
Substitution2: "'aalt' Access All Alternates lookup 0 subtable" igrave.sc
EndChar

StartChar: iacute
Encoding: 237 237 178
Width: 279
GlyphClass: 2
Flags: MW
HStem: 0 21G<39 166 39 39> 509 20G<113 240 240 240>
VStem: 39 283
AnchorPoint: "Anchor-11" 0 0 basechar 0
AnchorPoint: "Anchor-10" 0 0 basechar 0
AnchorPoint: "Anchor-9" 176 529 basechar 0
AnchorPoint: "Anchor-8" 162 0 basechar 0
LayerCount: 2
Fore
SplineSet
322 720 m 1
 88 630 l 1
 61 695 l 1
 284 820 l 1
 322 720 l 1
166 0 m 1
 39 0 l 1
 113 529 l 1
 240 529 l 1
 166 0 l 1
EndSplineSet
Substitution2: "'smcp' Lowercase to Small Capitals lookup 24 subtable" iacute.sc
Substitution2: "'aalt' Access All Alternates lookup 0 subtable" iacute.sc
EndChar
StartChar: icircumflex
Encoding: 238 238 482
Width: 278
GlyphClass: 2
Flags: MW
HStem: 0 21G<39 165 39 39> 509 20G<113 239 239 239>
VStem: 18 352<682 682>
AnchorPoint: "Anchor-14" 0 0 basechar 0
AnchorPoint: "Anchor-13" 0 0 basechar 0
AnchorPoint: "Anchor-12" 210 808 basechar 0
AnchorPoint: "Anchor-11" 141 0 basechar 0
AnchorPoint: "Anchor-10" 102 0 basechar 0
LayerCount: 2
Back
Fore
SplineSet
62 627 m 1
 18 682 l 1
 172 808 l 1
 251 808 l 1
 370 682 l 1
 316 627 l 1
 201 715 l 1
 62 627 l 1
239 529 m 1
 165 0 l 1
 39 0 l 1
 113 529 l 1
 239 529 l 1
EndSplineSet
Substitution2: "'smcp' Lowercase to Small Capitals lookup 28 subtable" icircumflex.sc
Substitution2: "'aalt' Access All Alternates lookup 0 subtable" icircumflex.sc
EndChar

StartChar: idieresis
Encoding: 239 239 181
Width: 279
GlyphClass: 2
Flags: MW
HStem: 0 21G<39 166 39 39> 509 20G<113 240 240 240> 647 138<75.5 100.5 294.5 319>
VStem: 19 137 238 137
AnchorPoint: "Anchor-11" 0 0 basechar 0
AnchorPoint: "Anchor-10" 0 0 basechar 0
AnchorPoint: "Anchor-9" 196 711 basechar 0
AnchorPoint: "Anchor-8" 162 0 basechar 0
LayerCount: 2
Fore
SplineSet
94 785 m 0
 135 785 162 752 156 712 c 0
 151 675 119 647 82 647 c 0
 41 647 14 680 19 720 c 0
 24 757 57 785 94 785 c 0
313 785 m 0
 354 785 381 752 375 712 c 0
 370 675 338 647 300 647 c 0
 260 647 233 680 238 720 c 0
 243 757 276 785 313 785 c 0
166 0 m 1
 39 0 l 1
 113 529 l 1
 240 529 l 1
 166 0 l 1
EndSplineSet
Substitution2: "'smcp' Lowercase to Small Capitals lookup 24 subtable" idieresis.sc
Substitution2: "'aalt' Access All Alternates lookup 0 subtable" idieresis.sc
EndChar

StartChar: eth
Encoding: 240 240 154
Width: 567
GlyphClass: 2
Flags: MW
HStem: -15 96<222.5 285.5 222.5 318> 384 93<240 301 186.5 318> 553 20G<173 173> 734 20G<186 186>
VStem: 35 129<152 229 152 254.5> 399 129
LayerCount: 2
Fore
SplineSet
400 664 m 1
 491 590 528 496 528 376 c 0
 528 342 526 306 520 267 c 0
 497 103 394 -15 242 -15 c 0
 123 -15 35 60 35 192 c 0
 35 317 102 477 271 477 c 0
 331 477 374 457 405 424 c 1
 397 494 375 547 323 595 c 1
 250 533 l 1
 173 573 l 1
 246 639 l 1
 213 652 184 660 152 666 c 1
 186 754 l 1
 236 744 279 732 325 710 c 1
 408 788 l 1
 468 728 l 1
 400 664 l 1
249 81 m 0
 322 81 375 147 392 265 c 0
 395 286 397 307 399 327 c 1
 376 365 342 384 294 384 c 0
 186 384 164 269 164 189 c 0
 164 115 196 81 249 81 c 0
EndSplineSet
Substitution2: "'smcp' Lowercase to Small Capitals lookup 24 subtable" eth.sc
Substitution2: "'aalt' Access All Alternates lookup 0 subtable" eth.sc
EndChar
StartChar: ntilde
Encoding: 241 241 550
Width: 573
GlyphClass: 2
Flags: MW
HStem: 0 21G<39 165 39 39 339 465 339 339> 439 105<362 362.5> 509 20G<113 222 222 222> 644 94<392.5 419.5 392.5 429> 691 93<283.5 311> 726 20G<533 533>
VStem: 39 494
AnchorPoint: "Anchor-14" 0 0 basechar 0
AnchorPoint: "Anchor-13" 0 0 basechar 0
AnchorPoint: "Anchor-12" 354 784 basechar 0
AnchorPoint: "Anchor-11" 0 0 basechar 0
AnchorPoint: "Anchor-10" 253 0 basechar 0
LayerCount: 2
Back
Fore
SplineSet
405 644 m 0xb2
 351 644 326 691 296 691 c 0
 271 691 254 673 234 644 c 1
 171 681 l 1
 202 738 247 784 301 784 c 0xaa
 358 784 377 738 408 738 c 0
 431 738 448 754 468 783 c 1xb2
 533 746 l 1xa6
 498 683 453 644 405 644 c 0xb2
399 544 m 0xc6
 485 544 533 482 518 378 c 2
 465 0 l 1
 339 0 l 1
 390 359 l 2
 399 422 378 439 347 439 c 0xc6
 295 439 247 378 207 303 c 1
 165 0 l 1
 39 0 l 1
 113 529 l 1
 222 529 l 1xa6
 217 431 l 1
 264 499 325 544 399 544 c 0xc6
EndSplineSet
Substitution2: "'smcp' Lowercase to Small Capitals lookup 28 subtable" ntilde.sc
Substitution2: "'aalt' Access All Alternates lookup 0 subtable" ntilde.sc
EndChar
StartChar: ograve
Encoding: 242 242 568
Width: 576
GlyphClass: 2
Flags: MW
HStem: -15 97<229.5 318.5 229.5 360> 447 97<257.5 346.5> 677 20G<486 486>
VStem: 39 130<158 243 158 278> 406 131<287 332>
AnchorPoint: "Anchor-14" 0 0 basechar 0
AnchorPoint: "Anchor-13" 523 529 basechar 0
AnchorPoint: "Anchor-12" 361 820 basechar 0
AnchorPoint: "Anchor-11" 0 0 basechar 0
AnchorPoint: "Anchor-10" 253 0 basechar 0
LayerCount: 2
Back
Fore
SplineSet
295 822 m 1
 486 697 l 1
 445 631 l 1
 232 720 l 1
 295 822 l 1
324 544 m 0
 461 544 537 458 537 322 c 0
 537 184 468 -15 252 -15 c 0
 115 -15 39 70 39 208 c 0
 39 348 109 544 324 544 c 0
317 447 m 0
 198 447 169 288 169 198 c 0
 169 118 200 82 259 82 c 0
 378 82 406 242 406 332 c 0
 407 412 376 447 317 447 c 0
EndSplineSet
Substitution2: "'smcp' Lowercase to Small Capitals lookup 28 subtable" ograve.sc
Substitution2: "'aalt' Access All Alternates lookup 0 subtable" ograve.sc
EndChar

StartChar: oacute
Encoding: 243 243 209
Width: 576
GlyphClass: 2
Flags: MW
HStem: -15 97<229.5 318.5 229.5 360> 447 97<257.5 346.5>
VStem: 39 130<158 243 158 278> 406 131<287 332>
AnchorPoint: "Anchor-11" 0 0 basechar 0
AnchorPoint: "Anchor-10" 0 0 basechar 0
AnchorPoint: "Anchor-9" 322 529 basechar 0
AnchorPoint: "Anchor-8" 0 0 basechar 0
LayerCount: 2
Fore
SplineSet
468 720 m 1
 234 630 l 1
 207 695 l 1
 430 820 l 1
 468 720 l 1
324 544 m 0
 461 544 537 458 537 322 c 0
 537 184 468 -15 252 -15 c 0
 115 -15 39 70 39 208 c 0
 39 348 109 544 324 544 c 0
317 447 m 0
 198 447 169 288 169 198 c 0
 169 118 200 82 259 82 c 0
 378 82 406 242 406 332 c 1
 407 412 376 447 317 447 c 0
EndSplineSet
Substitution2: "'smcp' Lowercase to Small Capitals lookup 24 subtable" oacute.sc
Substitution2: "'locl' Localized Forms in Latin lookup 7 subtable" oacute.loclPLK
AlternateSubs2: "'aalt' Access All Alternates lookup 1 subtable" oacute.loclPLK oacute.sc
EndChar

StartChar: otilde
Encoding: 245 245 218
Width: 576
GlyphClass: 2
Flags: MW
HStem: -15 97<229.5 318.5 229.5 360> 447 97<257.5 346.5> 644 94<388.5 415.5 388.5 425> 691 93<279.5 307> 726 20G<529 529>
VStem: 39 130<158 243 158 278> 406 131<287 332>
AnchorPoint: "Anchor-11" 0 0 basechar 0
AnchorPoint: "Anchor-10" 0 0 basechar 0
AnchorPoint: "Anchor-9" 322 529 basechar 0
AnchorPoint: "Anchor-8" 0 0 basechar 0
LayerCount: 2
Fore
SplineSet
401 644 m 0xe6
 347 644 322 691 292 691 c 0
 267 691 250 673 230 644 c 1
 167 681 l 1
 198 738 243 784 297 784 c 0xd6
 354 784 373 738 404 738 c 0
 427 738 444 754 464 783 c 1xe6
 529 746 l 1xce
 494 683 449 644 401 644 c 0xe6
324 544 m 0xce
 461 544 537 458 537 322 c 0
 537 184 468 -15 252 -15 c 0
 115 -15 39 70 39 208 c 0
 39 348 109 544 324 544 c 0xce
317 447 m 0
 198 447 169 288 169 198 c 0
 169 118 200 82 259 82 c 0
 378 82 406 242 406 332 c 1
 407 412 376 447 317 447 c 0
EndSplineSet
Substitution2: "'smcp' Lowercase to Small Capitals lookup 24 subtable" otilde.sc
Substitution2: "'aalt' Access All Alternates lookup 0 subtable" otilde.sc
EndChar
StartChar: odieresis
Encoding: 246 246 563
Width: 576
GlyphClass: 2
Flags: MW
HStem: -15 97<229.5 318.5 229.5 360> 447 97<257.5 346.5> 647 138<226 252 445 470.5>
VStem: 39 130<158 243 158 278> 170 137 389 137 406 131<287 332>
AnchorPoint: "Anchor-14" 0 0 basechar 0
AnchorPoint: "Anchor-13" 523 529 basechar 0
AnchorPoint: "Anchor-12" 351 785 basechar 0
AnchorPoint: "Anchor-11" 0 0 basechar 0
AnchorPoint: "Anchor-10" 253 0 basechar 0
LayerCount: 2
Back
Fore
SplineSet
245 785 m 0xec
 286 785 313 752 307 712 c 0
 302 675 271 647 233 647 c 0
 192 647 165 680 170 720 c 0
 175 757 207 785 245 785 c 0xec
464 785 m 0
 505 785 532 752 526 712 c 0
 521 675 490 647 451 647 c 0
 411 647 384 680 389 720 c 0
 394 757 426 785 464 785 c 0
324 544 m 0xd2
 461 544 537 458 537 322 c 0
 537 184 468 -15 252 -15 c 0
 115 -15 39 70 39 208 c 0
 39 348 109 544 324 544 c 0xd2
317 447 m 0
 198 447 169 288 169 198 c 0
 169 118 200 82 259 82 c 0
 378 82 406 242 406 332 c 0
 407 412 376 447 317 447 c 0
EndSplineSet
Substitution2: "'smcp' Lowercase to Small Capitals lookup 28 subtable" odieresis.sc
Substitution2: "'aalt' Access All Alternates lookup 0 subtable" odieresis.sc
EndChar

StartChar: divide
Encoding: 247 247 1091
Width: 502
Flags: MW
HStem: 16 162<211.5 243> 281 102<70 451 55 466> 487 162<277 309>
VStem: 147 160<81.5 113.5> 213 160<552 584>
LayerCount: 2
Fore
SplineSet
301 649 m 0x68
 343 649 373 617 373 576 c 0
 373 528 333 487 285 487 c 0
 242 487 213 520 213 560 c 0
 213 608 253 649 301 649 c 0x68
70 383 m 1
 466 383 l 1
 451 281 l 1
 55 281 l 1
 70 383 l 1
235 178 m 0xd0
 278 178 307 146 307 106 c 0
 307 57 267 16 219 16 c 0
 177 16 147 49 147 90 c 0
 147 137 188 178 235 178 c 0xd0
EndSplineSet
Substitution2: "'onum' Oldstyle Figures lookup 22 subtable" divide.osf
Substitution2: "'tnum' Tabular Numbers lookup 21 subtable" divide.tf
AlternateSubs2: "'aalt' Access All Alternates lookup 1 subtable" divide.tf divide.osf
EndChar
StartChar: oslash
Encoding: 248 248 586
Width: 576
GlyphClass: 2
Flags: MW
HStem: -15 97<256 320.5 256 360> -11 21G<208 208> 447 97<255.5 320.5> 520 20G<368 368>
VStem: 39 123<179 243 179 278> 413 124<285.5 348.5>
AnchorPoint: "Anchor-14" 0 0 basechar 0
AnchorPoint: "Anchor-13" 0 0 basechar 0
AnchorPoint: "Anchor-12" 325 529 basechar 0
AnchorPoint: "Anchor-11" 0 0 basechar 0
AnchorPoint: "Anchor-10" 258 0 basechar 0
LayerCount: 2
Back
Fore
SplineSet
155 -133 m 1xac
 62 -104 l 1
 121 23 l 1
 67 61 39 126 39 208 c 0
 39 348 109 544 324 544 c 0xac
 340 544 354 543 368 540 c 1
 422 662 l 1
 516 633 l 1
 456 506 l 1
 509 468 537 403 537 322 c 0
 537 184 468 -15 252 -15 c 0x9c
 236 -15 222 -14 208 -11 c 1x6c
 155 -133 l 1xac
183 114 m 1
 338 445 l 1
 332 446 324 447 317 447 c 0
 194 447 162 287 162 199 c 0
 162 159 169 131 183 114 c 1
260 82 m 0
 381 82 413 242 413 329 c 0
 413 368 406 395 393 412 c 1
 239 84 l 1
 245 83 252 82 260 82 c 0
EndSplineSet
Substitution2: "'smcp' Lowercase to Small Capitals lookup 28 subtable" oslash.sc
Substitution2: "'aalt' Access All Alternates lookup 0 subtable" oslash.sc
EndChar
StartChar: ugrave
Encoding: 249 249 670
Width: 569
GlyphClass: 2
Flags: MW
HStem: -15 101<209 216> 0 21G<347 456 347 347> 509 20G<108 234 234 234 404 530 530 530> 677 20G<484 484>
VStem: 52.41 129.36
AnchorPoint: "Anchor-14" 0 0 basechar 0
AnchorPoint: "Anchor-13" 540 529 basechar 0
AnchorPoint: "Anchor-12" 359 820 basechar 0
AnchorPoint: "Anchor-11" 464 0 basechar 0
AnchorPoint: "Anchor-10" 251 0 basechar 0
LayerCount: 2
Back
Fore
SplineSet
293 822 m 1x78
 484 697 l 1
 443 631 l 1
 230 720 l 1
 293 822 l 1x78
530 529 m 1
 456 0 l 1
 347 0 l 1x78
 352 87 l 1
 305 25 251 -15 181 -15 c 0
 84 -15 41 49 55 152 c 2
 108 529 l 1
 234 529 l 1
 184 167 l 2
 175 105 191 86 227 86 c 0xb8
 278 86 321 137 356 190 c 1
 404 529 l 1
 530 529 l 1
EndSplineSet
Substitution2: "'smcp' Lowercase to Small Capitals lookup 28 subtable" ugrave.sc
Substitution2: "'aalt' Access All Alternates lookup 0 subtable" ugrave.sc
EndChar
StartChar: uacute
Encoding: 250 250 658
Width: 569
GlyphClass: 2
Flags: MW
HStem: -15 101<209 216> 0 21G<347 456 347 347> 509 20G<108 234 234 234 404 530 530 530>
VStem: 52.41 129.36
AnchorPoint: "Anchor-14" 0 0 basechar 0
AnchorPoint: "Anchor-13" 540 529 basechar 0
AnchorPoint: "Anchor-12" 349 820 basechar 0
AnchorPoint: "Anchor-11" 464 0 basechar 0
AnchorPoint: "Anchor-10" 251 0 basechar 0
LayerCount: 2
Back
Fore
SplineSet
439 820 m 1x70
 477 720 l 1
 243 630 l 1
 216 695 l 1
 439 820 l 1x70
530 529 m 1
 456 0 l 1
 347 0 l 1x70
 352 87 l 1
 305 25 251 -15 181 -15 c 0
 84 -15 41 49 55 152 c 2
 108 529 l 1
 234 529 l 1
 184 167 l 2
 175 105 191 86 227 86 c 0xb0
 278 86 321 137 356 190 c 1
 404 529 l 1
 530 529 l 1
EndSplineSet
Substitution2: "'smcp' Lowercase to Small Capitals lookup 28 subtable" uacute.sc
Substitution2: "'aalt' Access All Alternates lookup 0 subtable" uacute.sc
EndChar

StartChar: ucircumflex
Encoding: 251 251 242
Width: 569
GlyphClass: 2
Flags: MW
HStem: -15 101<209 216> 0 21G<347 456 347 347> 509 20G<108 234 234 234 404 530 530 530>
VStem: 52.41 129.36
AnchorPoint: "Anchor-11" 0 0 basechar 0
AnchorPoint: "Anchor-10" 0 0 basechar 0
AnchorPoint: "Anchor-9" 321 529 basechar 0
AnchorPoint: "Anchor-8" 464 0 basechar 0
LayerCount: 2
Fore
SplineSet
166 682 m 1x70
 320 808 l 1
 399 808 l 1
 518 682 l 1
 464 627 l 1
 349 715 l 1
 210 627 l 1
 166 682 l 1x70
456 0 m 1
 347 0 l 1x70
 352 87 l 1
 305 25 251 -15 181 -15 c 0
 84 -15 41 49 55 152 c 2
 108 529 l 1
 234 529 l 1
 184 167 l 2
 175 105 191 86 227 86 c 0xb0
 278 86 321 137 356 190 c 1
 404 529 l 1
 530 529 l 1
 456 0 l 1
EndSplineSet
Substitution2: "'smcp' Lowercase to Small Capitals lookup 24 subtable" ucircumflex.sc
Substitution2: "'aalt' Access All Alternates lookup 0 subtable" ucircumflex.sc
EndChar
StartChar: udieresis
Encoding: 252 252 664
Width: 569
GlyphClass: 2
Flags: MW
HStem: -15 101<209 216> 0 21G<347 456 347 347> 509 20G<108 234 234 234 404 530 530 530> 647 138<223 249 442 467.5>
VStem: 52.41 129.36 167 137 386 137
AnchorPoint: "Anchor-14" 0 0 basechar 0
AnchorPoint: "Anchor-13" 540 529 basechar 0
AnchorPoint: "Anchor-12" 348 785 basechar 0
AnchorPoint: "Anchor-11" 464 0 basechar 0
AnchorPoint: "Anchor-10" 251 0 basechar 0
LayerCount: 2
Back
Fore
SplineSet
242 785 m 0x76
 283 785 310 752 304 712 c 0
 299 675 268 647 230 647 c 0
 189 647 162 680 167 720 c 0
 172 757 204 785 242 785 c 0x76
461 785 m 0
 502 785 529 752 523 712 c 0
 518 675 487 647 448 647 c 0
 408 647 381 680 386 720 c 0
 391 757 423 785 461 785 c 0
530 529 m 1
 456 0 l 1
 347 0 l 1x78
 352 87 l 1
 305 25 251 -15 181 -15 c 0
 84 -15 41 49 55 152 c 2
 108 529 l 1
 234 529 l 1
 184 167 l 2
 175 105 191 86 227 86 c 0xb8
 278 86 321 137 356 190 c 1
 404 529 l 1
 530 529 l 1
EndSplineSet
Substitution2: "'smcp' Lowercase to Small Capitals lookup 28 subtable" udieresis.sc
Substitution2: "'aalt' Access All Alternates lookup 0 subtable" udieresis.sc
EndChar
StartChar: yacute
Encoding: 253 253 700
Width: 498
GlyphClass: 2
Flags: MW
HStem: -218 21G<-9 -9> 0 21G<130 130> 509 20G<38 170 170 170 402 534 534 534>
VStem: -13 547
AnchorPoint: "Anchor-14" 0 0 basechar 0
AnchorPoint: "Anchor-13" 0 0 basechar 0
AnchorPoint: "Anchor-12" 316 820 basechar 0
AnchorPoint: "Anchor-11" 0 0 basechar 0
AnchorPoint: "Anchor-10" 196 -206 basechar 0
LayerCount: 2
Back
Fore
SplineSet
406 820 m 1
 444 720 l 1
 210 630 l 1
 183 695 l 1
 406 820 l 1
534 529 m 1
 295 -3 l 2
 240 -128 147 -206 -9 -218 c 1
 -13 -125 l 1
 93 -109 135 -74 177 2 c 1
 130 0 l 1
 38 529 l 1
 170 529 l 1
 223 88 l 1
 402 529 l 1
 534 529 l 1
EndSplineSet
Substitution2: "'smcp' Lowercase to Small Capitals lookup 28 subtable" yacute.sc
Substitution2: "'aalt' Access All Alternates lookup 0 subtable" yacute.sc
EndChar
StartChar: thorn
Encoding: 254 254 598
Width: 585
GlyphClass: 2
Flags: MW
HStem: -220 21G<7 7> -15 96<241.5 314 241.5 366> 448 96<354 357> 735 20G<270 270>
VStem: 412 131<285 380.5>
LayerCount: 2
Back
Fore
SplineSet
381 544 m 0
 485 544 543 469 543 337 c 0
 543 186 473 -15 259 -15 c 0
 224 -15 190 -8 164 3 c 1
 135 -205 l 1
 7 -220 l 1
 143 741 l 1
 270 755 l 1
 232 481 l 1
 275 521 327 544 381 544 c 0
257 81 m 0
 371 81 412 231 412 339 c 0
 412 422 379 448 335 448 c 0
 289 448 252 418 218 379 c 1
 179 96 l 1
 205 86 226 81 257 81 c 0
EndSplineSet
Substitution2: "'smcp' Lowercase to Small Capitals lookup 28 subtable" thorn.sc
Substitution2: "'aalt' Access All Alternates lookup 0 subtable" thorn.sc
EndChar

StartChar: Amacron
Encoding: 256 256 7
Width: 574
GlyphClass: 2
Flags: MW
HStem: 0 21G<-42 94 -42 -42 405 405 405 542> 160 100<198 373 198 385 158 373> 595 96<332 332> 671 20G<267 428 428 428> 787 91<230 505 217 517>
VStem: -42 584<0 0>
AnchorPoint: "Anchor-11" 0 0 basechar 0
AnchorPoint: "Anchor-10" 118 529 basechar 0
AnchorPoint: "Anchor-9" 348 691 basechar 0
AnchorPoint: "Anchor-8" 493 0 basechar 0
LayerCount: 2
Fore
SplineSet
505 787 m 1xdc
 217 787 l 1
 230 878 l 1
 517 878 l 1
 505 787 l 1xdc
385 160 m 1
 158 160 l 1
 94 0 l 1
 -42 0 l 1
 267 691 l 1
 428 691 l 1
 542 0 l 1
 405 0 l 1
 385 160 l 1
373 260 m 1
 332 595 l 1xec
 198 260 l 1
 373 260 l 1
EndSplineSet
Substitution2: "'c2sc' Capitals to Small Capitals lookup 23 subtable" amacron.sc
Substitution2: "'aalt' Access All Alternates lookup 0 subtable" amacron.sc
Position2: "'cpsp' Capital Spacing lookup 0 subtable" dx=5 dy=0 dh=10 dv=0
EndChar

StartChar: Abreve
Encoding: 258 258 3
Width: 574
GlyphClass: 2
Flags: MW
HStem: 0 21G<-42 94 -42 -42 405 405 405 542> 160 100<198 373 198 385 158 373> 595 96<332 332> 671 20G<267 428 428 428> 754 92<333 378.5 333 395.5>
VStem: -42 584<0 0>
AnchorPoint: "Anchor-11" 0 0 basechar 0
AnchorPoint: "Anchor-10" 118 529 basechar 0
AnchorPoint: "Anchor-9" 348 691 basechar 0
AnchorPoint: "Anchor-8" 493 0 basechar 0
LayerCount: 2
Fore
SplineSet
350 754 m 0xdc
 256 754 204 821 208 901 c 1
 281 911 l 1
 288 872 311 846 355 846 c 0
 402 846 436 875 453 914 c 1
 528 896 l 1
 509 816 441 754 350 754 c 0xdc
385 160 m 1
 158 160 l 1
 94 0 l 1
 -42 0 l 1
 267 691 l 1
 428 691 l 1
 542 0 l 1
 405 0 l 1
 385 160 l 1
373 260 m 1
 332 595 l 1xec
 198 260 l 1
 373 260 l 1
EndSplineSet
Substitution2: "'c2sc' Capitals to Small Capitals lookup 23 subtable" abreve.sc
Substitution2: "'aalt' Access All Alternates lookup 0 subtable" abreve.sc
Position2: "'cpsp' Capital Spacing lookup 0 subtable" dx=5 dy=0 dh=10 dv=0
EndChar

StartChar: abreve
Encoding: 259 259 136
Width: 571
GlyphClass: 2
Flags: MW
HStem: -15 97<221 240.5> 450 94<270.5 344> 637 92<338.5 384.5 338.5 400.5>
VStem: 36 133<152 247 152 266.5> 213 76<794 804>
AnchorPoint: "Anchor-11" 0 0 basechar 0
AnchorPoint: "Anchor-10" 0 0 basechar 0
AnchorPoint: "Anchor-9" 337 529 basechar 0
AnchorPoint: "Anchor-8" 482 -13 basechar 0
LayerCount: 2
Fore
SplineSet
355 637 m 0
 261 637 209 704 213 794 c 1
 289 804 l 1
 295 755 316 729 361 729 c 0
 408 729 443 759 462 808 c 1
 534 789 l 1
 514 699 446 637 355 637 c 0
330 544 m 0
 397 544 463 530 535 493 c 1
 481 138 l 2
 480 129 479 122 479 116 c 0
 479 89 490 79 510 71 c 1
 474 -13 l 1
 418 -7 376 18 364 75 c 1
 326 22 274 -15 207 -15 c 0
 95 -15 36 67 36 192 c 0
 36 341 115 544 330 544 c 0
329 450 m 0
 212 450 169 302 169 192 c 0
 169 112 198 82 244 82 c 0
 290 82 326 116 361 166 c 1
 402 436 l 1
 377 446 359 450 329 450 c 0
EndSplineSet
Substitution2: "'smcp' Lowercase to Small Capitals lookup 24 subtable" abreve.sc
Substitution2: "'aalt' Access All Alternates lookup 0 subtable" abreve.sc
EndChar

StartChar: Aogonek
Encoding: 260 260 8
Width: 574
GlyphClass: 2
Flags: MW
HStem: -239 85<378.5 384.5> 0 21G<-42 94 -42 -42 485 542 485 485> 160 100<198 373 198 385 158 373> 595 96<332 332> 671 20G<267 428 428 428>
VStem: 248 100<-130.5 -109.5>
AnchorPoint: "Anchor-11" 0 0 basechar 0
AnchorPoint: "Anchor-10" 118 529 basechar 0
AnchorPoint: "Anchor-9" 348 691 basechar 0
AnchorPoint: "Anchor-8" 493 0 basechar 0
LayerCount: 2
Fore
SplineSet
485 0 m 1xec
 364 -47 348 -91 348 -119 c 0
 348 -142 364 -154 393 -154 c 0
 414 -154 433 -151 456 -146 c 1
 437 -232 l 1
 417 -236 397 -239 372 -239 c 0
 297 -239 248 -198 248 -139 c 0
 248 -80 285 -21 402 23 c 1
 385 160 l 1
 158 160 l 1
 94 0 l 1
 -42 0 l 1
 267 691 l 1
 428 691 l 1
 542 0 l 1
 485 0 l 1xec
373 260 m 1
 332 595 l 1xf4
 198 260 l 1
 373 260 l 1
EndSplineSet
Substitution2: "'c2sc' Capitals to Small Capitals lookup 23 subtable" aogonek.sc
Substitution2: "'aalt' Access All Alternates lookup 0 subtable" aogonek.sc
Position2: "'cpsp' Capital Spacing lookup 0 subtable" dx=5 dy=0 dh=10 dv=0
EndChar

StartChar: aogonek
Encoding: 261 261 141
Width: 571
GlyphClass: 2
Flags: MW
HStem: -252 85<366.5 372.5> -15 97<221 240.5> 450 94<270.5 344>
VStem: 36 133<152 247 152 266.5> 236 100<-143.5 -121.5>
AnchorPoint: "Anchor-11" 0 0 basechar 0
AnchorPoint: "Anchor-10" 0 0 basechar 0
AnchorPoint: "Anchor-9" 337 529 basechar 0
AnchorPoint: "Anchor-8" 482 -13 basechar 0
LayerCount: 2
Fore
SplineSet
479 116 m 0
 479 89 490 79 510 71 c 1
 474 -13 l 1
 473 -13 l 1
 352 -60 336 -104 336 -132 c 0
 336 -155 352 -167 381 -167 c 0
 402 -167 421 -164 444 -159 c 1
 425 -245 l 1
 405 -249 385 -252 360 -252 c 0
 285 -252 236 -211 236 -152 c 0
 236 -91 275 -31 400 14 c 1
 382 28 370 48 364 75 c 1
 326 22 274 -15 207 -15 c 0
 95 -15 36 67 36 192 c 0
 36 341 115 544 330 544 c 0
 397 544 463 530 535 493 c 1
 481 138 l 2
 480 129 479 122 479 116 c 0
402 436 m 1
 377 446 359 450 329 450 c 0
 212 450 169 302 169 192 c 0
 169 112 198 82 244 82 c 0
 290 82 326 116 361 166 c 1
 402 436 l 1
EndSplineSet
Substitution2: "'smcp' Lowercase to Small Capitals lookup 24 subtable" aogonek.sc
Substitution2: "'aalt' Access All Alternates lookup 0 subtable" aogonek.sc
EndChar

StartChar: cacute
Encoding: 263 263 148
Width: 471
GlyphClass: 2
Flags: MW
HStem: -15 104<236 283.5> 443 101<262.5 341>
VStem: 38 132<160 250.5 160 277>
AnchorPoint: "Anchor-11" 241 0 basechar 0
AnchorPoint: "Anchor-10" 0 0 basechar 0
AnchorPoint: "Anchor-9" 323 529 basechar 0
AnchorPoint: "Anchor-8" 0 0 basechar 0
LayerCount: 2
Fore
SplineSet
469 720 m 1
 235 630 l 1
 208 695 l 1
 431 820 l 1
 469 720 l 1
321 544 m 0
 385 544 440 524 484 481 c 1
 420 405 l 1
 389 433 360 443 322 443 c 0
 203 443 170 300 170 201 c 0
 170 119 207 89 265 89 c 0
 306 89 337 103 377 128 c 1
 426 43 l 1
 373 6 316 -15 251 -15 c 0
 116 -15 38 70 38 208 c 0
 38 346 115 544 321 544 c 0
EndSplineSet
Substitution2: "'smcp' Lowercase to Small Capitals lookup 24 subtable" cacute.sc
Substitution2: "'locl' Localized Forms in Latin lookup 7 subtable" cacute.loclPLK
AlternateSubs2: "'aalt' Access All Alternates lookup 1 subtable" cacute.loclPLK cacute.sc
EndChar

StartChar: Ccircumflex
Encoding: 264 264 18
Width: 561
GlyphClass: 2
Flags: MW
HStem: -15 106<280 350.5 280 352.5> 604 102<317.5 421.5>
VStem: 49 136<203 333.5 203 362.5>
AnchorPoint: "Anchor-11" 303 0 basechar 0
AnchorPoint: "Anchor-10" 0 0 basechar 0
AnchorPoint: "Anchor-9" 407 691 basechar 0
AnchorPoint: "Anchor-8" 0 0 basechar 0
LayerCount: 2
Fore
SplineSet
435 840 m 1
 296 757 l 1
 252 812 l 1
 405 933 l 1
 484 933 l 1
 604 812 l 1
 552 757 l 1
 435 840 l 1
394 706 m 0
 480 706 542 678 591 629 c 1
 516 556 l 1
 481 589 444 604 399 604 c 0
 236 604 185 402 185 265 c 0
 185 141 240 91 320 91 c 0
 381 91 426 120 468 150 c 1
 521 67 l 1
 472 25 398 -15 307 -15 c 0
 150 -15 49 84 49 269 c 0
 49 456 144 706 394 706 c 0
EndSplineSet
Substitution2: "'c2sc' Capitals to Small Capitals lookup 23 subtable" ccircumflex.sc
Substitution2: "'aalt' Access All Alternates lookup 0 subtable" ccircumflex.sc
Position2: "'cpsp' Capital Spacing lookup 0 subtable" dx=5 dy=0 dh=10 dv=0
EndChar
StartChar: Cdotaccent
Encoding: 266 266 47
Width: 560
GlyphClass: 2
Flags: MW
HStem: -15 106<280 350.5 280 352.5> 604 102<317 421> 768 155<415.5 446>
VStem: 49 136<203 333.5 203 362.5> 352 157
AnchorPoint: "Anchor-14" 0 0 basechar 0
AnchorPoint: "Anchor-13" 0 0 basechar 0
AnchorPoint: "Anchor-12" 438 923 basechar 0
AnchorPoint: "Anchor-11" 0 0 basechar 0
AnchorPoint: "Anchor-10" 303 0 basechar 0
LayerCount: 2
Back
Fore
SplineSet
438 923 m 0
 488 923 515 887 509 841 c 0
 503 799 469 768 423 768 c 0
 374 768 346 804 352 849 c 0
 358 892 393 923 438 923 c 0
394 706 m 0
 480 706 542 678 591 629 c 1
 517 556 l 1
 481 589 444 604 398 604 c 0
 236 604 185 402 185 265 c 0
 185 141 240 91 320 91 c 0
 381 91 426 120 468 150 c 1
 521 67 l 1
 472 25 398 -15 307 -15 c 0
 150 -15 49 84 49 269 c 0
 49 456 144 706 394 706 c 0
EndSplineSet
Substitution2: "'c2sc' Capitals to Small Capitals lookup 27 subtable" cdotaccent.sc
Substitution2: "'aalt' Access All Alternates lookup 0 subtable" cdotaccent.sc
Position2: "'cpsp' Capital Spacing lookup 0 subtable" dx=5 dy=0 dh=10 dv=0
EndChar
StartChar: cdotaccent
Encoding: 267 267 386
Width: 471
GlyphClass: 2
Flags: MW
HStem: -15 104<236 283.5> 443 101<263 341.5> 642 155<335 365>
VStem: 38 133<160 250.5 160 277> 271 158
AnchorPoint: "Anchor-14" 0 0 basechar 0
AnchorPoint: "Anchor-13" 0 0 basechar 0
AnchorPoint: "Anchor-12" 360 797 basechar 0
AnchorPoint: "Anchor-11" 0 0 basechar 0
AnchorPoint: "Anchor-10" 241 0 basechar 0
LayerCount: 2
Back
Fore
SplineSet
358 797 m 0
 407 797 435 761 429 715 c 0
 423 673 388 642 342 642 c 0
 294 642 265 678 271 723 c 0
 277 766 312 797 358 797 c 0
322 544 m 0
 385 544 440 524 484 481 c 1
 420 405 l 1
 389 433 360 443 323 443 c 0
 203 443 171 300 171 201 c 0
 171 119 207 89 265 89 c 0
 306 89 337 103 378 128 c 1
 426 43 l 1
 373 6 316 -15 251 -15 c 0
 116 -15 38 70 38 208 c 0
 38 346 116 544 322 544 c 0
EndSplineSet
Substitution2: "'smcp' Lowercase to Small Capitals lookup 28 subtable" cdotaccent.sc
Substitution2: "'aalt' Access All Alternates lookup 0 subtable" cdotaccent.sc
EndChar
StartChar: Ccaron
Encoding: 268 268 44
Width: 560
GlyphClass: 2
Flags: MW
HStem: -15 106<280 350.5 280 352.5> 604 102<317 421>
VStem: 49 136<203 333.5 203 362.5>
AnchorPoint: "Anchor-14" 0 0 basechar 0
AnchorPoint: "Anchor-13" 0 0 basechar 0
AnchorPoint: "Anchor-12" 429 928 basechar 0
AnchorPoint: "Anchor-11" 0 0 basechar 0
AnchorPoint: "Anchor-10" 303 0 basechar 0
LayerCount: 2
Back
Fore
SplineSet
560 928 m 1
 603 872 l 1
 451 752 l 1
 372 752 l 1
 251 872 l 1
 304 928 l 1
 420 845 l 1
 560 928 l 1
394 706 m 0
 480 706 542 678 591 629 c 1
 517 556 l 1
 481 589 444 604 398 604 c 0
 236 604 185 402 185 265 c 0
 185 141 240 91 320 91 c 0
 381 91 426 120 468 150 c 1
 521 67 l 1
 472 25 398 -15 307 -15 c 0
 150 -15 49 84 49 269 c 0
 49 456 144 706 394 706 c 0
EndSplineSet
Substitution2: "'c2sc' Capitals to Small Capitals lookup 27 subtable" ccaron.sc
Substitution2: "'aalt' Access All Alternates lookup 0 subtable" ccaron.sc
Position2: "'cpsp' Capital Spacing lookup 0 subtable" dx=5 dy=0 dh=10 dv=0
EndChar
StartChar: ccaron
Encoding: 269 269 382
Width: 471
GlyphClass: 2
Flags: MW
HStem: -15 104<236 283.5> 443 101<263 341.5> 724 20G<173 173 525 525>
VStem: 38 133<160 250.5 160 277>
AnchorPoint: "Anchor-14" 0 0 basechar 0
AnchorPoint: "Anchor-13" 0 0 basechar 0
AnchorPoint: "Anchor-12" 351 800 basechar 0
AnchorPoint: "Anchor-11" 0 0 basechar 0
AnchorPoint: "Anchor-10" 241 0 basechar 0
LayerCount: 2
Back
Fore
SplineSet
483 800 m 1
 525 744 l 1
 372 619 l 1
 293 619 l 1
 173 744 l 1
 225 800 l 1
 340 712 l 1
 483 800 l 1
322 544 m 0
 385 544 440 524 484 481 c 1
 420 405 l 1
 389 433 360 443 323 443 c 0
 203 443 171 300 171 201 c 0
 171 119 207 89 265 89 c 0
 306 89 337 103 378 128 c 1
 426 43 l 1
 373 6 316 -15 251 -15 c 0
 116 -15 38 70 38 208 c 0
 38 346 116 544 322 544 c 0
EndSplineSet
Substitution2: "'smcp' Lowercase to Small Capitals lookup 28 subtable" ccaron.sc
Substitution2: "'aalt' Access All Alternates lookup 0 subtable" ccaron.sc
EndChar
StartChar: dcaron
Encoding: 271 271 393
Width: 630
GlyphClass: 2
Flags: MW
HStem: -15 97<223 243> 0 21G<365 477 365 365> 448 96<261 321 200.5 337> 732 20G<634 634> 733 20G<456 456>
VStem: 41 132<152.5 241 152.5 267.5>
AnchorPoint: "Anchor-14" 297 265 basechar 0
AnchorPoint: "Anchor-13" 592 741 basechar 0
AnchorPoint: "Anchor-12" 343 741 basechar 0
AnchorPoint: "Anchor-11" 0 0 basechar 0
AnchorPoint: "Anchor-10" 256 0 basechar 0
LayerCount: 2
Back
Fore
SplineSet
456 753 m 1xac
 581 740 l 1
 477 0 l 1
 365 0 l 1x6c
 366 81 l 1
 331 26 278 -15 208 -15 c 0
 97 -15 41 67 41 197 c 0
 41 338 107 544 294 544 c 0
 348 544 390 520 418 486 c 1
 456 753 l 1xac
634 752 m 1xb4
 734 740 l 1
 660 539 l 1
 592 547 l 1
 634 752 l 1xb4
317 448 m 0
 205 448 173 289 173 193 c 0
 173 112 201 82 245 82 c 0
 299 82 338 128 377 190 c 1
 407 398 l 1
 384 430 357 448 317 448 c 0
EndSplineSet
Substitution2: "'smcp' Lowercase to Small Capitals lookup 28 subtable" dcaron.sc
Substitution2: "'aalt' Access All Alternates lookup 0 subtable" dcaron.sc
EndChar

StartChar: Dcroat
Encoding: 272 272 23
Width: 650
GlyphClass: 2
Flags: MW
HStem: 0 99<197 241> 310 86<35 97 24 109 239 373> 592 99<266 316 316 328 266 266>
VStem: 491 134<356 499>
AnchorPoint: "Anchor-11" 0 0 basechar 0
AnchorPoint: "Anchor-10" 0 0 basechar 0
AnchorPoint: "Anchor-9" 365 691 basechar 0
AnchorPoint: "Anchor-8" 0 0 basechar 0
LayerCount: 2
Fore
SplineSet
316 691 m 2
 477 691 625 644 625 429 c 0
 625 206 526 0 241 0 c 2
 53 0 l 1
 97 310 l 1
 24 310 l 1
 35 396 l 1
 109 396 l 1
 150 691 l 1
 316 691 l 2
260 99 m 2
 440 99 491 282 491 430 c 0
 491 568 415 592 328 592 c 2
 266 592 l 1
 239 396 l 1
 385 396 l 1
 373 310 l 1
 227 310 l 1
 197 99 l 1
 260 99 l 2
EndSplineSet
Substitution2: "'c2sc' Capitals to Small Capitals lookup 23 subtable" dcroat.sc
Substitution2: "'aalt' Access All Alternates lookup 0 subtable" dcroat.sc
Position2: "'cpsp' Capital Spacing lookup 0 subtable" dx=5 dy=0 dh=10 dv=0
EndChar

StartChar: dcroat
Encoding: 273 273 156
Width: 601
GlyphClass: 2
Flags: MW
HStem: -15 97<225 245> 0 21G<367 479 367 367> 448 96<263 323 202.5 339> 601 82<299 436 299 448 575 632> 721 20G<583 583> 735 20G<458 458>
VStem: 43 132<152.5 241 152.5 267.5> 453 126
LayerCount: 2
Fore
SplineSet
632 601 m 1xb7
 563 601 l 1
 479 0 l 1
 367 0 l 1x77
 368 81 l 1
 333 26 280 -15 210 -15 c 0
 99 -15 43 67 43 197 c 0
 43 338 109 544 296 544 c 0
 350 544 392 520 420 486 c 1
 436 601 l 1
 299 601 l 1
 299 683 l 1
 448 683 l 1
 458 755 l 1xb7
 583 741 l 1xbb
 575 683 l 1
 643 683 l 1
 632 601 l 1xb7
408 398 m 1
 386 430 359 448 319 448 c 0
 207 448 175 289 175 193 c 0
 175 112 203 82 247 82 c 0xb7
 301 82 340 128 379 190 c 1
 408 398 l 1
EndSplineSet
Substitution2: "'smcp' Lowercase to Small Capitals lookup 24 subtable" dcroat.sc
Substitution2: "'aalt' Access All Alternates lookup 0 subtable" dcroat.sc
EndChar
StartChar: Emacron
Encoding: 274 274 83
Width: 523
GlyphClass: 2
Flags: MW
HStem: 0 99<188 443> 302 98<230 436 217 448> 593 98<257 509 257 257> 787 91<223 498 211 510>
VStem: 43 493
AnchorPoint: "Anchor-14" 0 0 basechar 0
AnchorPoint: "Anchor-13" 0 0 basechar 0
AnchorPoint: "Anchor-12" 362 878 basechar 0
AnchorPoint: "Anchor-11" 413 0 basechar 0
AnchorPoint: "Anchor-10" 244 0 basechar 0
LayerCount: 2
Back
Fore
SplineSet
498 787 m 1
 211 787 l 1
 223 878 l 1
 510 878 l 1
 498 787 l 1
536 691 m 1
 509 593 l 1
 257 593 l 1
 230 400 l 1
 448 400 l 1
 436 302 l 1
 217 302 l 1
 188 99 l 1
 457 99 l 1
 443 0 l 1
 43 0 l 1
 140 691 l 1
 536 691 l 1
EndSplineSet
Substitution2: "'c2sc' Capitals to Small Capitals lookup 27 subtable" emacron.sc
Substitution2: "'aalt' Access All Alternates lookup 0 subtable" emacron.sc
Position2: "'cpsp' Capital Spacing lookup 0 subtable" dx=5 dy=0 dh=10 dv=0
EndChar

StartChar: emacron
Encoding: 275 275 165
Width: 529
GlyphClass: 2
Flags: MW
HStem: -15 99<241 294 241 294.5> 453 91<272.5 341.5> 661 91<202 477 189 489>
VStem: 38 129 379 130<365.5 410>
AnchorPoint: "Anchor-11" 253 0 basechar 0
AnchorPoint: "Anchor-10" 0 0 basechar 0
AnchorPoint: "Anchor-9" 315 529 basechar 0
AnchorPoint: "Anchor-8" 378 8 basechar 0
LayerCount: 2
Fore
SplineSet
477 661 m 1
 189 661 l 1
 202 752 l 1
 489 752 l 1
 477 661 l 1
509 404 m 0
 509 255 341 212 167 194 c 1
 170 112 212 84 270 84 c 0
 318 84 360 99 408 133 c 1
 457 53 l 1
 399 12 333 -15 256 -15 c 0
 112 -15 38 71 38 205 c 0
 38 349 113 544 326 544 c 0
 447 544 509 479 509 404 c 0
173 279 m 1
 315 292 379 333 379 398 c 0
 379 422 366 453 317 453 c 0
 228 453 187 364 173 279 c 1
EndSplineSet
Substitution2: "'smcp' Lowercase to Small Capitals lookup 24 subtable" emacron.sc
Substitution2: "'aalt' Access All Alternates lookup 0 subtable" emacron.sc
EndChar

StartChar: Ebreve
Encoding: 276 276 26
Width: 523
GlyphClass: 2
Flags: MW
HStem: 0 99<188 443> 302 98<229 435 216 448> 593 98<257 508 257 257> 754 92<326 371.5 326 388.5>
VStem: 43 493
AnchorPoint: "Anchor-11" 243 0 basechar 0
AnchorPoint: "Anchor-10" 15 534 basechar 0
AnchorPoint: "Anchor-9" 341 691 basechar 0
AnchorPoint: "Anchor-8" 413 0 basechar 0
LayerCount: 2
Fore
SplineSet
343 754 m 0
 249 754 197 821 201 901 c 1
 274 911 l 1
 281 872 304 846 348 846 c 0
 395 846 429 875 446 914 c 1
 521 896 l 1
 502 816 434 754 343 754 c 0
508 593 m 1
 257 593 l 1
 229 400 l 1
 448 400 l 1
 435 302 l 1
 216 302 l 1
 188 99 l 1
 457 99 l 1
 443 0 l 1
 43 0 l 1
 140 691 l 1
 536 691 l 1
 508 593 l 1
EndSplineSet
Substitution2: "'c2sc' Capitals to Small Capitals lookup 23 subtable" ebreve.sc
Substitution2: "'aalt' Access All Alternates lookup 0 subtable" ebreve.sc
Position2: "'cpsp' Capital Spacing lookup 0 subtable" dx=5 dy=0 dh=10 dv=0
EndChar

StartChar: ebreve
Encoding: 277 277 159
Width: 529
GlyphClass: 2
Flags: MW
HStem: -15 99<241 294 241 294.5> 453 91<272.5 341.5> 637 92<315.5 361.5 315.5 377.5>
VStem: 38 129 190 76<794 804> 379 130<365.5 410>
AnchorPoint: "Anchor-11" 253 0 basechar 0
AnchorPoint: "Anchor-10" 0 0 basechar 0
AnchorPoint: "Anchor-9" 315 529 basechar 0
AnchorPoint: "Anchor-8" 378 8 basechar 0
LayerCount: 2
Fore
SplineSet
332 637 m 0
 238 637 186 704 190 794 c 1
 266 804 l 1
 272 755 293 729 338 729 c 0
 385 729 420 759 439 808 c 1
 511 789 l 1
 491 699 423 637 332 637 c 0
326 544 m 0
 447 544 509 479 509 404 c 0
 509 255 341 212 167 194 c 1
 170 112 212 84 270 84 c 0
 318 84 360 99 408 133 c 1
 457 53 l 1
 399 12 333 -15 256 -15 c 0
 112 -15 38 71 38 205 c 0xf4
 38 349 113 544 326 544 c 0
173 279 m 1
 315 292 379 333 379 398 c 0
 379 422 366 453 317 453 c 0
 228 453 187 364 173 279 c 1
EndSplineSet
Substitution2: "'smcp' Lowercase to Small Capitals lookup 24 subtable" ebreve.sc
Substitution2: "'aalt' Access All Alternates lookup 0 subtable" ebreve.sc
EndChar
StartChar: Edotaccent
Encoding: 278 278 78
Width: 523
GlyphClass: 2
Flags: MW
HStem: 0 99<188 443> 302 98<230 436 217 448> 593 98<257 509 257 257> 768 155<349.5 380>
VStem: 286 157
AnchorPoint: "Anchor-14" 0 0 basechar 0
AnchorPoint: "Anchor-13" 0 0 basechar 0
AnchorPoint: "Anchor-12" 372 923 basechar 0
AnchorPoint: "Anchor-11" 413 0 basechar 0
AnchorPoint: "Anchor-10" 244 0 basechar 0
LayerCount: 2
Back
Fore
SplineSet
372 923 m 0
 422 923 449 887 443 841 c 0
 437 799 403 768 357 768 c 0
 308 768 280 804 286 849 c 0
 292 892 327 923 372 923 c 0
536 691 m 1
 509 593 l 1
 257 593 l 1
 230 400 l 1
 448 400 l 1
 436 302 l 1
 217 302 l 1
 188 99 l 1
 457 99 l 1
 443 0 l 1
 43 0 l 1
 140 691 l 1
 536 691 l 1
EndSplineSet
Substitution2: "'c2sc' Capitals to Small Capitals lookup 27 subtable" edotaccent.sc
Substitution2: "'aalt' Access All Alternates lookup 0 subtable" edotaccent.sc
Position2: "'cpsp' Capital Spacing lookup 0 subtable" dx=5 dy=0 dh=10 dv=0
EndChar

StartChar: edotaccent
Encoding: 279 279 163
Width: 529
GlyphClass: 2
Flags: MW
HStem: -15 99<241 294 241 294.5> 453 91<272.5 341.5> 642 155<326 356>
VStem: 38 129 262 158 379 130<365.5 410>
AnchorPoint: "Anchor-11" 253 0 basechar 0
AnchorPoint: "Anchor-10" 0 0 basechar 0
AnchorPoint: "Anchor-9" 315 529 basechar 0
AnchorPoint: "Anchor-8" 378 8 basechar 0
LayerCount: 2
Fore
SplineSet
333 642 m 0xf8
 285 642 256 678 262 723 c 0
 268 766 303 797 349 797 c 0
 398 797 426 761 420 715 c 0
 414 673 379 642 333 642 c 0xf8
509 404 m 0xf4
 509 255 341 212 167 194 c 1
 170 112 212 84 270 84 c 0
 318 84 360 99 408 133 c 1
 457 53 l 1
 399 12 333 -15 256 -15 c 0
 112 -15 38 71 38 205 c 0
 38 349 113 544 326 544 c 0
 447 544 509 479 509 404 c 0xf4
173 279 m 1
 315 292 379 333 379 398 c 0
 379 422 366 453 317 453 c 0
 228 453 187 364 173 279 c 1
EndSplineSet
Substitution2: "'smcp' Lowercase to Small Capitals lookup 24 subtable" edotaccent.sc
Substitution2: "'aalt' Access All Alternates lookup 0 subtable" edotaccent.sc
EndChar
StartChar: Eogonek
Encoding: 280 280 84
Width: 523
GlyphClass: 2
Flags: MW
HStem: -239 85<298.5 304.5> 0 99<188 270 405 443 405 405> 302 98<230 436 217 448> 593 98<257 509 257 257>
VStem: 168 100<-130.5 -114.5>
AnchorPoint: "Anchor-14" 0 0 basechar 0
AnchorPoint: "Anchor-13" 0 0 basechar 0
AnchorPoint: "Anchor-12" 341 691 basechar 0
AnchorPoint: "Anchor-11" 413 0 basechar 0
AnchorPoint: "Anchor-10" 244 0 basechar 0
LayerCount: 2
Back
Fore
SplineSet
509 593 m 1
 257 593 l 1
 230 400 l 1
 448 400 l 1
 436 302 l 1
 217 302 l 1
 188 99 l 1
 457 99 l 1
 443 0 l 1
 405 0 l 1
 284 -47 268 -91 268 -119 c 0
 268 -142 284 -154 313 -154 c 0
 334 -154 353 -151 376 -146 c 1
 357 -232 l 1
 337 -236 317 -239 292 -239 c 0
 217 -239 168 -198 168 -139 c 0
 168 -90 194 -41 270 0 c 1
 43 0 l 1
 140 691 l 1
 536 691 l 1
 509 593 l 1
EndSplineSet
Substitution2: "'c2sc' Capitals to Small Capitals lookup 27 subtable" eogonek.sc
Substitution2: "'aalt' Access All Alternates lookup 0 subtable" eogonek.sc
Position2: "'cpsp' Capital Spacing lookup 0 subtable" dx=5 dy=0 dh=10 dv=0
EndChar

StartChar: eogonek
Encoding: 281 281 166
Width: 529
GlyphClass: 2
Flags: MW
HStem: -231 85<275 287> -13 21G 453 91<272.5 341.5>
VStem: 38 129 142 100 379 130<365.5 410>
AnchorPoint: "Anchor-11" 253 0 basechar 0
AnchorPoint: "Anchor-10" 0 0 basechar 0
AnchorPoint: "Anchor-9" 315 529 basechar 0
AnchorPoint: "Anchor-8" 378 8 basechar 0
LayerCount: 2
Fore
SplineSet
509 404 m 0xf4
 509 255 341 212 167 194 c 1xf4
 170 112 212 84 270 84 c 0
 318 84 360 99 408 133 c 1
 457 53 l 1
 421 28 382 8 340 -4 c 1
 262 -39 244 -71 242 -101 c 0
 241 -130 256 -146 294 -146 c 0
 315 -146 332 -144 356 -139 c 1
 341 -224 l 1
 320 -228 300 -231 274 -231 c 0
 192 -231 139 -187 142 -121 c 0xec
 145 -74 174 -38 222 -13 c 1
 100 0 38 82 38 205 c 0
 38 349 113 544 326 544 c 0
 447 544 509 479 509 404 c 0xf4
173 279 m 1
 315 292 379 333 379 398 c 0
 379 422 366 453 317 453 c 0
 228 453 187 364 173 279 c 1
EndSplineSet
Substitution2: "'smcp' Lowercase to Small Capitals lookup 24 subtable" eogonek.sc
Substitution2: "'aalt' Access All Alternates lookup 0 subtable" eogonek.sc
EndChar
StartChar: Ecaron
Encoding: 282 282 68
Width: 523
GlyphClass: 2
Flags: MW
HStem: 0 99<188 443> 302 98<230 436 217 448> 593 98<257 509 257 257>
VStem: 43 495
AnchorPoint: "Anchor-14" 0 0 basechar 0
AnchorPoint: "Anchor-13" 0 0 basechar 0
AnchorPoint: "Anchor-12" 364 928 basechar 0
AnchorPoint: "Anchor-11" 413 0 basechar 0
AnchorPoint: "Anchor-10" 244 0 basechar 0
LayerCount: 2
Back
Fore
SplineSet
495 928 m 1
 538 872 l 1
 386 752 l 1
 307 752 l 1
 186 872 l 1
 239 928 l 1
 355 845 l 1
 495 928 l 1
536 691 m 1
 509 593 l 1
 257 593 l 1
 230 400 l 1
 448 400 l 1
 436 302 l 1
 217 302 l 1
 188 99 l 1
 457 99 l 1
 443 0 l 1
 43 0 l 1
 140 691 l 1
 536 691 l 1
EndSplineSet
Substitution2: "'c2sc' Capitals to Small Capitals lookup 27 subtable" ecaron.sc
Substitution2: "'aalt' Access All Alternates lookup 0 subtable" ecaron.sc
Position2: "'cpsp' Capital Spacing lookup 0 subtable" dx=5 dy=0 dh=10 dv=0
EndChar
StartChar: ecaron
Encoding: 283 283 412
Width: 529
GlyphClass: 2
Flags: MW
HStem: -15 99<241 294 241 294.5> 453 91<272 341.5> 724 20G<165 165 517 517>
VStem: 38 130 379 130<365 410>
AnchorPoint: "Anchor-14" 0 0 basechar 0
AnchorPoint: "Anchor-13" 0 0 basechar 0
AnchorPoint: "Anchor-12" 343 800 basechar 0
AnchorPoint: "Anchor-11" 378 8 basechar 0
AnchorPoint: "Anchor-10" 253 0 basechar 0
LayerCount: 2
Back
Fore
SplineSet
364 619 m 1
 285 619 l 1
 165 744 l 1
 217 800 l 1
 332 712 l 1
 475 800 l 1
 517 744 l 1
 364 619 l 1
326 544 m 0
 447 544 509 479 509 404 c 0
 509 255 342 212 168 195 c 1
 170 112 212 84 270 84 c 0
 318 84 360 99 408 133 c 1
 457 53 l 1
 399 12 333 -15 256 -15 c 0
 112 -15 38 71 38 205 c 0
 38 349 113 544 326 544 c 0
173 278 m 1
 315 292 379 332 379 398 c 0
 379 422 366 453 317 453 c 0
 227 453 187 364 173 278 c 1
EndSplineSet
Substitution2: "'smcp' Lowercase to Small Capitals lookup 28 subtable" ecaron.sc
Substitution2: "'aalt' Access All Alternates lookup 0 subtable" ecaron.sc
EndChar
StartChar: Gcircumflex
Encoding: 284 284 101
Width: 630
GlyphClass: 2
Flags: MW
HStem: -15 101<272.5 335.5 272.5 350.5> 293 98<352 454 352 596> 606 100<325.5 439>
VStem: 48 135<188.5 324 188.5 360.5>
AnchorPoint: "Anchor-14" 0 0 basechar 0
AnchorPoint: "Anchor-13" 533 810 basechar 0
AnchorPoint: "Anchor-12" 437 933 basechar 0
AnchorPoint: "Anchor-11" 0 0 basechar 0
AnchorPoint: "Anchor-10" 304 0 basechar 0
LayerCount: 2
Back
Fore
SplineSet
545 757 m 1
 428 840 l 1
 289 757 l 1
 245 812 l 1
 398 933 l 1
 477 933 l 1
 597 812 l 1
 545 757 l 1
412 706 m 0
 506 706 573 673 623 622 c 1
 543 552 l 1
 503 590 467 606 411 606 c 0
 240 606 183 402 183 246 c 0
 183 131 229 86 316 86 c 0
 355 86 392 95 428 115 c 1
 454 293 l 1
 352 293 l 1
 352 391 l 1
 596 391 l 1
 550 55 l 1
 478 10 396 -15 305 -15 c 0
 140 -15 48 79 48 259 c 0
 48 462 152 706 412 706 c 0
EndSplineSet
Substitution2: "'c2sc' Capitals to Small Capitals lookup 27 subtable" gcircumflex.sc
Substitution2: "'aalt' Access All Alternates lookup 0 subtable" gcircumflex.sc
Position2: "'cpsp' Capital Spacing lookup 0 subtable" dx=5 dy=0 dh=10 dv=0
EndChar

StartChar: Gbreve
Encoding: 286 286 36
Width: 630
GlyphClass: 2
Flags: MW
HStem: -15 101<272.5 335.5 272.5 350.5> 293 98<352 454 352 596> 606 100<325.5 439> 754 92<394 439.5 394 456.5>
VStem: 48 135<188.5 324 188.5 360.5>
AnchorPoint: "Anchor-11" 304 0 basechar 0
AnchorPoint: "Anchor-10" 0 0 basechar 0
AnchorPoint: "Anchor-9" 409 691 basechar 0
AnchorPoint: "Anchor-8" 0 0 basechar 0
LayerCount: 2
Fore
SplineSet
411 754 m 0
 317 754 265 821 269 901 c 1
 342 911 l 1
 349 872 372 846 416 846 c 0
 463 846 497 875 514 914 c 1
 589 896 l 1
 570 816 502 754 411 754 c 0
412 706 m 0
 506 706 573 673 623 622 c 1
 543 552 l 1
 503 590 467 606 411 606 c 0
 240 606 183 402 183 246 c 0
 183 131 229 86 316 86 c 0
 355 86 392 95 428 115 c 1
 454 293 l 1
 352 293 l 1
 352 391 l 1
 596 391 l 1
 550 55 l 1
 478 10 396 -15 305 -15 c 0
 140 -15 48 79 48 259 c 0
 48 462 152 706 412 706 c 0
EndSplineSet
Substitution2: "'c2sc' Capitals to Small Capitals lookup 23 subtable" gbreve.sc
Substitution2: "'aalt' Access All Alternates lookup 0 subtable" gbreve.sc
Position2: "'cpsp' Capital Spacing lookup 0 subtable" dx=5 dy=0 dh=10 dv=0
EndChar
StartChar: gbreve
Encoding: 287 287 453
Width: 578
GlyphClass: 2
Flags: MW
HStem: -220 102<180 236.5 180 282> 0 97<223.5 239> 450 94<274.5 348.5> 637 92<326.5 372.5 326.5 388.5>
VStem: 38 132<164.5 259 164.5 278> 201 76<794 804>
AnchorPoint: "Anchor-14" 0 0 basechar 0
AnchorPoint: "Anchor-13" 0 0 basechar 0
AnchorPoint: "Anchor-12" 364 808 basechar 0
AnchorPoint: "Anchor-11" 0 0 basechar 0
AnchorPoint: "Anchor-10" 208 -206 basechar 0
LayerCount: 2
Back
Fore
SplineSet
343 637 m 0
 249 637 197 704 201 794 c 1
 277 804 l 1
 283 755 304 729 349 729 c 0
 396 729 431 759 450 808 c 1
 522 789 l 1
 502 699 434 637 343 637 c 0
335 544 m 0
 402 544 468 530 539 493 c 1
 470 28 l 2
 444 -152 356 -220 208 -220 c 0
 144 -220 71 -198 17 -165 c 1
 61 -76 l 1
 103 -100 155 -118 205 -118 c 0
 268 -118 330 -99 346 16 c 2
 354 74 l 1
 317 31 267 0 211 0 c 0
 98 0 38 81 38 202 c 0
 38 354 118 544 335 544 c 0
334 450 m 0
 215 450 170 314 170 204 c 0
 170 125 202 97 245 97 c 0
 293 97 332 134 367 182 c 1
 407 436 l 1
 382 446 363 450 334 450 c 0
EndSplineSet
Substitution2: "'smcp' Lowercase to Small Capitals lookup 28 subtable" gbreve.sc
Substitution2: "'aalt' Access All Alternates lookup 0 subtable" gbreve.sc
EndChar

StartChar: Gdotaccent
Encoding: 288 288 39
Width: 630
GlyphClass: 2
Flags: MW
HStem: -15 101<272.5 335.5 272.5 350.5> 293 98<352 454 352 596> 606 100<325.5 439> 768 155<416 446>
VStem: 48 135<188.5 324 188.5 360.5> 352 158
AnchorPoint: "Anchor-11" 304 0 basechar 0
AnchorPoint: "Anchor-10" 0 0 basechar 0
AnchorPoint: "Anchor-9" 409 691 basechar 0
AnchorPoint: "Anchor-8" 0 0 basechar 0
LayerCount: 2
Fore
SplineSet
439 923 m 0
 488 923 516 887 510 841 c 0
 504 799 469 768 423 768 c 0
 375 768 346 804 352 849 c 0
 358 892 393 923 439 923 c 0
412 706 m 0
 506 706 573 673 623 622 c 1
 543 552 l 1
 503 590 467 606 411 606 c 0
 240 606 183 402 183 246 c 0
 183 131 229 86 316 86 c 0
 355 86 392 95 428 115 c 1
 454 293 l 1
 352 293 l 1
 352 391 l 1
 596 391 l 1
 550 55 l 1
 478 10 396 -15 305 -15 c 0
 140 -15 48 79 48 259 c 0
 48 462 152 706 412 706 c 0
EndSplineSet
Substitution2: "'c2sc' Capitals to Small Capitals lookup 23 subtable" gdotaccent.sc
Substitution2: "'aalt' Access All Alternates lookup 0 subtable" gdotaccent.sc
Position2: "'cpsp' Capital Spacing lookup 0 subtable" dx=5 dy=0 dh=10 dv=0
EndChar

StartChar: gdotaccent
Encoding: 289 289 172
Width: 576
GlyphClass: 2
Flags: MW
HStem: -220 102<177 234 177 280> 0 97<221.5 236.5> 450 94<272.5 346.5> 642 155<340 370>
VStem: 35 133<164.5 259 164.5 278> 276 158
AnchorPoint: "Anchor-11" 0 0 basechar 0
AnchorPoint: "Anchor-10" 0 0 basechar 0
AnchorPoint: "Anchor-9" 329 529 basechar 0
AnchorPoint: "Anchor-8" 0 0 basechar 0
LayerCount: 2
Fore
SplineSet
363 797 m 0
 412 797 440 761 434 715 c 0
 428 673 393 642 347 642 c 0
 299 642 270 678 276 723 c 0
 282 766 317 797 363 797 c 0
333 544 m 0
 400 544 466 530 537 493 c 1
 468 28 l 2
 442 -152 354 -220 206 -220 c 0
 142 -220 69 -198 14 -165 c 1
 59 -76 l 1
 101 -100 152 -118 202 -118 c 0
 266 -118 327 -99 344 16 c 1
 352 74 l 1
 315 31 265 0 208 0 c 0
 96 0 35 81 35 202 c 0
 35 354 115 544 333 544 c 0
332 450 m 0
 213 450 168 314 168 204 c 0
 168 125 200 97 243 97 c 0
 291 97 330 134 365 182 c 1
 404 436 l 1
 379 446 361 450 332 450 c 0
EndSplineSet
Substitution2: "'smcp' Lowercase to Small Capitals lookup 24 subtable" gdotaccent.sc
Substitution2: "'aalt' Access All Alternates lookup 0 subtable" gdotaccent.sc
EndChar
StartChar: Gcommaaccent
Encoding: 290 290 102
Width: 630
GlyphClass: 2
Flags: MW
HStem: -15 101<272.5 335.5 272.5 350.5> 293 98<352 454 352 596> 606 100<325.5 439>
VStem: 48 135<188.5 324 188.5 360.5> 217 137<-147 -124>
AnchorPoint: "Anchor-14" 0 0 basechar 0
AnchorPoint: "Anchor-13" 0 0 basechar 0
AnchorPoint: "Anchor-12" 409 691 basechar 0
AnchorPoint: "Anchor-11" 0 0 basechar 0
AnchorPoint: "Anchor-10" 304 0 basechar 0
LayerCount: 2
Back
Fore
SplineSet
412 706 m 0
 506 706 573 673 623 622 c 1
 543 552 l 1
 503 590 467 606 411 606 c 0
 240 606 183 402 183 246 c 0
 183 131 229 86 316 86 c 0
 355 86 392 95 428 115 c 1
 454 293 l 1
 352 293 l 1
 352 391 l 1
 596 391 l 1
 550 55 l 1
 478 10 396 -15 305 -15 c 0
 140 -15 48 79 48 259 c 0
 48 462 152 706 412 706 c 0
290 -72 m 0
 330 -72 354 -101 354 -133 c 0
 354 -161 343 -182 317 -224 c 2
 261 -312 l 1
 194 -312 l 1
 241 -194 l 1
 227 -183 217 -167 217 -146 c 0
 217 -102 251 -72 290 -72 c 0
EndSplineSet
Substitution2: "'c2sc' Capitals to Small Capitals lookup 27 subtable" gcommaaccent.sc
Substitution2: "'aalt' Access All Alternates lookup 0 subtable" gcommaaccent.sc
Position2: "'cpsp' Capital Spacing lookup 0 subtable" dx=5 dy=0 dh=10 dv=0
EndChar
StartChar: Hcircumflex
Encoding: 292 292 110
Width: 664
GlyphClass: 2
Flags: MW
HStem: 0 21G<43 174 43 43 416 547 416 416> 309 105<231 459 217 474> 671 20G<140 271 271 271 513 644 644 644>
VStem: 43 601
AnchorPoint: "Anchor-14" 344 346 basechar 0
AnchorPoint: "Anchor-13" 516 810 basechar 0
AnchorPoint: "Anchor-12" 420 933 basechar 0
AnchorPoint: "Anchor-11" 0 0 basechar 0
AnchorPoint: "Anchor-10" 300 0 basechar 0
LayerCount: 2
Back
Fore
SplineSet
528 757 m 1
 411 840 l 1
 272 757 l 1
 228 812 l 1
 381 933 l 1
 460 933 l 1
 580 812 l 1
 528 757 l 1
416 0 m 1
 459 309 l 1
 217 309 l 1
 174 0 l 1
 43 0 l 1
 140 691 l 1
 271 691 l 1
 231 414 l 1
 474 414 l 1
 513 691 l 1
 644 691 l 1
 547 0 l 1
 416 0 l 1
EndSplineSet
Substitution2: "'c2sc' Capitals to Small Capitals lookup 27 subtable" hcircumflex.sc
Substitution2: "'aalt' Access All Alternates lookup 0 subtable" hcircumflex.sc
Position2: "'cpsp' Capital Spacing lookup 0 subtable" dx=5 dy=0 dh=10 dv=0
EndChar

StartChar: hcircumflex
Encoding: 293 293 175
Width: 573
GlyphClass: 2
Flags: MW
HStem: 0 21G<39 165 39 39 339 465 339 339> 439 105<319.5 441.5> 733 20G<270 270>
VStem: 393.23 128.19
AnchorPoint: "Anchor-11" 250 0 basechar 0
AnchorPoint: "Anchor-10" 0 0 basechar 0
AnchorPoint: "Anchor-9" 353 741 basechar 0
AnchorPoint: "Anchor-8" 0 0 basechar 0
LayerCount: 2
Fore
SplineSet
382 889 m 1
 243 806 l 1
 199 861 l 1
 352 982 l 1
 431 982 l 1
 551 861 l 1
 499 806 l 1
 382 889 l 1
397 544 m 0
 486 544 533 482 519 381 c 2
 465 0 l 1
 339 0 l 1
 391 359 l 2
 401 425 378 439 343 439 c 0
 296 439 247 378 207 303 c 1
 165 0 l 1
 39 0 l 1
 143 740 l 1
 270 753 l 1
 225 435 l 1
 266 500 331 544 397 544 c 0
EndSplineSet
Substitution2: "'smcp' Lowercase to Small Capitals lookup 24 subtable" hcircumflex.sc
Substitution2: "'aalt' Access All Alternates lookup 0 subtable" hcircumflex.sc
EndChar
StartChar: Hbar
Encoding: 294 294 108
Width: 678
GlyphClass: 2
Flags: MW
HStem: 0 21G<48 179 48 48 422 553 422 422> 309 105<237 464 222 480> 504 81<69 119 58 131 261 493 635 685> 504 187<58 276 58 276 250 250 250 276 146 493 624 650 624 624>
VStem: 48 649<0 585>
AnchorPoint: "Anchor-14" 349 346 basechar 0
AnchorPoint: "Anchor-13" 0 0 basechar 0
AnchorPoint: "Anchor-12" 398 691 basechar 0
AnchorPoint: "Anchor-11" 0 0 basechar 0
AnchorPoint: "Anchor-10" 306 0 basechar 0
LayerCount: 2
Back
Fore
SplineSet
697 585 m 1xe8
 685 504 l 1
 624 504 l 1
 553 0 l 1
 422 0 l 1
 464 309 l 1
 222 309 l 1
 179 0 l 1
 48 0 l 1
 119 504 l 1
 58 504 l 1xd8
 69 585 l 1
 131 585 l 1xe8
 146 691 l 1
 276 691 l 1xd8
 261 585 l 1
 504 585 l 1xe8
 519 691 l 1
 650 691 l 1xd8
 635 585 l 1
 697 585 l 1xe8
480 414 m 1
 493 504 l 1
 250 504 l 1
 237 414 l 1
 480 414 l 1
EndSplineSet
Substitution2: "'c2sc' Capitals to Small Capitals lookup 27 subtable" hbar.sc
Substitution2: "'aalt' Access All Alternates lookup 0 subtable" hbar.sc
Position2: "'cpsp' Capital Spacing lookup 0 subtable" dx=5 dy=0 dh=10 dv=0
EndChar

StartChar: hbar
Encoding: 295 295 174
Width: 582
GlyphClass: 2
Flags: MW
HStem: 0 21G<48 174 48 48 348 474 348 348> 439 105<328 450> 601 82<75 132 63 144 269 391> 720 20G<152 152> 733 20G<279 279>
VStem: 148 126 402.23 128.15
AnchorPoint: "Anchor-11" 258 0 basechar 0
AnchorPoint: "Anchor-10" 0 0 basechar 0
AnchorPoint: "Anchor-9" 362 741 basechar 0
AnchorPoint: "Anchor-8" 0 0 basechar 0
LayerCount: 2
Fore
SplineSet
406 544 m 0xee
 494 544 542 482 528 381 c 2
 474 0 l 1
 348 0 l 1
 400 359 l 2
 410 425 387 439 351 439 c 0
 305 439 255 378 216 303 c 1
 174 0 l 1
 48 0 l 1
 132 601 l 1
 63 601 l 1
 75 683 l 1
 144 683 l 1
 152 740 l 1xf6
 279 753 l 1
 269 683 l 1
 414 683 l 1
 391 601 l 1
 257 601 l 1
 233 435 l 1
 275 500 340 544 406 544 c 0xee
EndSplineSet
Substitution2: "'smcp' Lowercase to Small Capitals lookup 24 subtable" hbar.sc
Substitution2: "'aalt' Access All Alternates lookup 0 subtable" hbar.sc
EndChar

StartChar: Itilde
Encoding: 296 296 53
Width: 292
GlyphClass: 2
Flags: MW
HStem: 0 21G<43 175 43 43> 671 20G<140 272 272 272> 770 94<268.5 295.5 268.5 305> 817 93<159.5 187>
VStem: 43 366
AnchorPoint: "Anchor-11" 0 0 basechar 0
AnchorPoint: "Anchor-10" 16 534 basechar 0
AnchorPoint: "Anchor-9" 206 691 basechar 0
AnchorPoint: "Anchor-8" 169 0 basechar 0
LayerCount: 2
Fore
SplineSet
281 770 m 0xe8
 227 770 202 817 172 817 c 0
 147 817 130 799 110 770 c 1
 47 807 l 1
 78 864 123 910 177 910 c 0xd8
 234 910 253 864 284 864 c 0
 307 864 324 880 344 909 c 1
 409 872 l 1
 374 809 329 770 281 770 c 0xe8
175 0 m 1xd8
 43 0 l 1
 140 691 l 1
 272 691 l 1
 175 0 l 1xd8
EndSplineSet
Substitution2: "'c2sc' Capitals to Small Capitals lookup 23 subtable" itilde.sc
Substitution2: "'aalt' Access All Alternates lookup 0 subtable" itilde.sc
Position2: "'cpsp' Capital Spacing lookup 0 subtable" dx=5 dy=0 dh=10 dv=0
EndChar

StartChar: itilde
Encoding: 297 297 187
Width: 279
GlyphClass: 2
Flags: MW
HStem: 0 21G<39 166 39 39> 509 20G<113 240 240 240> 644 94<243.5 270.5 243.5 280> 691 93<134.5 162> 726 20G<384 384>
VStem: 22 362<681 746>
AnchorPoint: "Anchor-11" 0 0 basechar 0
AnchorPoint: "Anchor-10" 0 0 basechar 0
AnchorPoint: "Anchor-9" 176 529 basechar 0
AnchorPoint: "Anchor-8" 162 0 basechar 0
LayerCount: 2
Fore
SplineSet
256 644 m 0xe4
 202 644 177 691 147 691 c 0
 122 691 105 673 85 644 c 1
 22 681 l 1
 53 738 98 784 152 784 c 0xd4
 209 784 228 738 259 738 c 0
 282 738 299 754 319 783 c 1xe4
 384 746 l 1xcc
 349 683 304 644 256 644 c 0xe4
166 0 m 1xcc
 39 0 l 1
 113 529 l 1
 240 529 l 1
 166 0 l 1xcc
EndSplineSet
Substitution2: "'smcp' Lowercase to Small Capitals lookup 24 subtable" itilde.sc
Substitution2: "'aalt' Access All Alternates lookup 0 subtable" itilde.sc
EndChar
StartChar: Imacron
Encoding: 298 298 129
Width: 291
GlyphClass: 2
Flags: MW
HStem: 0 21G<43 174 43 43> 671 20G<140 271 271 271> 787 91<87 362 75 374>
VStem: 43 331
AnchorPoint: "Anchor-14" 0 0 basechar 0
AnchorPoint: "Anchor-13" 0 0 basechar 0
AnchorPoint: "Anchor-12" 226 878 basechar 0
AnchorPoint: "Anchor-11" 154 0 basechar 0
AnchorPoint: "Anchor-10" 108 0 basechar 0
LayerCount: 2
Back
Fore
SplineSet
362 787 m 1
 75 787 l 1
 87 878 l 1
 374 878 l 1
 362 787 l 1
271 691 m 1
 174 0 l 1
 43 0 l 1
 140 691 l 1
 271 691 l 1
EndSplineSet
Substitution2: "'c2sc' Capitals to Small Capitals lookup 27 subtable" imacron.sc
Substitution2: "'aalt' Access All Alternates lookup 0 subtable" imacron.sc
Position2: "'cpsp' Capital Spacing lookup 0 subtable" dx=5 dy=0 dh=10 dv=0
EndChar

StartChar: imacron
Encoding: 299 299 185
Width: 279
GlyphClass: 2
Flags: MW
HStem: 0 21G<39 166 39 39> 509 20G<113 240 240 240> 661 91<51 351 64 339>
VStem: 39 312
AnchorPoint: "Anchor-11" 0 0 basechar 0
AnchorPoint: "Anchor-10" 0 0 basechar 0
AnchorPoint: "Anchor-9" 176 529 basechar 0
AnchorPoint: "Anchor-8" 162 0 basechar 0
LayerCount: 2
Fore
SplineSet
51 661 m 1
 64 752 l 1
 351 752 l 1
 339 661 l 1
 51 661 l 1
166 0 m 1
 39 0 l 1
 113 529 l 1
 240 529 l 1
 166 0 l 1
EndSplineSet
Substitution2: "'smcp' Lowercase to Small Capitals lookup 24 subtable" imacron.sc
Substitution2: "'aalt' Access All Alternates lookup 0 subtable" imacron.sc
EndChar
StartChar: Ibreve
Encoding: 300 300 118
Width: 291
GlyphClass: 2
Flags: MW
HStem: 0 21G<43 174 43 43> 671 20G<140 271 271 271> 754 92<199 244.5 199 261.5>
VStem: 43 351
AnchorPoint: "Anchor-14" 0 0 basechar 0
AnchorPoint: "Anchor-13" 0 0 basechar 0
AnchorPoint: "Anchor-12" 236 914 basechar 0
AnchorPoint: "Anchor-11" 154 0 basechar 0
AnchorPoint: "Anchor-10" 108 0 basechar 0
LayerCount: 2
Back
Fore
SplineSet
216 754 m 0
 122 754 70 821 74 901 c 1
 147 911 l 1
 154 872 177 846 221 846 c 0
 268 846 302 875 320 914 c 1
 394 896 l 1
 375 816 307 754 216 754 c 0
271 691 m 1
 174 0 l 1
 43 0 l 1
 140 691 l 1
 271 691 l 1
EndSplineSet
Substitution2: "'c2sc' Capitals to Small Capitals lookup 27 subtable" ibreve.sc
Substitution2: "'aalt' Access All Alternates lookup 0 subtable" ibreve.sc
Position2: "'cpsp' Capital Spacing lookup 0 subtable" dx=5 dy=0 dh=10 dv=0
EndChar
StartChar: ibreve
Encoding: 301 301 480
Width: 278
GlyphClass: 2
Flags: MW
HStem: 0 21G<39 165 39 39> 509 20G<113 239 239 239> 637 92<170.5 216.5 170.5 232.5>
VStem: 45 76<794 804>
AnchorPoint: "Anchor-14" 0 0 basechar 0
AnchorPoint: "Anchor-13" 0 0 basechar 0
AnchorPoint: "Anchor-12" 208 808 basechar 0
AnchorPoint: "Anchor-11" 141 0 basechar 0
AnchorPoint: "Anchor-10" 102 0 basechar 0
LayerCount: 2
Back
Fore
SplineSet
187 637 m 0
 93 637 41 704 45 794 c 1
 121 804 l 1
 127 755 148 729 193 729 c 0
 240 729 275 759 294 808 c 1
 366 789 l 1
 346 699 278 637 187 637 c 0
239 529 m 1
 165 0 l 1
 39 0 l 1
 113 529 l 1
 239 529 l 1
EndSplineSet
Substitution2: "'smcp' Lowercase to Small Capitals lookup 28 subtable" ibreve.sc
Substitution2: "'aalt' Access All Alternates lookup 0 subtable" ibreve.sc
EndChar

StartChar: Iogonek
Encoding: 302 302 52
Width: 292
GlyphClass: 2
Flags: MW
HStem: -239 85<54.5 60.5> 0 21G<161 175 161 161> 671 20G<140 272 272 272>
VStem: -76 100<-130.5 -112.5>
AnchorPoint: "Anchor-11" 0 0 basechar 0
AnchorPoint: "Anchor-10" 16 534 basechar 0
AnchorPoint: "Anchor-9" 206 691 basechar 0
AnchorPoint: "Anchor-8" 169 0 basechar 0
LayerCount: 2
Fore
SplineSet
272 691 m 1
 175 0 l 1
 161 0 l 1
 40 -47 24 -91 24 -119 c 0
 24 -142 40 -154 69 -154 c 0
 90 -154 109 -151 132 -146 c 1
 113 -232 l 1
 93 -236 73 -239 48 -239 c 0
 -27 -239 -76 -198 -76 -139 c 0
 -76 -86 -46 -33 44 9 c 1
 140 691 l 1
 272 691 l 1
EndSplineSet
Substitution2: "'c2sc' Capitals to Small Capitals lookup 23 subtable" iogonek.sc
Substitution2: "'aalt' Access All Alternates lookup 0 subtable" iogonek.sc
Position2: "'cpsp' Capital Spacing lookup 0 subtable" dx=5 dy=0 dh=10 dv=0
EndChar

StartChar: iogonek
Encoding: 303 303 186
Width: 279
GlyphClass: 2
Flags: MW
HStem: -239 85<46.5 52.5> 0 21G<153 166 153 153> 509 20G<113 240 240 240> 642 155<188 218>
VStem: -84 100<-130.5 -112> 124 158
AnchorPoint: "Anchor-11" 0 0 basechar 0
AnchorPoint: "Anchor-10" 0 0 basechar 0
AnchorPoint: "Anchor-9" 176 529 basechar 0
AnchorPoint: "Anchor-8" 162 0 basechar 0
LayerCount: 2
Fore
SplineSet
211 797 m 0
 260 797 288 761 282 715 c 0
 276 673 241 642 195 642 c 0
 147 642 118 678 124 723 c 0
 130 766 165 797 211 797 c 0
113 529 m 1
 240 529 l 1
 166 0 l 1
 153 0 l 1
 32 -47 16 -91 16 -119 c 0
 16 -142 32 -154 61 -154 c 0
 82 -154 101 -151 124 -146 c 1
 105 -232 l 1
 85 -236 65 -239 40 -239 c 0
 -35 -239 -84 -198 -84 -139 c 0
 -84 -85 -53 -31 41 11 c 1
 113 529 l 1
EndSplineSet
Substitution2: "'smcp' Lowercase to Small Capitals lookup 24 subtable" iogonek.sc
Substitution2: "'aalt' Access All Alternates lookup 0 subtable" iogonek.sc
EndChar

StartChar: Idotaccent
Encoding: 304 304 49
Width: 292
GlyphClass: 2
Flags: MW
HStem: 0 21G<43 175 43 43> 671 20G<140 272 272 272> 768 155<213 243>
VStem: 149 158
AnchorPoint: "Anchor-11" 0 0 basechar 0
AnchorPoint: "Anchor-10" 16 534 basechar 0
AnchorPoint: "Anchor-9" 206 691 basechar 0
AnchorPoint: "Anchor-8" 169 0 basechar 0
LayerCount: 2
Fore
SplineSet
236 923 m 0
 285 923 313 887 307 841 c 0
 301 799 266 768 220 768 c 0
 172 768 143 804 149 849 c 0
 155 892 190 923 236 923 c 0
175 0 m 1
 43 0 l 1
 140 691 l 1
 272 691 l 1
 175 0 l 1
EndSplineSet
Substitution2: "'c2sc' Capitals to Small Capitals lookup 23 subtable" i.sc.loclTRK
Substitution2: "'aalt' Access All Alternates lookup 0 subtable" i.sc.loclTRK
Position2: "'cpsp' Capital Spacing lookup 0 subtable" dx=5 dy=0 dh=10 dv=0
EndChar
StartChar: IJ
Encoding: 306 306 116
Width: 596
GlyphClass: 2
Flags: MW
HStem: 0 21G<43 174 43 43> 671 20G<140 271 271 271 450 580 580 580>
VStem: 43 537
AnchorPoint: "Anchor-14" 0 0 basechar 0
AnchorPoint: "Anchor-13" 0 0 basechar 0
AnchorPoint: "Anchor-12" 515 691 basechar 0
AnchorPoint: "Anchor-11" 154 0 basechar 0
AnchorPoint: "Anchor-10" 108 0 basechar 0
LayerCount: 2
Back
Fore
SplineSet
271 691 m 1
 174 0 l 1
 43 0 l 1
 140 691 l 1
 271 691 l 1
580 691 m 1
 497 99 l 2
 475 -62 380 -119 263 -155 c 1
 238 -59 l 1
 332 -24 356 22 367 108 c 2
 450 691 l 1
 580 691 l 1
EndSplineSet
Substitution2: "'c2sc' Capitals to Small Capitals lookup 27 subtable" ij.sc
Substitution2: "'aalt' Access All Alternates lookup 0 subtable" ij.sc
Position2: "'cpsp' Capital Spacing lookup 0 subtable" dx=5 dy=0 dh=10 dv=0
EndChar
StartChar: ij
Encoding: 307 307 491
Width: 552
GlyphClass: 2
Flags: MW
HStem: -218 21G<221 221> 0 21G<39 165 39 39> 509 20G<113 239 239 239 387 513 513 513> 642 155<188 218 462 492>
VStem: 124 158 398 158
AnchorPoint: "Anchor-14" 0 0 basechar 0
AnchorPoint: "Anchor-13" 0 0 basechar 0
AnchorPoint: "Anchor-12" 488 797 basechar 0
AnchorPoint: "Anchor-11" 141 0 basechar 0
AnchorPoint: "Anchor-10" 341 -206 basechar 0
LayerCount: 2
Back
Fore
SplineSet
211 797 m 0
 260 797 288 761 282 715 c 0
 276 673 241 642 195 642 c 0
 147 642 118 678 124 723 c 0
 130 766 165 797 211 797 c 0
485 797 m 0
 534 797 562 761 556 715 c 0
 550 673 515 642 469 642 c 0
 421 642 392 678 398 723 c 0
 404 766 439 797 485 797 c 0
239 529 m 1
 165 0 l 1
 39 0 l 1
 113 529 l 1
 239 529 l 1
513 529 m 1
 445 45 l 2
 422 -117 344 -170 221 -218 c 1
 187 -124 l 1
 261 -94 304 -63 319 42 c 2
 387 529 l 1
 513 529 l 1
EndSplineSet
Substitution2: "'smcp' Lowercase to Small Capitals lookup 28 subtable" ij.sc
Substitution2: "'aalt' Access All Alternates lookup 0 subtable" ij.sc
EndChar

StartChar: Jcircumflex
Encoding: 308 308 55
Width: 306
GlyphClass: 2
Flags: MW
HStem: 671 20G<159 289 289 289>
VStem: -53 475
AnchorPoint: "Anchor-11" 0 0 basechar 0
AnchorPoint: "Anchor-10" 0 0 basechar 0
AnchorPoint: "Anchor-9" 224 691 basechar 0
AnchorPoint: "Anchor-8" 0 0 basechar 0
LayerCount: 2
Fore
SplineSet
253 840 m 1
 114 757 l 1
 70 812 l 1
 223 933 l 1
 302 933 l 1
 422 812 l 1
 370 757 l 1
 253 840 l 1
206 99 m 2
 184 -62 89 -119 -28 -155 c 1
 -53 -59 l 1
 41 -24 65 22 76 108 c 1
 159 691 l 1
 289 691 l 1
 206 99 l 2
EndSplineSet
Substitution2: "'c2sc' Capitals to Small Capitals lookup 23 subtable" jcircumflex.sc
Substitution2: "'aalt' Access All Alternates lookup 0 subtable" jcircumflex.sc
Position2: "'cpsp' Capital Spacing lookup 0 subtable" dx=5 dy=0 dh=10 dv=0
EndChar
StartChar: jcircumflex
Encoding: 309 309 500
Width: 274
GlyphClass: 2
Flags: MW
HStem: -218 21G<-57 -57> 509 20G<109 235 235 235>
VStem: -91 458
AnchorPoint: "Anchor-14" 0 0 basechar 0
AnchorPoint: "Anchor-13" 0 0 basechar 0
AnchorPoint: "Anchor-12" 207 808 basechar 0
AnchorPoint: "Anchor-11" 0 0 basechar 0
AnchorPoint: "Anchor-10" 63 -206 basechar 0
LayerCount: 2
Back
Fore
SplineSet
59 627 m 1
 15 682 l 1
 169 808 l 1
 248 808 l 1
 367 682 l 1
 313 627 l 1
 198 715 l 1
 59 627 l 1
235 529 m 1
 167 45 l 2
 144 -117 66 -170 -57 -218 c 1
 -91 -124 l 1
 -17 -94 26 -63 41 42 c 2
 109 529 l 1
 235 529 l 1
EndSplineSet
Substitution2: "'smcp' Lowercase to Small Capitals lookup 28 subtable" jcircumflex.sc
Substitution2: "'aalt' Access All Alternates lookup 0 subtable" jcircumflex.sc
EndChar
StartChar: Kcommaaccent
Encoding: 310 310 139
Width: 605
GlyphClass: 2
Flags: MW
HStem: 0 21G<43 174 43 43 423 423 423 575> 671 20G<140 271 271 271 510 654 654 654>
VStem: 43 611 193 137<-147 -124>
AnchorPoint: "Anchor-14" 0 0 basechar 0
AnchorPoint: "Anchor-13" 0 0 basechar 0
AnchorPoint: "Anchor-12" 385 691 basechar 0
AnchorPoint: "Anchor-11" 0 0 basechar 0
AnchorPoint: "Anchor-10" 279 0 basechar 0
LayerCount: 2
Back
Fore
SplineSet
271 691 m 1xe0
 174 0 l 1
 43 0 l 1
 140 691 l 1
 271 691 l 1xe0
654 691 m 1
 371 369 l 1
 575 0 l 1
 423 0 l 1
 231 369 l 1
 510 691 l 1
 654 691 l 1
266 -72 m 0xd0
 306 -72 330 -101 330 -133 c 0
 330 -161 319 -182 293 -224 c 2
 237 -312 l 1
 170 -312 l 1
 217 -194 l 1
 203 -183 193 -167 193 -146 c 0
 193 -102 227 -72 266 -72 c 0xd0
EndSplineSet
Substitution2: "'c2sc' Capitals to Small Capitals lookup 27 subtable" kcommaaccent.sc
Substitution2: "'aalt' Access All Alternates lookup 0 subtable" kcommaaccent.sc
Position2: "'cpsp' Capital Spacing lookup 0 subtable" dx=5 dy=0 dh=10 dv=0
EndChar
StartChar: kcommaaccent
Encoding: 311 311 507
Width: 557
GlyphClass: 2
Flags: MW
HStem: 0 21G<39 165 39 39 357 496 357 357> 451 93<372.5 376> 735 20G<270 270>
VStem: 169 137<-147 -124> 411 130<379 417>
AnchorPoint: "Anchor-14" 0 0 basechar 0
AnchorPoint: "Anchor-13" 0 0 basechar 0
AnchorPoint: "Anchor-12" 364 741 basechar 0
AnchorPoint: "Anchor-11" 0 0 basechar 0
AnchorPoint: "Anchor-10" 256 0 basechar 0
LayerCount: 2
Back
Fore
SplineSet
270 755 m 1
 228 449 l 1
 280 515 340 544 405 544 c 0
 487 544 541 493 541 420 c 0
 541 338 492 272 389 235 c 1
 496 0 l 1
 357 0 l 1
 247 257 l 1
 367 293 411 337 411 401 c 0
 411 433 392 451 360 451 c 0
 312 451 254 412 210 323 c 1
 165 0 l 1
 39 0 l 1
 143 741 l 1
 270 755 l 1
242 -72 m 0
 282 -72 306 -101 306 -133 c 0
 306 -161 295 -182 269 -224 c 2
 213 -312 l 1
 146 -312 l 1
 193 -194 l 1
 179 -183 169 -167 169 -146 c 0
 169 -102 203 -72 242 -72 c 0
EndSplineSet
Substitution2: "'smcp' Lowercase to Small Capitals lookup 28 subtable" kcommaaccent.sc
Substitution2: "'aalt' Access All Alternates lookup 0 subtable" kcommaaccent.sc
EndChar

StartChar: kgreenlandic
Encoding: 312 312 193
Width: 523
GlyphClass: 2
Flags: MW
HStem: 0 21G<39 165 39 39 352 352 352 492> 509 20G<113 239 239 239 409 550 550 550>
VStem: 39 511
LayerCount: 2
Fore
SplineSet
165 0 m 1
 39 0 l 1
 113 529 l 1
 239 529 l 1
 165 0 l 1
343 280 m 1
 492 0 l 1
 352 0 l 1
 207 279 l 1
 409 529 l 1
 550 529 l 1
 343 280 l 1
EndSplineSet
Substitution2: "'smcp' Lowercase to Small Capitals lookup 24 subtable" kgreenlandic.sc
Substitution2: "'aalt' Access All Alternates lookup 0 subtable" kgreenlandic.sc
EndChar
StartChar: Lacute
Encoding: 313 313 143
Width: 499
GlyphClass: 2
Flags: MW
HStem: 0 108<189 432> 671 20G<140 271 271 271>
VStem: 43 418<0 108>
AnchorPoint: "Anchor-14" 408 395 basechar 0
AnchorPoint: "Anchor-13" 294 691 basechar 0
AnchorPoint: "Anchor-12" 228 936 basechar 0
AnchorPoint: "Anchor-11" 0 0 basechar 0
AnchorPoint: "Anchor-10" 238 0 basechar 0
LayerCount: 2
Back
Fore
SplineSet
313 936 m 1
 357 836 l 1
 125 751 l 1
 95 817 l 1
 313 936 l 1
271 691 m 1
 189 108 l 1
 461 108 l 1
 432 0 l 1
 43 0 l 1
 140 691 l 1
 271 691 l 1
EndSplineSet
Substitution2: "'c2sc' Capitals to Small Capitals lookup 27 subtable" lacute.sc
Substitution2: "'aalt' Access All Alternates lookup 0 subtable" lacute.sc
Position2: "'cpsp' Capital Spacing lookup 0 subtable" dx=5 dy=0 dh=10 dv=0
EndChar
StartChar: lacute
Encoding: 314 314 512
Width: 288
GlyphClass: 2
Flags: MW
HStem: -15 21G<121 175.5> -15 103<121 204.5> 735 20G<266 266>
VStem: 49.66 127.34
AnchorPoint: "Anchor-14" 340 378 basechar 0
AnchorPoint: "Anchor-13" 277 741 basechar 0
AnchorPoint: "Anchor-12" 224 985 basechar 0
AnchorPoint: "Anchor-11" 0 0 basechar 0
AnchorPoint: "Anchor-10" 154 0 basechar 0
LayerCount: 2
Back
Fore
SplineSet
309 985 m 1xb0
 353 885 l 1
 121 800 l 1
 91 866 l 1
 309 985 l 1xb0
266 755 m 1
 177 126 l 2
 174 98 181 88 200 88 c 0
 209 88 220 91 230 95 c 1x70
 249 4 l 1
 221 -9 190 -15 161 -15 c 0
 81 -15 39 34 52 130 c 2
 138 741 l 1
 266 755 l 1
EndSplineSet
Substitution2: "'smcp' Lowercase to Small Capitals lookup 28 subtable" lacute.sc
Substitution2: "'aalt' Access All Alternates lookup 0 subtable" lacute.sc
EndChar

StartChar: Lcommaaccent
Encoding: 315 315 61
Width: 500
GlyphClass: 2
Flags: MW
HStem: 0 108<189 432> 671 20G<140 271 271 271>
VStem: 43 418<0 108> 151 137<-147 -124>
AnchorPoint: "Anchor-11" 238 0 basechar 0
AnchorPoint: "Anchor-10" 0 0 basechar 0
AnchorPoint: "Anchor-9" 205 691 basechar 0
AnchorPoint: "Anchor-8" 0 0 basechar 0
LayerCount: 2
Fore
SplineSet
189 108 m 1xe0
 461 108 l 1
 432 0 l 1
 43 0 l 1
 140 691 l 1
 271 691 l 1
 189 108 l 1xe0
226 -72 m 0xd0
 265 -72 288 -101 288 -133 c 0
 288 -161 277 -182 251 -224 c 2
 195 -312 l 1
 128 -312 l 1
 175 -194 l 1
 161 -183 151 -167 151 -146 c 0
 151 -102 186 -72 226 -72 c 0xd0
EndSplineSet
Substitution2: "'c2sc' Capitals to Small Capitals lookup 23 subtable" lcommaaccent.sc
Substitution2: "'aalt' Access All Alternates lookup 0 subtable" lcommaaccent.sc
Position2: "'cpsp' Capital Spacing lookup 0 subtable" dx=5 dy=0 dh=10 dv=0
EndChar

StartChar: lcommaaccent
Encoding: 316 316 197
Width: 288
GlyphClass: 2
Flags: MW
HStem: -15 21G<120.5 175.5> -15 103<120.5 204> 735 20G<265 265>
VStem: 40 137<-147 -124> 49.33 127.67
AnchorPoint: "Anchor-11" 127 0 basechar 0
AnchorPoint: "Anchor-10" 0 0 basechar 0
AnchorPoint: "Anchor-9" 201 741 basechar 0
AnchorPoint: "Anchor-8" 0 0 basechar 0
LayerCount: 2
Fore
SplineSet
177 126 m 2x68
 174 98 180 88 199 88 c 0
 209 88 220 91 230 95 c 1
 249 4 l 1
 221 -9 190 -15 161 -15 c 0
 80 -15 38 34 52 130 c 2
 138 741 l 1
 265 755 l 1
 177 126 l 2x68
115 -72 m 0xb0
 154 -72 177 -101 177 -133 c 0
 177 -161 166 -182 140 -224 c 2
 84 -312 l 1
 17 -312 l 1
 64 -194 l 1
 50 -183 40 -167 40 -146 c 0
 40 -102 75 -72 115 -72 c 0xb0
EndSplineSet
Substitution2: "'smcp' Lowercase to Small Capitals lookup 24 subtable" lcommaaccent.sc
Substitution2: "'aalt' Access All Alternates lookup 0 subtable" lcommaaccent.sc
EndChar
StartChar: Lcaron
Encoding: 317 317 145
Width: 499
GlyphClass: 2
Flags: MW
HStem: 0 108<189 432> 671 20G<140 271 271 271 436 436> 683 20G<336 336>
VStem: 43 418<0 108>
AnchorPoint: "Anchor-14" 408 395 basechar 0
AnchorPoint: "Anchor-13" 294 691 basechar 0
AnchorPoint: "Anchor-12" 205 691 basechar 0
AnchorPoint: "Anchor-11" 0 0 basechar 0
AnchorPoint: "Anchor-10" 238 0 basechar 0
LayerCount: 2
Back
Fore
SplineSet
336 703 m 1xb0
 436 691 l 1xd0
 362 490 l 1
 294 498 l 1
 336 703 l 1xb0
271 691 m 1
 189 108 l 1
 461 108 l 1
 432 0 l 1
 43 0 l 1
 140 691 l 1
 271 691 l 1
EndSplineSet
Substitution2: "'c2sc' Capitals to Small Capitals lookup 27 subtable" lcaron.sc
Substitution2: "'aalt' Access All Alternates lookup 0 subtable" lcaron.sc
Position2: "'cpsp' Capital Spacing lookup 0 subtable" dx=5 dy=0 dh=10 dv=0
EndChar

StartChar: lcaron
Encoding: 318 318 196
Width: 336
GlyphClass: 2
Flags: MW
HStem: -15 21G<106 160.5> -15 103<106 189.5> 720 20G<425 425> 732 20G<325 325> 735 20G<251 251>
VStem: 34.66 127.34
AnchorPoint: "Anchor-11" 113 0 basechar 0
AnchorPoint: "Anchor-10" 0 0 basechar 0
AnchorPoint: "Anchor-9" 186 741 basechar 0
AnchorPoint: "Anchor-8" 0 0 basechar 0
LayerCount: 2
Fore
SplineSet
162 126 m 2x4c
 159 98 166 88 185 88 c 0
 194 88 205 91 215 95 c 1
 234 4 l 1
 206 -9 175 -15 146 -15 c 0
 66 -15 24 34 37 130 c 2
 123 741 l 1
 251 755 l 1
 162 126 l 2x4c
425 740 m 1xa4
 351 539 l 1
 283 547 l 1
 325 752 l 1x94
 425 740 l 1xa4
EndSplineSet
Substitution2: "'smcp' Lowercase to Small Capitals lookup 24 subtable" lcaron.sc
Substitution2: "'aalt' Access All Alternates lookup 0 subtable" lcaron.sc
EndChar

StartChar: Ldot
Encoding: 319 319 62
Width: 500
GlyphClass: 2
Flags: MW
HStem: 0 108<189 432> 316 155<393 423> 671 20G<140 271 271 271>
VStem: 43 444.67 329 158
AnchorPoint: "Anchor-11" 238 0 basechar 0
AnchorPoint: "Anchor-10" 0 0 basechar 0
AnchorPoint: "Anchor-9" 205 691 basechar 0
AnchorPoint: "Anchor-8" 0 0 basechar 0
LayerCount: 2
Fore
SplineSet
189 108 m 1xf0
 461 108 l 1
 432 0 l 1
 43 0 l 1
 140 691 l 1
 271 691 l 1
 189 108 l 1xf0
416 471 m 0xe8
 465 471 493 435 487 389 c 0
 481 347 446 316 400 316 c 0
 352 316 323 352 329 397 c 0
 335 440 370 471 416 471 c 0xe8
EndSplineSet
Ligature2: "Ligature Substitution lookup 29 subtable" L periodcentered
Substitution2: "'c2sc' Capitals to Small Capitals lookup 23 subtable" ldot.sc
Substitution2: "'aalt' Access All Alternates lookup 0 subtable" ldot.sc
Position2: "'cpsp' Capital Spacing lookup 0 subtable" dx=5 dy=0 dh=10 dv=0
EndChar

StartChar: ldot
Encoding: 320 320 198
Width: 389
GlyphClass: 2
Flags: MW
HStem: -15 103<79.5 163> 299 155<284 314> 735 20G<224 224>
VStem: 8.33 127.67 220 158
AnchorPoint: "Anchor-11" 86 0 basechar 0
AnchorPoint: "Anchor-10" 0 0 basechar 0
AnchorPoint: "Anchor-9" 160 741 basechar 0
AnchorPoint: "Anchor-8" 0 0 basechar 0
LayerCount: 2
Fore
SplineSet
136 126 m 2
 133 98 139 88 158 88 c 0
 168 88 179 91 189 95 c 1
 208 4 l 1
 180 -9 149 -15 120 -15 c 0
 39 -15 -3 34 11 130 c 2
 97 741 l 1
 224 755 l 1
 136 126 l 2
307 454 m 0
 356 454 384 418 378 372 c 0
 372 330 337 299 291 299 c 0
 243 299 214 335 220 380 c 0
 226 423 261 454 307 454 c 0
EndSplineSet
Ligature2: "Ligature Substitution lookup 29 subtable" l periodcentered
Substitution2: "'smcp' Lowercase to Small Capitals lookup 24 subtable" ldot.sc
Substitution2: "'aalt' Access All Alternates lookup 0 subtable" ldot.sc
EndChar
StartChar: Lslash
Encoding: 321 321 151
Width: 522
GlyphClass: 2
Flags: MW
HStem: 0 108<212 455> 671 20G<163 294 294 294>
VStem: 15 469<108 284>
LayerCount: 2
Back
Fore
SplineSet
484 108 m 1
 455 0 l 1
 66 0 l 1
 100 237 l 1
 50 209 l 1
 15 284 l 1
 114 341 l 1
 163 691 l 1
 294 691 l 1
 256 424 l 1
 411 513 l 1
 447 438 l 1
 241 319 l 1
 212 108 l 1
 484 108 l 1
EndSplineSet
Substitution2: "'c2sc' Capitals to Small Capitals lookup 27 subtable" lslash.sc
Substitution2: "'aalt' Access All Alternates lookup 0 subtable" lslash.sc
Position2: "'cpsp' Capital Spacing lookup 0 subtable" dx=5 dy=0 dh=10 dv=0
EndChar
StartChar: lslash
Encoding: 322 322 527
Width: 317
GlyphClass: 2
Flags: MW
HStem: -15 103<133.5 217> 735 20G<278 278>
VStem: 61.66 128.34
AnchorPoint: "Anchor-14" 352 378 basechar 0
AnchorPoint: "Anchor-13" 289 741 basechar 0
AnchorPoint: "Anchor-12" 213 741 basechar 0
AnchorPoint: "Anchor-11" 0 0 basechar 0
AnchorPoint: "Anchor-10" 166 0 basechar 0
LayerCount: 2
Back
Fore
SplineSet
212 88 m 0
 222 88 232 91 242 95 c 1
 261 4 l 1
 233 -9 203 -15 174 -15 c 0
 93 -15 51 34 64 130 c 2
 86 286 l 1
 39 259 l 1
 14 342 l 1
 101 392 l 1
 151 741 l 1
 278 755 l 1
 238 470 l 1
 311 512 l 1
 334 428 l 1
 223 365 l 1
 190 126 l 2
 186 98 193 88 212 88 c 0
EndSplineSet
Substitution2: "'smcp' Lowercase to Small Capitals lookup 28 subtable" lslash.sc
Substitution2: "'aalt' Access All Alternates lookup 0 subtable" lslash.sc
EndChar

StartChar: nacute
Encoding: 324 324 202
Width: 573
GlyphClass: 2
Flags: MW
HStem: 0 21G<39 165 39 39 339 465 339 339> 439 105<319.5 441.5> 509 20G<113 222 222 222>
VStem: 393.23 128.19
AnchorPoint: "Anchor-11" 250 0 basechar 0
AnchorPoint: "Anchor-10" 104 529 basechar 0
AnchorPoint: "Anchor-9" 329 529 basechar 0
AnchorPoint: "Anchor-8" 0 0 basechar 0
LayerCount: 2
Fore
SplineSet
475 720 m 1xb0
 241 630 l 1
 214 695 l 1
 437 820 l 1
 475 720 l 1xb0
397 544 m 0xd0
 486 544 533 482 519 381 c 2
 465 0 l 1
 339 0 l 1
 391 359 l 2
 401 425 378 439 343 439 c 0xd0
 296 439 247 378 207 303 c 1
 165 0 l 1
 39 0 l 1
 113 529 l 1
 222 529 l 1xb0
 217 431 l 1
 264 499 331 544 397 544 c 0xd0
EndSplineSet
Substitution2: "'smcp' Lowercase to Small Capitals lookup 24 subtable" nacute.sc
Substitution2: "'locl' Localized Forms in Latin lookup 7 subtable" nacute.loclPLK
AlternateSubs2: "'aalt' Access All Alternates lookup 1 subtable" nacute.loclPLK nacute.sc
EndChar

StartChar: Ncommaaccent
Encoding: 325 325 68
Width: 664
GlyphClass: 2
Flags: MW
HStem: 0 21G<43 162 43 43 380 547 380 380> 0 111<468 468 468 547 380 468> 580 111<221 221> 671 20G<140 307 307 307 526 644 644 644>
VStem: 43 601 209 137<-147 -124>
AnchorPoint: "Anchor-11" 296 0 basechar 0
AnchorPoint: "Anchor-10" 0 0 basechar 0
AnchorPoint: "Anchor-9" 400 691 basechar 0
AnchorPoint: "Anchor-8" 0 0 basechar 0
LayerCount: 2
Fore
SplineSet
547 0 m 1x98
 380 0 l 1
 221 580 l 1xa8
 222 495 219 408 200 276 c 2
 162 0 l 1
 43 0 l 1
 140 691 l 1
 307 691 l 1
 468 111 l 1x58
 465 205 467 271 480 373 c 1
 526 691 l 1
 644 691 l 1
 547 0 l 1x98
284 -72 m 0x94
 323 -72 346 -101 346 -133 c 0
 346 -161 335 -182 309 -224 c 2
 253 -312 l 1
 186 -312 l 1
 233 -194 l 1
 219 -183 209 -167 209 -146 c 0
 209 -102 244 -72 284 -72 c 0x94
EndSplineSet
Substitution2: "'c2sc' Capitals to Small Capitals lookup 23 subtable" ncommaaccent.sc
Substitution2: "'aalt' Access All Alternates lookup 0 subtable" ncommaaccent.sc
Position2: "'cpsp' Capital Spacing lookup 0 subtable" dx=5 dy=0 dh=10 dv=0
EndChar

StartChar: ncommaaccent
Encoding: 326 326 205
Width: 573
GlyphClass: 2
Flags: MW
HStem: 0 21G<39 165 39 39 339 465 339 339> 439 105<319.5 441.5> 509 20G<113 222 222 222>
VStem: 163 137<-147 -124> 393.23 128.19
AnchorPoint: "Anchor-11" 250 0 basechar 0
AnchorPoint: "Anchor-10" 104 529 basechar 0
AnchorPoint: "Anchor-9" 329 529 basechar 0
AnchorPoint: "Anchor-8" 0 0 basechar 0
LayerCount: 2
Fore
SplineSet
397 544 m 0xc8
 486 544 533 482 519 381 c 2
 465 0 l 1
 339 0 l 1
 391 359 l 2
 401 425 378 439 343 439 c 0xc8
 296 439 247 378 207 303 c 1
 165 0 l 1
 39 0 l 1
 113 529 l 1
 222 529 l 1xa8
 217 431 l 1
 264 499 331 544 397 544 c 0xc8
238 -72 m 0xb8
 277 -72 300 -101 300 -133 c 0
 300 -161 289 -182 263 -224 c 2
 207 -312 l 1
 140 -312 l 1
 187 -194 l 1
 173 -183 163 -167 163 -146 c 0
 163 -102 198 -72 238 -72 c 0xb8
EndSplineSet
Substitution2: "'smcp' Lowercase to Small Capitals lookup 24 subtable" ncommaaccent.sc
Substitution2: "'aalt' Access All Alternates lookup 0 subtable" ncommaaccent.sc
EndChar
StartChar: Ncaron
Encoding: 327 327 159
Width: 664
GlyphClass: 2
Flags: MW
HStem: 0 21G<43 162 43 43 380 547 380 380> 0 111<468 468 468 547 380 468> 580 111<221 221> 671 20G<140 307 307 307 526 644 644 644>
VStem: 43 601
AnchorPoint: "Anchor-14" 0 0 basechar 0
AnchorPoint: "Anchor-13" 0 0 basechar 0
AnchorPoint: "Anchor-12" 423 928 basechar 0
AnchorPoint: "Anchor-11" 0 0 basechar 0
AnchorPoint: "Anchor-10" 296 0 basechar 0
LayerCount: 2
Back
Fore
SplineSet
554 928 m 1x98
 597 872 l 1
 445 752 l 1
 366 752 l 1
 245 872 l 1
 298 928 l 1
 414 845 l 1
 554 928 l 1x98
644 691 m 1
 547 0 l 1
 380 0 l 1
 221 580 l 1xa8
 222 495 219 408 200 276 c 2
 162 0 l 1
 43 0 l 1
 140 691 l 1
 307 691 l 1
 468 111 l 1x58
 465 205 467 271 480 373 c 2
 526 691 l 1
 644 691 l 1
EndSplineSet
Substitution2: "'c2sc' Capitals to Small Capitals lookup 27 subtable" ncaron.sc
Substitution2: "'aalt' Access All Alternates lookup 0 subtable" ncaron.sc
Position2: "'cpsp' Capital Spacing lookup 0 subtable" dx=5 dy=0 dh=10 dv=0
EndChar

StartChar: ncaron
Encoding: 328 328 204
Width: 573
GlyphClass: 2
Flags: MW
HStem: 0 21G<39 165 39 39 339 465 339 339> 439 105<319.5 441.5> 509 20G<113 222 222 222> 724 20G<183 183 535 535>
VStem: 393.23 128.19
AnchorPoint: "Anchor-11" 250 0 basechar 0
AnchorPoint: "Anchor-10" 104 529 basechar 0
AnchorPoint: "Anchor-9" 329 529 basechar 0
AnchorPoint: "Anchor-8" 0 0 basechar 0
LayerCount: 2
Fore
SplineSet
535 744 m 1xb8
 382 619 l 1
 303 619 l 1
 183 744 l 1
 235 800 l 1
 350 712 l 1
 493 800 l 1
 535 744 l 1xb8
397 544 m 0xd8
 486 544 533 482 519 381 c 2
 465 0 l 1
 339 0 l 1
 391 359 l 2
 401 425 378 439 343 439 c 0xd8
 296 439 247 378 207 303 c 1
 165 0 l 1
 39 0 l 1
 113 529 l 1
 222 529 l 1xb8
 217 431 l 1
 264 499 331 544 397 544 c 0xd8
EndSplineSet
Substitution2: "'smcp' Lowercase to Small Capitals lookup 24 subtable" ncaron.sc
Substitution2: "'aalt' Access All Alternates lookup 0 subtable" ncaron.sc
EndChar
StartChar: napostrophe
Encoding: 329 329 537
Width: 691
GlyphClass: 2
Flags: MW
HStem: 0 21G<157 283 157 157 457 583 457 457> 439 105<479.5 480.5> 509 20G<231 340 340 340> 737 20G<150 185.5>
VStem: 76 562.71 99 125 508 130.71
AnchorPoint: "Anchor-14" 0 0 basechar 0
AnchorPoint: "Anchor-13" 0 0 basechar 0
AnchorPoint: "Anchor-12" 443 529 basechar 0
AnchorPoint: "Anchor-11" 0 0 basechar 0
AnchorPoint: "Anchor-10" 370 0 basechar 0
LayerCount: 2
Back
Fore
SplineSet
167 757 m 0xd6
 204 757 229 728 224 690 c 0
 221 672 214 656 190 617 c 2
 138 534 l 1
 76 534 l 1
 119 644 l 1
 105 656 96 674 99 699 c 0
 103 731 133 757 167 757 c 0xd6
516 544 m 0
 603 544 651 482 636 378 c 2
 583 0 l 1
 457 0 l 1
 508 359 l 2
 516 422 496 439 465 439 c 0xd2
 413 439 364 378 325 303 c 1
 283 0 l 1
 157 0 l 1
 231 529 l 1
 340 529 l 1xb8
 335 431 l 1
 381 499 443 544 516 544 c 0
EndSplineSet
Substitution2: "'smcp' Lowercase to Small Capitals lookup 28 subtable" napostrophe.sc
Ligature2: "'locl' Localized Forms in Latin lookup 12 subtable" quoteright n
Ligature2: "'locl' Localized Forms in Latin lookup 12 subtable" quotesingle n
Substitution2: "'aalt' Access All Alternates lookup 0 subtable" napostrophe.sc
EndChar

StartChar: Eng
Encoding: 330 330 69
Width: 664
GlyphClass: 2
Flags: MW
HStem: -218 21G<329 329> 0 21G<43 162 43 43 380 434 380 380 547 547> 580 111<221 221> 671 20G<140 307 307 307 526 644 644 644>
VStem: 43 601
AnchorPoint: "Anchor-11" 296 0 basechar 0
AnchorPoint: "Anchor-10" 0 0 basechar 0
AnchorPoint: "Anchor-9" 400 691 basechar 0
AnchorPoint: "Anchor-8" 0 0 basechar 0
LayerCount: 2
Fore
SplineSet
644 691 m 1xd8
 547 0 l 1
 528 -119 464 -176 329 -218 c 1
 299 -128 l 1
 373 -101 414 -76 434 0 c 1
 380 0 l 1
 221 580 l 1xe8
 222 495 219 408 200 276 c 2
 162 0 l 1
 43 0 l 1
 140 691 l 1
 307 691 l 1
 468 111 l 1
 465 205 467 271 480 373 c 1
 526 691 l 1
 644 691 l 1xd8
EndSplineSet
Substitution2: "'c2sc' Capitals to Small Capitals lookup 23 subtable" eng.sc
Substitution2: "'aalt' Access All Alternates lookup 0 subtable" eng.sc
Position2: "'cpsp' Capital Spacing lookup 0 subtable" dx=5 dy=0 dh=10 dv=0
EndChar

StartChar: eng
Encoding: 331 331 206
Width: 573
GlyphClass: 2
Flags: MW
HStem: -218 21G<247 247> 0 21G<39 165 39 39> 439 105<319.5 441.5> 509 20G<113 222 222 222>
VStem: 393.23 128.19
LayerCount: 2
Fore
SplineSet
397 544 m 0xe8
 486 544 533 482 519 381 c 2
 471 45 l 1
 449 -117 370 -170 247 -218 c 1
 214 -125 l 1
 291 -94 331 -63 346 42 c 2
 391 359 l 2
 401 426 378 439 343 439 c 0xe8
 296 439 247 378 207 303 c 1
 165 0 l 1
 39 0 l 1
 113 529 l 1
 222 529 l 1xd8
 216 428 l 1
 261 494 331 544 397 544 c 0xe8
EndSplineSet
Substitution2: "'smcp' Lowercase to Small Capitals lookup 24 subtable" eng.sc
Substitution2: "'aalt' Access All Alternates lookup 0 subtable" eng.sc
EndChar
StartChar: Omacron
Encoding: 332 332 199
Width: 683
GlyphClass: 2
Flags: MW
HStem: -15 101<273 397.5 273 439> 605 101<309.5 434.5> 787 91<286 561 274 573>
VStem: 49 135<196 321 196 356.5> 522 136<371 495>
AnchorPoint: "Anchor-14" 0 0 basechar 0
AnchorPoint: "Anchor-13" 617 691 basechar 0
AnchorPoint: "Anchor-12" 425 878 basechar 0
AnchorPoint: "Anchor-11" 0 0 basechar 0
AnchorPoint: "Anchor-10" 303 0 basechar 0
LayerCount: 2
Back
Fore
SplineSet
561 787 m 1
 274 787 l 1
 286 878 l 1
 573 878 l 1
 561 787 l 1
401 706 m 0
 562 706 658 605 658 424 c 0
 658 240 572 -15 306 -15 c 0
 145 -15 49 86 49 266 c 0
 49 447 135 706 401 706 c 0
393 605 m 0
 226 605 184 384 184 258 c 0
 184 134 233 86 313 86 c 0
 482 86 522 308 522 434 c 0
 522 556 476 605 393 605 c 0
EndSplineSet
Substitution2: "'c2sc' Capitals to Small Capitals lookup 27 subtable" omacron.sc
Substitution2: "'aalt' Access All Alternates lookup 0 subtable" omacron.sc
Position2: "'cpsp' Capital Spacing lookup 0 subtable" dx=5 dy=0 dh=10 dv=0
EndChar
StartChar: Obreve
Encoding: 334 334 173
Width: 683
GlyphClass: 2
Flags: MW
HStem: -15 101<273 397.5 273 439> 605 101<309.5 434.5> 754 92<398 443.5 398 460.5>
VStem: 49 135<196 321 196 356.5> 522 136<371 495>
AnchorPoint: "Anchor-14" 0 0 basechar 0
AnchorPoint: "Anchor-13" 617 691 basechar 0
AnchorPoint: "Anchor-12" 435 914 basechar 0
AnchorPoint: "Anchor-11" 0 0 basechar 0
AnchorPoint: "Anchor-10" 303 0 basechar 0
LayerCount: 2
Back
Fore
SplineSet
415 754 m 0
 321 754 269 821 273 901 c 1
 346 911 l 1
 353 872 376 846 420 846 c 0
 467 846 501 875 519 914 c 1
 593 896 l 1
 574 816 506 754 415 754 c 0
401 706 m 0
 562 706 658 605 658 424 c 0
 658 240 572 -15 306 -15 c 0
 145 -15 49 86 49 266 c 0
 49 447 135 706 401 706 c 0
393 605 m 0
 226 605 184 384 184 258 c 0
 184 134 233 86 313 86 c 0
 482 86 522 308 522 434 c 0
 522 556 476 605 393 605 c 0
EndSplineSet
Substitution2: "'c2sc' Capitals to Small Capitals lookup 27 subtable" obreve.sc
Substitution2: "'aalt' Access All Alternates lookup 0 subtable" obreve.sc
Position2: "'cpsp' Capital Spacing lookup 0 subtable" dx=5 dy=0 dh=10 dv=0
EndChar
StartChar: obreve
Encoding: 335 335 554
Width: 576
GlyphClass: 2
Flags: MW
HStem: -15 97<229.5 318.5 229.5 360> 447 97<257.5 346.5> 637 92<316.5 362.5 316.5 378.5>
VStem: 39 130<158 243 158 278> 191 76<794 804> 406 131<287 332>
AnchorPoint: "Anchor-14" 0 0 basechar 0
AnchorPoint: "Anchor-13" 523 529 basechar 0
AnchorPoint: "Anchor-12" 354 808 basechar 0
AnchorPoint: "Anchor-11" 0 0 basechar 0
AnchorPoint: "Anchor-10" 253 0 basechar 0
LayerCount: 2
Back
Fore
SplineSet
333 637 m 0
 239 637 187 704 191 794 c 1
 267 804 l 1
 273 755 294 729 339 729 c 0
 386 729 421 759 440 808 c 1
 512 789 l 1
 492 699 424 637 333 637 c 0
324 544 m 0
 461 544 537 458 537 322 c 0
 537 184 468 -15 252 -15 c 0
 115 -15 39 70 39 208 c 0xf4
 39 348 109 544 324 544 c 0
317 447 m 0xf4
 198 447 169 288 169 198 c 0
 169 118 200 82 259 82 c 0
 378 82 406 242 406 332 c 0
 407 412 376 447 317 447 c 0xf4
EndSplineSet
Substitution2: "'smcp' Lowercase to Small Capitals lookup 28 subtable" obreve.sc
Substitution2: "'aalt' Access All Alternates lookup 0 subtable" obreve.sc
EndChar
StartChar: Ohungarumlaut
Encoding: 336 336 196
Width: 683
GlyphClass: 2
Flags: MW
HStem: -15 101<273 397.5 273 439> 605 101<309.5 434.5>
VStem: 49 135<196 321 196 356.5> 522 136<371 495>
AnchorPoint: "Anchor-14" 0 0 basechar 0
AnchorPoint: "Anchor-13" 617 691 basechar 0
AnchorPoint: "Anchor-12" 404 691 basechar 0
AnchorPoint: "Anchor-11" 0 0 basechar 0
AnchorPoint: "Anchor-10" 303 0 basechar 0
LayerCount: 2
Back
Fore
SplineSet
399 973 m 1
 486 927 l 1
 360 760 l 1
 292 790 l 1
 399 973 l 1
561 973 m 1
 648 925 l 1
 512 755 l 1
 446 787 l 1
 561 973 l 1
401 706 m 0
 562 706 658 605 658 424 c 0
 658 240 572 -15 306 -15 c 0
 145 -15 49 86 49 266 c 0
 49 447 135 706 401 706 c 0
393 605 m 0
 226 605 184 384 184 258 c 0
 184 134 233 86 313 86 c 0
 482 86 522 308 522 434 c 0
 522 556 476 605 393 605 c 0
EndSplineSet
Substitution2: "'c2sc' Capitals to Small Capitals lookup 27 subtable" ohungarumlaut.sc
Substitution2: "'aalt' Access All Alternates lookup 0 subtable" ohungarumlaut.sc
Position2: "'cpsp' Capital Spacing lookup 0 subtable" dx=5 dy=0 dh=10 dv=0
EndChar
StartChar: OE
Encoding: 338 338 210
Width: 897
GlyphClass: 2
Flags: MW
HStem: -15 101<267 306> 0 86<378 380.5 267 809 378 378> 0 99<522 809> 302 98<635 802 624 815> 593 98<587 875 587 587> 605 101<305.5 400.5 261.5 420>
VStem: 49 135<192 322 192 354.5> 502 133<400 412 400 501>
LayerCount: 2
Back
Fore
SplineSet
902 691 m 1x3b
 875 593 l 1
 587 593 l 1
 620 547 635 485 635 412 c 2
 635 400 l 1
 815 400 l 1
 802 302 l 1
 624 302 l 1
 610 230 579 157 522 99 c 1
 823 99 l 1
 809 0 l 1
 378 0 l 1x3b
 350 -10 321 -15 291 -15 c 0
 143 -15 49 85 49 265 c 0
 49 444 138 706 385 706 c 0x97
 416 706 445 701 471 691 c 1
 902 691 l 1x3b
184 251 m 0x57
 184 133 231 86 303 86 c 0
 458 86 502 296 502 444 c 0
 502 558 457 605 383 605 c 0
 228 605 184 393 184 251 c 0x57
EndSplineSet
Substitution2: "'c2sc' Capitals to Small Capitals lookup 27 subtable" oe.sc
Substitution2: "'aalt' Access All Alternates lookup 0 subtable" oe.sc
Position2: "'cpsp' Capital Spacing lookup 0 subtable" dx=5 dy=0 dh=10 dv=0
EndChar
StartChar: oe
Encoding: 339 339 592
Width: 889
GlyphClass: 2
Flags: MW
HStem: -15 97<230.5 297.5> 447 97<258 347> 453 91<640 701.5>
VStem: 39 130<158 243 158 278> 408 119 739 129<365 410>
AnchorPoint: "Anchor-14" 0 0 basechar 0
AnchorPoint: "Anchor-13" 0 0 basechar 0
AnchorPoint: "Anchor-12" 482 529 basechar 0
AnchorPoint: "Anchor-11" 0 0 basechar 0
AnchorPoint: "Anchor-10" 434 0 basechar 0
LayerCount: 2
Back
Fore
SplineSet
868 404 m 0xdc
 868 255 701 212 527 195 c 1
 530 112 571 84 630 84 c 0
 677 84 719 99 768 133 c 1
 816 53 l 1
 759 12 692 -15 615 -15 c 0
 529 -15 474 21 441 75 c 1
 402 22 343 -15 252 -15 c 0
 116 -15 39 70 39 208 c 0
 39 348 109 544 322 544 c 0
 403 544 458 503 490 451 c 1
 533 506 595 544 685 544 c 0
 806 544 868 479 868 404 c 0xdc
533 278 m 1
 674 292 739 332 739 398 c 0
 739 422 726 453 677 453 c 0xbc
 587 453 547 364 533 278 c 1
260 82 m 0
 379 82 407 242 408 332 c 0
 408 412 376 447 318 447 c 0
 198 447 169 288 169 198 c 0
 169 118 201 82 260 82 c 0
EndSplineSet
Substitution2: "'smcp' Lowercase to Small Capitals lookup 28 subtable" oe.sc
Substitution2: "'aalt' Access All Alternates lookup 0 subtable" oe.sc
EndChar
StartChar: Racute
Encoding: 340 340 219
Width: 603
GlyphClass: 2
Flags: MW
HStem: 0 21G<43 174 43 43 413 557 413 413> 277 95<226 298 212 310> 595 96<257 257 257 330>
VStem: 452 136<479.5 540>
AnchorPoint: "Anchor-14" 0 0 basechar 0
AnchorPoint: "Anchor-13" 0 0 basechar 0
AnchorPoint: "Anchor-12" 383 936 basechar 0
AnchorPoint: "Anchor-11" 0 0 basechar 0
AnchorPoint: "Anchor-10" 269 0 basechar 0
LayerCount: 2
Back
Fore
SplineSet
512 836 m 1
 280 751 l 1
 250 817 l 1
 468 936 l 1
 512 836 l 1
588 516 m 0
 588 430 551 345 422 298 c 1
 557 0 l 1
 413 0 l 1
 298 277 l 1
 212 277 l 1
 174 0 l 1
 43 0 l 1
 140 691 l 1
 342 691 l 2
 506 691 588 634 588 516 c 0
257 595 m 1
 226 372 l 1
 310 372 l 2
 422 372 452 449 452 510 c 0
 452 570 413 595 330 595 c 2
 257 595 l 1
EndSplineSet
Substitution2: "'c2sc' Capitals to Small Capitals lookup 27 subtable" racute.sc
Substitution2: "'aalt' Access All Alternates lookup 0 subtable" racute.sc
Position2: "'cpsp' Capital Spacing lookup 0 subtable" dx=5 dy=0 dh=10 dv=0
EndChar

StartChar: racute
Encoding: 341 341 224
Width: 387
GlyphClass: 2
Flags: MW
HStem: 0 21G<39 165 39 39> 418 125<341.5 350.5> 509 20G<113 222 222 222> 515 20G<423 423>
VStem: 39 384
AnchorPoint: "Anchor-11" 102 0 basechar 0
AnchorPoint: "Anchor-10" 0 0 basechar 0
AnchorPoint: "Anchor-9" 270 529 basechar 0
AnchorPoint: "Anchor-8" 0 0 basechar 0
LayerCount: 2
Fore
SplineSet
416 720 m 1x98
 182 630 l 1
 155 695 l 1
 378 820 l 1
 416 720 l 1x98
370 543 m 0xc8
 390 543 406 540 423 535 c 1x98
 386 412 l 1
 370 416 359 418 342 418 c 0xc8
 275 418 235 355 202 261 c 1
 165 0 l 1
 39 0 l 1
 113 529 l 1
 222 529 l 1xa8
 218 426 l 1
 256 503 313 543 370 543 c 0xc8
EndSplineSet
Substitution2: "'smcp' Lowercase to Small Capitals lookup 24 subtable" racute.sc
Substitution2: "'aalt' Access All Alternates lookup 0 subtable" racute.sc
EndChar

StartChar: Rcommaaccent
Encoding: 342 342 89
Width: 603
GlyphClass: 2
Flags: MW
HStem: 0 21G<43 174 43 43 413 557 413 413> 277 95<226 299 213 310> 595 96<257 330 257 257>
VStem: 182 137<-147 -124> 452 136<483 543.5>
AnchorPoint: "Anchor-11" 269 0 basechar 0
AnchorPoint: "Anchor-10" 0 0 basechar 0
AnchorPoint: "Anchor-9" 360 691 basechar 0
AnchorPoint: "Anchor-8" 0 0 basechar 0
LayerCount: 2
Fore
SplineSet
588 520 m 0
 588 431 551 344 422 298 c 1
 557 0 l 1
 413 0 l 1
 299 277 l 1
 213 277 l 1
 174 0 l 1
 43 0 l 1
 140 691 l 1
 342 691 l 2
 506 691 588 635 588 520 c 0
226 372 m 1
 310 372 l 2
 423 372 452 451 452 515 c 0
 452 572 413 595 330 595 c 2
 257 595 l 1
 226 372 l 1
257 -72 m 0
 296 -72 319 -101 319 -133 c 0
 319 -161 308 -182 282 -224 c 2
 226 -312 l 1
 159 -312 l 1
 206 -194 l 1
 192 -183 182 -167 182 -146 c 0
 182 -102 217 -72 257 -72 c 0
EndSplineSet
Substitution2: "'c2sc' Capitals to Small Capitals lookup 23 subtable" rcommaaccent.sc
Substitution2: "'aalt' Access All Alternates lookup 0 subtable" rcommaaccent.sc
Position2: "'cpsp' Capital Spacing lookup 0 subtable" dx=5 dy=0 dh=10 dv=0
EndChar
StartChar: rcommaaccent
Encoding: 343 343 607
Width: 387
GlyphClass: 2
Flags: MW
HStem: 0 21G<39 165 39 39> 418 125<341.5 350.5> 509 20G<113 222 222 222> 515 20G<423 423>
VStem: -8 431 15 137<-147 -124>
AnchorPoint: "Anchor-14" 0 0 basechar 0
AnchorPoint: "Anchor-13" 0 0 basechar 0
AnchorPoint: "Anchor-12" 270 529 basechar 0
AnchorPoint: "Anchor-11" 0 0 basechar 0
AnchorPoint: "Anchor-10" 102 0 basechar 0
LayerCount: 2
Back
Fore
SplineSet
370 543 m 0xc8
 390 543 406 540 423 535 c 1x98
 386 412 l 1
 370 416 359 418 342 418 c 0xc8
 275 418 235 355 202 261 c 1
 165 0 l 1
 39 0 l 1
 113 529 l 1
 222 529 l 1xa8
 218 426 l 1
 256 503 313 543 370 543 c 0xc8
88 -72 m 0x94
 128 -72 152 -101 152 -133 c 0
 152 -161 141 -182 115 -224 c 2
 59 -312 l 1
 -8 -312 l 1
 39 -194 l 1
 25 -183 15 -167 15 -146 c 0
 15 -102 49 -72 88 -72 c 0x94
EndSplineSet
Substitution2: "'smcp' Lowercase to Small Capitals lookup 28 subtable" rcommaaccent.sc
Substitution2: "'aalt' Access All Alternates lookup 0 subtable" rcommaaccent.sc
EndChar
StartChar: Rcaron
Encoding: 344 344 220
Width: 603
GlyphClass: 2
Flags: MW
HStem: 0 21G<43 174 43 43 413 557 413 413> 277 95<226 298 212 310> 595 96<257 257 257 330>
VStem: 452 136<479.5 540>
AnchorPoint: "Anchor-14" 0 0 basechar 0
AnchorPoint: "Anchor-13" 0 0 basechar 0
AnchorPoint: "Anchor-12" 383 928 basechar 0
AnchorPoint: "Anchor-11" 0 0 basechar 0
AnchorPoint: "Anchor-10" 269 0 basechar 0
LayerCount: 2
Back
Fore
SplineSet
405 752 m 1
 326 752 l 1
 205 872 l 1
 258 928 l 1
 374 845 l 1
 514 928 l 1
 557 872 l 1
 405 752 l 1
588 516 m 0
 588 430 551 345 422 298 c 1
 557 0 l 1
 413 0 l 1
 298 277 l 1
 212 277 l 1
 174 0 l 1
 43 0 l 1
 140 691 l 1
 342 691 l 2
 506 691 588 634 588 516 c 0
257 595 m 1
 226 372 l 1
 310 372 l 2
 422 372 452 449 452 510 c 0
 452 570 413 595 330 595 c 2
 257 595 l 1
EndSplineSet
Substitution2: "'c2sc' Capitals to Small Capitals lookup 27 subtable" rcaron.sc
Substitution2: "'aalt' Access All Alternates lookup 0 subtable" rcaron.sc
Position2: "'cpsp' Capital Spacing lookup 0 subtable" dx=5 dy=0 dh=10 dv=0
EndChar

StartChar: rcaron
Encoding: 345 345 225
Width: 387
GlyphClass: 2
Flags: MW
HStem: 0 21G<39 165 39 39> 418 125<341.5 350.5> 509 20G<113 222 222 222> 515 20G<423 423> 724 20G<124 124 476 476>
VStem: 39 437
AnchorPoint: "Anchor-11" 102 0 basechar 0
AnchorPoint: "Anchor-10" 0 0 basechar 0
AnchorPoint: "Anchor-9" 270 529 basechar 0
AnchorPoint: "Anchor-8" 0 0 basechar 0
LayerCount: 2
Fore
SplineSet
476 744 m 1x9c
 323 619 l 1
 244 619 l 1
 124 744 l 1
 176 800 l 1
 291 712 l 1
 434 800 l 1
 476 744 l 1x9c
370 543 m 0xcc
 390 543 406 540 423 535 c 1x9c
 386 412 l 1
 370 416 359 418 342 418 c 0xcc
 275 418 235 355 202 261 c 1
 165 0 l 1
 39 0 l 1
 113 529 l 1
 222 529 l 1xac
 218 426 l 1
 256 503 313 543 370 543 c 0xcc
EndSplineSet
Substitution2: "'smcp' Lowercase to Small Capitals lookup 24 subtable" rcaron.sc
Substitution2: "'aalt' Access All Alternates lookup 0 subtable" rcaron.sc
EndChar
StartChar: Sacute
Encoding: 346 346 228
Width: 552
GlyphClass: 2
Flags: MW
HStem: -15 104<196.5 271 196.5 337.5> 605 101<301 362>
VStem: 77 136<489 541.5 489 546> 376 138<170 228>
AnchorPoint: "Anchor-14" 0 0 basechar 0
AnchorPoint: "Anchor-13" 0 0 basechar 0
AnchorPoint: "Anchor-12" 366 936 basechar 0
AnchorPoint: "Anchor-11" 0 0 basechar 0
AnchorPoint: "Anchor-10" 235 0 basechar 0
LayerCount: 2
Back
Fore
SplineSet
451 936 m 1
 495 836 l 1
 263 751 l 1
 233 817 l 1
 451 936 l 1
333 706 m 0
 429 706 497 674 550 619 c 1
 476 547 l 1
 433 588 389 605 335 605 c 0
 267 605 213 571 213 512 c 0
 213 466 240 445 335 412 c 0
 439 379 514 330 514 219 c 0
 514 121 446 -15 229 -15 c 0
 119 -15 42 26 -9 82 c 1
 69 158 l 1
 111 114 162 89 231 89 c 0
 311 89 376 130 376 202 c 0
 376 254 347 280 259 311 c 0
 135 350 77 405 77 501 c 0
 77 591 152 706 333 706 c 0
EndSplineSet
Substitution2: "'c2sc' Capitals to Small Capitals lookup 27 subtable" sacute.sc
Substitution2: "'locl' Localized Forms in Latin lookup 7 subtable" Sacute.loclPLK
AlternateSubs2: "'aalt' Access All Alternates lookup 1 subtable" Sacute.loclPLK sacute.sc
Position2: "'cpsp' Capital Spacing lookup 0 subtable" dx=5 dy=0 dh=10 dv=0
EndChar
